STARTFONT 2.1
COMMENT
COMMENT Shinonome 12dot proportional font for JISX 0208, 1983/1990
COMMENT
COMMENT The original is designed by
COMMENT   Yasuyuki Furukawa <Furukawa.Yasuyuki@fujixerox.co.jp>, 2000.
COMMENT   (Public Domain)
COMMENT
COMMENT Modified and Maintained by /efont/.
COMMENT
COMMENT (c) /efont/ -- Efont Open Laboratory 2001
COMMENT http://openlab.ring.gr.jp/efont/
COMMENT
FONT -Shinonome-Gothic-Medium-I-Normal--12-110-75-75-P-120-JISX0208.1990-0
SIZE 12 75 75
FONTBOUNDINGBOX 15 12 -1 -2
STARTPROPERTIES 19
FONTNAME_REGISTRY ""
FOUNDRY "Shinonome"
FAMILY_NAME "Gothic"
WEIGHT_NAME "Medium"
SLANT "I"
SETWIDTH_NAME "Normal"
ADD_STYLE_NAME ""
PIXEL_SIZE 12
POINT_SIZE 110
RESOLUTION_X 75
RESOLUTION_Y 75
SPACING "P"
AVERAGE_WIDTH 120
CHARSET_REGISTRY "JISX0208.1990"
CHARSET_ENCODING "0"
COPYRIGHT "Public Domain"
DEFAULT_CHAR 8481
FONT_ASCENT 10
FONT_DESCENT 2
ENDPROPERTIES
CHARS 6879
STARTCHAR 2121
ENCODING 8481
SWIDTH 960 0
DWIDTH 12 0
BBX 15 12 -1 -2
BITMAP
0000
0000
0000
0000
0000
0000
0000
0000
0000
0000
0000
0000
ENDCHAR
STARTCHAR 2122
ENCODING 8482
SWIDTH 610 0
DWIDTH 7 0
BBX 3 3 1 -2
BITMAP
80
40
40
ENDCHAR
STARTCHAR 2123
ENCODING 8483
SWIDTH 610 0
DWIDTH 7 0
BBX 4 3 0 -2
BITMAP
60
90
60
ENDCHAR
STARTCHAR 2124
ENCODING 8484
SWIDTH 436 0
DWIDTH 5 0
BBX 3 3 1 -2
BITMAP
40
40
80
ENDCHAR
STARTCHAR 2125
ENCODING 8485
SWIDTH 349 0
DWIDTH 4 0
BBX 2 2 1 -1
BITMAP
C0
C0
ENDCHAR
STARTCHAR 2126
ENCODING 8486
SWIDTH 523 0
DWIDTH 6 0
BBX 2 2 2 3
BITMAP
C0
C0
ENDCHAR
STARTCHAR 2127
ENCODING 8487
SWIDTH 523 0
DWIDTH 6 0
BBX 4 7 1 0
BITMAP
20
20
00
00
00
40
80
ENDCHAR
STARTCHAR 2128
ENCODING 8488
SWIDTH 523 0
DWIDTH 6 0
BBX 5 8 0 -1
BITMAP
10
10
00
00
00
20
40
80
ENDCHAR
STARTCHAR 2129
ENCODING 8489
SWIDTH 698 0
DWIDTH 8 0
BBX 9 10 0 -1
BITMAP
0F00
1080
1100
0200
0400
0400
0800
0000
0800
1000
ENDCHAR
STARTCHAR 212a
ENCODING 8490
SWIDTH 523 0
DWIDTH 6 0
BBX 5 10 1 -1
BITMAP
18
18
18
20
20
20
40
00
40
80
ENDCHAR
STARTCHAR 212b
ENCODING 8491
SWIDTH 349 0
DWIDTH 4 0
BBX 5 4 0 6
BITMAP
10
48
48
40
ENDCHAR
STARTCHAR 212c
ENCODING 8492
SWIDTH 261 0
DWIDTH 3 0
BBX 4 4 0 5
BITMAP
20
50
60
40
ENDCHAR
STARTCHAR 212d
ENCODING 8493
SWIDTH 436 0
DWIDTH 5 0
BBX 3 3 1 7
BITMAP
20
40
80
ENDCHAR
STARTCHAR 212e
ENCODING 8494
SWIDTH 436 0
DWIDTH 5 0
BBX 3 3 1 7
BITMAP
80
40
20
ENDCHAR
STARTCHAR 212f
ENCODING 8495
SWIDTH 698 0
DWIDTH 8 0
BBX 6 2 1 8
BITMAP
CC
CC
ENDCHAR
STARTCHAR 2130
ENCODING 8496
SWIDTH 610 0
DWIDTH 7 0
BBX 5 3 1 7
BITMAP
20
50
88
ENDCHAR
STARTCHAR 2131
ENCODING 8497
SWIDTH 960 0
DWIDTH 12 0
BBX 15 12 -1 -2
BITMAP
1FFE
0000
0000
0000
0000
0000
0000
0000
0000
0000
0000
0000
ENDCHAR
STARTCHAR 2132
ENCODING 8498
SWIDTH 960 0
DWIDTH 12 0
BBX 15 12 -1 -2
BITMAP
0000
0000
0000
0000
0000
0000
0000
0000
0000
0000
0000
FFF0
ENDCHAR
STARTCHAR 2133
ENCODING 8499
SWIDTH 698 0
DWIDTH 8 0
BBX 7 5 1 1
BITMAP
00
60
10
08
04
ENDCHAR
STARTCHAR 2134
ENCODING 8500
SWIDTH 785 0
DWIDTH 9 0
BBX 10 7 0 1
BITMAP
0080
0240
0100
6000
1800
0400
0400
ENDCHAR
STARTCHAR 2135
ENCODING 8501
SWIDTH 698 0
DWIDTH 8 0
BBX 7 6 1 1
BITMAP
00
60
10
08
1C
20
ENDCHAR
STARTCHAR 2136
ENCODING 8502
SWIDTH 785 0
DWIDTH 9 0
BBX 10 8 0 1
BITMAP
0080
0240
0100
6000
1800
0400
1C00
2000
ENDCHAR
STARTCHAR 2137
ENCODING 8503
SWIDTH 698 0
DWIDTH 8 0
BBX 8 7 0 1
BITMAP
00
09
11
12
24
4C
90
ENDCHAR
STARTCHAR 2138
ENCODING 8504
SWIDTH 960 0
DWIDTH 12 0
BBX 15 12 -1 -2
BITMAP
0080
0080
0140
0640
0820
3038
0FC0
0200
0200
0400
0400
FFE0
ENDCHAR
STARTCHAR 2139
ENCODING 8505
SWIDTH 872 0
DWIDTH 10 0
BBX 10 9 0 -1
BITMAP
0400
07C0
0840
1080
2100
4A00
0C00
0200
0100
ENDCHAR
STARTCHAR 213a
ENCODING 8506
SWIDTH 960 0
DWIDTH 11 0
BBX 11 9 0 0
BITMAP
0020
0020
0040
0180
1A00
2E00
5200
A000
C000
ENDCHAR
STARTCHAR 213b
ENCODING 8507
SWIDTH 960 0
DWIDTH 12 0
BBX 15 12 -1 -2
BITMAP
0000
01C0
0620
0810
1010
2010
4010
4010
4020
4040
3180
0E00
ENDCHAR
STARTCHAR 213c
ENCODING 8508
SWIDTH 872 0
DWIDTH 10 0
BBX 8 2 1 3
BITMAP
FF
00
ENDCHAR
STARTCHAR 213d
ENCODING 8509
SWIDTH 960 0
DWIDTH 12 0
BBX 15 12 -1 -2
BITMAP
0000
0000
0000
0000
0000
0000
7FF8
0000
0000
0000
0000
0000
ENDCHAR
STARTCHAR 213e
ENCODING 8510
SWIDTH 523 0
DWIDTH 6 0
BBX 4 1 1 3
BITMAP
F0
ENDCHAR
STARTCHAR 213f
ENCODING 8511
SWIDTH 960 0
DWIDTH 12 0
BBX 15 12 -1 -2
BITMAP
0002
0004
0018
0020
0040
0180
0200
0400
1800
2000
4000
8000
ENDCHAR
STARTCHAR 2140
ENCODING 8512
SWIDTH 960 0
DWIDTH 12 0
BBX 15 12 -1 -2
BITMAP
1000
0800
0400
0400
0200
0100
0100
0080
0040
0040
0020
0010
ENDCHAR
STARTCHAR 2141
ENCODING 8513
SWIDTH 960 0
DWIDTH 11 0
BBX 11 4 0 2
BITMAP
3800
4400
0260
0180
ENDCHAR
STARTCHAR 2142
ENCODING 8514
SWIDTH 698 0
DWIDTH 8 0
BBX 7 12 1 -2
BITMAP
12
12
12
24
24
24
48
48
48
90
90
90
ENDCHAR
STARTCHAR 2143
ENCODING 8515
SWIDTH 436 0
DWIDTH 5 0
BBX 4 12 1 -2
BITMAP
10
10
10
20
20
20
40
40
40
80
80
80
ENDCHAR
STARTCHAR 2144
ENCODING 8516
SWIDTH 960 0
DWIDTH 12 0
BBX 15 12 -1 -2
BITMAP
0000
0000
0000
0000
0000
1110
2220
0000
0000
0000
0000
0000
ENDCHAR
STARTCHAR 2145
ENCODING 8517
SWIDTH 960 0
DWIDTH 12 0
BBX 15 12 -1 -2
BITMAP
0000
0000
0000
0000
0000
0820
1040
0000
0000
0000
0000
0000
ENDCHAR
STARTCHAR 2146
ENCODING 8518
SWIDTH 436 0
DWIDTH 5 0
BBX 4 4 1 7
BITMAP
10
20
20
60
ENDCHAR
STARTCHAR 2147
ENCODING 8519
SWIDTH 436 0
DWIDTH 5 0
BBX 4 4 1 7
BITMAP
60
20
40
80
ENDCHAR
STARTCHAR 2148
ENCODING 8520
SWIDTH 698 0
DWIDTH 8 0
BBX 7 4 1 7
BITMAP
12
24
24
6C
ENDCHAR
STARTCHAR 2149
ENCODING 8521
SWIDTH 698 0
DWIDTH 8 0
BBX 7 4 1 7
BITMAP
6C
24
4C
90
ENDCHAR
STARTCHAR 214a
ENCODING 8522
SWIDTH 523 0
DWIDTH 6 0
BBX 7 12 0 -2
BITMAP
02
04
08
10
20
20
40
40
40
40
20
10
ENDCHAR
STARTCHAR 214b
ENCODING 8523
SWIDTH 523 0
DWIDTH 6 0
BBX 7 12 0 -2
BITMAP
10
08
08
08
04
04
08
08
10
20
40
80
ENDCHAR
STARTCHAR 214c
ENCODING 8524
SWIDTH 523 0
DWIDTH 6 0
BBX 7 12 0 -2
BITMAP
06
18
10
20
20
20
40
40
40
80
C0
30
ENDCHAR
STARTCHAR 214d
ENCODING 8525
SWIDTH 523 0
DWIDTH 6 0
BBX 7 12 0 -2
BITMAP
18
06
02
04
04
04
08
08
08
10
30
C0
ENDCHAR
STARTCHAR 214e
ENCODING 8526
SWIDTH 523 0
DWIDTH 6 0
BBX 7 12 0 -2
BITMAP
1E
10
10
20
20
20
40
40
40
80
80
F0
ENDCHAR
STARTCHAR 214f
ENCODING 8527
SWIDTH 523 0
DWIDTH 6 0
BBX 7 12 0 -2
BITMAP
1E
02
02
04
04
04
08
08
08
10
10
F0
ENDCHAR
STARTCHAR 2150
ENCODING 8528
SWIDTH 523 0
DWIDTH 6 0
BBX 6 12 0 -2
BITMAP
04
08
08
10
10
20
20
20
20
40
40
20
ENDCHAR
STARTCHAR 2151
ENCODING 8529
SWIDTH 523 0
DWIDTH 6 0
BBX 6 12 0 -2
BITMAP
10
08
08
10
10
08
10
20
20
40
40
80
ENDCHAR
STARTCHAR 2152
ENCODING 8530
SWIDTH 523 0
DWIDTH 6 0
BBX 7 12 0 -2
BITMAP
02
04
08
08
10
20
20
20
20
20
20
10
ENDCHAR
STARTCHAR 2153
ENCODING 8531
SWIDTH 523 0
DWIDTH 6 0
BBX 7 12 0 -2
BITMAP
10
08
08
08
08
08
08
10
20
20
40
80
ENDCHAR
STARTCHAR 2154
ENCODING 8532
SWIDTH 785 0
DWIDTH 9 0
BBX 10 12 0 -2
BITMAP
0240
0480
0880
0900
1200
2400
2400
2400
2400
2400
2400
1200
ENDCHAR
STARTCHAR 2155
ENCODING 8533
SWIDTH 785 0
DWIDTH 9 0
BBX 10 12 0 -2
BITMAP
1200
0900
0900
0900
0900
0900
0900
1200
2200
2400
4800
9000
ENDCHAR
STARTCHAR 2156
ENCODING 8534
SWIDTH 523 0
DWIDTH 6 0
BBX 6 8 0 2
BITMAP
3C
20
20
40
40
40
80
80
ENDCHAR
STARTCHAR 2157
ENCODING 8535
SWIDTH 523 0
DWIDTH 6 0
BBX 6 8 0 -2
BITMAP
04
04
04
08
08
08
10
F0
ENDCHAR
STARTCHAR 2158
ENCODING 8536
SWIDTH 610 0
DWIDTH 7 0
BBX 7 8 0 2
BITMAP
3E
22
2E
50
50
50
A0
E0
ENDCHAR
STARTCHAR 2159
ENCODING 8537
SWIDTH 610 0
DWIDTH 7 0
BBX 7 8 0 -2
BITMAP
0E
0A
0A
14
14
74
88
F8
ENDCHAR
STARTCHAR 215a
ENCODING 8538
SWIDTH 698 0
DWIDTH 8 0
BBX 7 12 1 -2
BITMAP
1E
1C
1C
30
30
30
60
60
60
E0
E0
F0
ENDCHAR
STARTCHAR 215b
ENCODING 8539
SWIDTH 698 0
DWIDTH 8 0
BBX 7 12 1 -2
BITMAP
1E
0E
0E
0C
0C
0C
18
18
18
70
70
F0
ENDCHAR
STARTCHAR 215c
ENCODING 8540
SWIDTH 1047 0
DWIDTH 12 0
BBX 11 9 0 0
BITMAP
0200
0200
0200
0400
7FC0
0400
0800
0800
0800
ENDCHAR
STARTCHAR 215d
ENCODING 8541
SWIDTH 960 0
DWIDTH 11 0
BBX 8 1 1 4
BITMAP
FF
ENDCHAR
STARTCHAR 215e
ENCODING 8542
SWIDTH 1047 0
DWIDTH 12 0
BBX 12 10 0 -1
BITMAP
0100
0100
0100
0200
3FE0
0200
0400
0400
0000
FF80
ENDCHAR
STARTCHAR 215f
ENCODING 8543
SWIDTH 1047 0
DWIDTH 12 0
BBX 10 8 1 0
BITMAP
2040
1080
0B00
0C00
0C00
1200
6200
8100
ENDCHAR
STARTCHAR 2160
ENCODING 8544
SWIDTH 960 0
DWIDTH 11 0
BBX 11 9 0 -1
BITMAP
0600
0600
0000
0000
7FC0
0000
0000
1800
1800
ENDCHAR
STARTCHAR 2161
ENCODING 8545
SWIDTH 960 0
DWIDTH 11 0
BBX 10 4 1 2
BITMAP
7FC0
0000
0000
FF80
ENDCHAR
STARTCHAR 2162
ENCODING 8546
SWIDTH 960 0
DWIDTH 11 0
BBX 12 10 0 -1
BITMAP
0040
0040
0080
3FE0
0200
0200
7FC0
0800
1000
2000
ENDCHAR
STARTCHAR 2163
ENCODING 8547
SWIDTH 960 0
DWIDTH 11 0
BBX 11 9 0 0
BITMAP
0060
0180
0E00
3000
4000
3000
0800
0600
0180
ENDCHAR
STARTCHAR 2164
ENCODING 8548
SWIDTH 960 0
DWIDTH 11 0
BBX 11 9 0 0
BITMAP
3000
0C00
0300
0080
0040
0180
0E00
3000
C000
ENDCHAR
STARTCHAR 2165
ENCODING 8549
SWIDTH 1047 0
DWIDTH 12 0
BBX 13 11 0 -2
BITMAP
0018
00E0
0F00
3000
0E00
0180
0060
7FE0
0000
FFC0
0000
ENDCHAR
STARTCHAR 2166
ENCODING 8550
SWIDTH 1047 0
DWIDTH 12 0
BBX 13 11 0 -2
BITMAP
1800
0700
00C0
0030
01C0
1E00
6000
7FE0
0000
FFC0
0000
ENDCHAR
STARTCHAR 2167
ENCODING 8551
SWIDTH 960 0
DWIDTH 12 0
BBX 15 12 -1 -2
BITMAP
0000
0000
0000
0C60
1290
2310
2210
2520
18C0
0000
0000
0000
ENDCHAR
STARTCHAR 2168
ENCODING 8552
SWIDTH 960 0
DWIDTH 12 0
BBX 15 12 -1 -2
BITMAP
0000
0000
00C0
0180
0000
0000
0000
0000
1860
30C0
0000
0000
ENDCHAR
STARTCHAR 2169
ENCODING 8553
SWIDTH 960 0
DWIDTH 12 0
BBX 15 12 -1 -2
BITMAP
0000
007C
001C
0028
0048
0188
1E00
2200
2200
2400
1800
0000
ENDCHAR
STARTCHAR 216a
ENCODING 8554
SWIDTH 785 0
DWIDTH 9 0
BBX 10 11 0 -2
BITMAP
0700
0880
0880
0900
0600
0400
0800
7F00
0800
1000
1000
ENDCHAR
STARTCHAR 216b
ENCODING 8555
SWIDTH 523 0
DWIDTH 6 0
BBX 5 4 1 5
BITMAP
30
48
50
60
ENDCHAR
STARTCHAR 216c
ENCODING 8556
SWIDTH 436 0
DWIDTH 5 0
BBX 4 4 1 6
BITMAP
60
20
40
80
ENDCHAR
STARTCHAR 216d
ENCODING 8557
SWIDTH 610 0
DWIDTH 7 0
BBX 7 4 0 6
BITMAP
6C
24
4C
90
ENDCHAR
STARTCHAR 216e
ENCODING 8558
SWIDTH 872 0
DWIDTH 9 0
BBX 12 11 0 -2
BITMAP
08D0
1530
0E10
0800
0800
0800
0800
0840
0580
0200
0000
ENDCHAR
STARTCHAR 216f
ENCODING 8559
SWIDTH 1047 0
DWIDTH 12 0
BBX 12 10 0 -1
BITMAP
1C70
0820
0440
1FC0
0500
1FC0
0400
0400
0400
1C00
ENDCHAR
STARTCHAR 2170
ENCODING 8560
SWIDTH 785 0
DWIDTH 9 0
BBX 10 12 0 -2
BITMAP
0500
0F40
15C0
1A80
0A00
0E00
1400
1600
5600
EA00
BC00
2800
ENDCHAR
STARTCHAR 2171
ENCODING 8561
SWIDTH 785 0
DWIDTH 9 0
BBX 9 9 0 -2
BITMAP
0200
0E00
1300
6500
6800
7300
6400
3800
2000
ENDCHAR
STARTCHAR 2172
ENCODING 8562
SWIDTH 960 0
DWIDTH 12 0
BBX 15 12 -1 -2
BITMAP
0000
0060
0090
0100
0300
0300
3F80
0600
3C10
4E40
3380
0000
ENDCHAR
STARTCHAR 2173
ENCODING 8563
SWIDTH 960 0
DWIDTH 11 0
BBX 13 12 -1 -2
BITMAP
0000
0808
1430
1440
0880
0300
0400
0880
3140
4140
8080
0000
ENDCHAR
STARTCHAR 2174
ENCODING 8564
SWIDTH 960 0
DWIDTH 12 0
BBX 15 12 -1 -2
BITMAP
0110
0110
0110
1FF8
0440
0440
0880
0880
7FE0
2200
2200
2200
ENDCHAR
STARTCHAR 2175
ENCODING 8565
SWIDTH 960 0
DWIDTH 11 0
BBX 12 10 0 -1
BITMAP
0700
0880
0900
0A00
0C20
1440
2480
4300
2700
1980
ENDCHAR
STARTCHAR 2176
ENCODING 8566
SWIDTH 698 0
DWIDTH 8 0
BBX 9 8 0 0
BITMAP
0000
0400
2780
1C00
0800
3C00
D200
1000
ENDCHAR
STARTCHAR 2177
ENCODING 8567
SWIDTH 960 0
DWIDTH 12 0
BBX 15 12 -1 -2
BITMAP
0000
01E0
0610
09D0
1268
1268
22D0
2160
1000
08C0
0700
0000
ENDCHAR
STARTCHAR 2178
ENCODING 8568
SWIDTH 610 0
DWIDTH 7 0
BBX 8 12 0 -2
BITMAP
0E
11
10
18
1C
24
64
38
18
18
88
70
ENDCHAR
STARTCHAR 2179
ENCODING 8569
SWIDTH 960 0
DWIDTH 12 0
BBX 15 12 -1 -2
BITMAP
0000
0080
0180
0280
3EF8
1030
1040
0880
1640
3980
60C0
0000
ENDCHAR
STARTCHAR 217a
ENCODING 8570
SWIDTH 960 0
DWIDTH 12 0
BBX 15 12 -1 -2
BITMAP
0000
0080
0080
0380
3FF8
1FF0
1FC0
0F80
1FC0
3B80
60C0
0000
ENDCHAR
STARTCHAR 217b
ENCODING 8571
SWIDTH 960 0
DWIDTH 12 0
BBX 15 12 -1 -2
BITMAP
0000
01C0
0620
0810
1010
2010
4010
4010
4020
4040
3180
0E00
ENDCHAR
STARTCHAR 217c
ENCODING 8572
SWIDTH 960 0
DWIDTH 12 0
BBX 15 12 -1 -2
BITMAP
0000
01C0
07F0
1FF0
1FF0
3FF8
7FF0
7FF0
3FE0
7FC0
3F80
0E00
ENDCHAR
STARTCHAR 217d
ENCODING 8573
SWIDTH 960 0
DWIDTH 12 0
BBX 15 12 -1 -2
BITMAP
0000
01C0
0660
0B90
1450
3850
5050
5090
6920
2E40
1180
0E00
ENDCHAR
STARTCHAR 217e
ENCODING 8574
SWIDTH 960 0
DWIDTH 12 0
BBX 15 12 -1 -2
BITMAP
0000
0080
0340
0440
0820
3010
4010
2020
10C0
1100
0A00
0400
ENDCHAR
STARTCHAR 2221
ENCODING 8737
SWIDTH 960 0
DWIDTH 12 0
BBX 15 12 -1 -2
BITMAP
0000
0080
01C0
07C0
0FE0
1FF0
7FF0
3FE0
1FC0
1F00
0E00
0400
ENDCHAR
STARTCHAR 2222
ENCODING 8738
SWIDTH 960 0
DWIDTH 12 0
BBX 15 12 -1 -2
BITMAP
0000
1FFC
1004
2008
2008
2008
4010
4010
4010
8020
8020
FFE0
ENDCHAR
STARTCHAR 2223
ENCODING 8739
SWIDTH 960 0
DWIDTH 12 0
BBX 15 12 -1 -2
BITMAP
0000
1FFC
1FFC
3FF8
3FF8
3FF8
7FF0
7FF0
7FF0
FFE0
FFE0
FFE0
ENDCHAR
STARTCHAR 2224
ENCODING 8740
SWIDTH 960 0
DWIDTH 12 0
BBX 15 12 -1 -2
BITMAP
0080
0080
0180
0280
0440
0840
0840
1040
2040
4040
FFE0
0000
ENDCHAR
STARTCHAR 2225
ENCODING 8741
SWIDTH 960 0
DWIDTH 12 0
BBX 15 12 -1 -2
BITMAP
0080
0080
01C0
0380
07C0
07C0
1FC0
1FC0
3FE0
7FC0
FFE0
0000
ENDCHAR
STARTCHAR 2226
ENCODING 8742
SWIDTH 960 0
DWIDTH 12 0
BBX 15 12 -1 -2
BITMAP
0000
1FFC
0810
0810
0820
0840
0840
0880
0900
0A00
0400
0400
ENDCHAR
STARTCHAR 2227
ENCODING 8743
SWIDTH 960 0
DWIDTH 12 0
BBX 15 12 -1 -2
BITMAP
0000
1FFC
0FF8
1FF0
0FE0
0FE0
0F80
0F80
0700
0E00
0400
0400
ENDCHAR
STARTCHAR 2228
ENCODING 8744
SWIDTH 960 0
DWIDTH 12 0
BBX 15 12 -1 -2
BITMAP
0000
08C4
04D8
0420
0240
1A98
3330
0480
1840
2640
4620
0000
ENDCHAR
STARTCHAR 2229
ENCODING 8745
SWIDTH 960 0
DWIDTH 12 0
BBX 15 12 -1 -2
BITMAP
0000
0FFC
0FFC
0000
3FFC
3FFC
0300
0300
0300
0600
0600
0600
ENDCHAR
STARTCHAR 222a
ENCODING 8746
SWIDTH 960 0
DWIDTH 12 0
BBX 15 12 -1 -2
BITMAP
0000
0000
0000
00C0
0030
3FFC
0060
0180
0000
0000
0000
0000
ENDCHAR
STARTCHAR 222b
ENCODING 8747
SWIDTH 960 0
DWIDTH 12 0
BBX 15 12 -1 -2
BITMAP
0000
0000
0000
0300
0C00
3FFC
1800
0600
0000
0000
0000
0000
ENDCHAR
STARTCHAR 222c
ENCODING 8748
SWIDTH 785 0
DWIDTH 9 0
BBX 8 12 1 -2
BITMAP
04
04
0E
1C
2A
2A
10
10
10
20
20
20
ENDCHAR
STARTCHAR 222d
ENCODING 8749
SWIDTH 785 0
DWIDTH 9 0
BBX 8 12 1 -2
BITMAP
04
04
04
08
08
08
54
54
78
70
20
20
ENDCHAR
STARTCHAR 222e
ENCODING 8750
SWIDTH 960 0
DWIDTH 12 0
BBX 15 12 -1 -2
BITMAP
0000
0000
0000
3FFC
3FFC
0000
0000
7FF8
7FF8
0000
0000
0000
ENDCHAR
STARTCHAR 223a
ENCODING 8762
SWIDTH 960 0
DWIDTH 12 0
BBX 15 12 -1 -2
BITMAP
0000
0000
03F8
0400
0800
0FF0
1000
0800
07E0
0000
0000
0000
ENDCHAR
STARTCHAR 223b
ENCODING 8763
SWIDTH 960 0
DWIDTH 12 0
BBX 15 12 -1 -2
BITMAP
0000
0000
07C0
0020
0010
0FF0
0020
0040
1F80
0000
0000
0000
ENDCHAR
STARTCHAR 223c
ENCODING 8764
SWIDTH 960 0
DWIDTH 12 0
BBX 15 12 -1 -2
BITMAP
0000
0000
07FC
0800
1000
1000
1000
0FF0
0000
0000
3FE0
0000
ENDCHAR
STARTCHAR 223d
ENCODING 8765
SWIDTH 960 0
DWIDTH 12 0
BBX 15 12 -1 -2
BITMAP
0000
0000
0FE0
0010
0008
0010
0020
3FC0
0000
0000
7FC0
0000
ENDCHAR
STARTCHAR 223e
ENCODING 8766
SWIDTH 960 0
DWIDTH 12 0
BBX 15 12 -1 -2
BITMAP
0000
0000
07FC
0800
1000
1000
2000
2000
1000
0FE0
0000
0000
ENDCHAR
STARTCHAR 223f
ENCODING 8767
SWIDTH 960 0
DWIDTH 12 0
BBX 15 12 -1 -2
BITMAP
0000
0000
0FE0
0010
0008
0008
0010
0010
0060
7F80
0000
0000
ENDCHAR
STARTCHAR 2240
ENCODING 8768
SWIDTH 872 0
DWIDTH 10 0
BBX 11 10 0 -1
BITMAP
1020
1020
1020
2040
2040
2040
4080
4080
2300
1C00
ENDCHAR
STARTCHAR 2241
ENCODING 8769
SWIDTH 872 0
DWIDTH 10 0
BBX 11 10 0 -1
BITMAP
0780
0840
1040
2040
2040
2040
4080
4080
4080
8100
ENDCHAR
STARTCHAR 224a
ENCODING 8778
SWIDTH 1047 0
DWIDTH 12 0
BBX 12 10 0 -1
BITMAP
0100
0100
0300
0500
0880
1080
1080
2080
4080
8080
ENDCHAR
STARTCHAR 224b
ENCODING 8779
SWIDTH 1047 0
DWIDTH 12 0
BBX 12 10 0 -1
BITMAP
1010
1010
1020
1040
0880
0900
0900
0A00
0C00
0800
ENDCHAR
STARTCHAR 224c
ENCODING 8780
SWIDTH 960 0
DWIDTH 12 0
BBX 15 12 -1 -2
BITMAP
0000
0000
0000
0000
0000
1FF8
0010
0010
0010
0000
0000
0000
ENDCHAR
STARTCHAR 224d
ENCODING 8781
SWIDTH 960 0
DWIDTH 12 0
BBX 15 12 -1 -2
BITMAP
0000
0000
0010
0010
3FF8
000C
7FF0
0020
0040
0000
0000
0000
ENDCHAR
STARTCHAR 224e
ENCODING 8782
SWIDTH 960 0
DWIDTH 12 0
BBX 15 12 -1 -2
BITMAP
0000
0000
0610
0810
1FF8
200C
1FF0
1020
0840
0000
0000
0000
ENDCHAR
STARTCHAR 224f
ENCODING 8783
SWIDTH 960 0
DWIDTH 12 0
BBX 15 12 -1 -2
BITMAP
0000
0808
0810
0810
0FE0
0880
0880
0500
0600
0200
0400
0000
ENDCHAR
STARTCHAR 2250
ENCODING 8784
SWIDTH 960 0
DWIDTH 12 0
BBX 15 12 -1 -2
BITMAP
0000
07F8
0008
0010
0010
0FF0
0020
0020
0020
3FC0
0000
0000
ENDCHAR
STARTCHAR 225c
ENCODING 8796
SWIDTH 960 0
DWIDTH 12 0
BBX 15 12 -1 -2
BITMAP
0000
0008
0030
0040
0080
0300
0400
0800
3000
5FE0
0000
0000
ENDCHAR
STARTCHAR 225d
ENCODING 8797
SWIDTH 960 0
DWIDTH 12 0
BBX 15 12 -1 -2
BITMAP
0000
0080
0080
0100
0100
0100
0200
0200
0200
7FE0
0000
0000
ENDCHAR
STARTCHAR 225e
ENCODING 8798
SWIDTH 960 0
DWIDTH 12 0
BBX 15 12 -1 -2
BITMAP
01E0
0618
0804
0000
0000
0000
0000
0000
0000
0000
0000
0000
ENDCHAR
STARTCHAR 225f
ENCODING 8799
SWIDTH 785 0
DWIDTH 9 0
BBX 10 10 0 -1
BITMAP
0380
0440
0040
0680
0980
1180
6200
6600
2800
3000
ENDCHAR
STARTCHAR 2260
ENCODING 8800
SWIDTH 960 0
DWIDTH 12 0
BBX 15 12 -1 -2
BITMAP
0000
1FFC
0FF8
1810
0820
0840
0840
0C80
0500
0E00
0400
0400
ENDCHAR
STARTCHAR 2261
ENCODING 8801
SWIDTH 960 0
DWIDTH 12 0
BBX 15 12 -1 -2
BITMAP
0000
0000
0000
1FF8
0000
0000
3FF0
0000
0000
7FE0
0000
0000
ENDCHAR
STARTCHAR 2262
ENCODING 8802
SWIDTH 960 0
DWIDTH 12 0
BBX 15 12 -1 -2
BITMAP
0000
0300
0300
0000
1FF8
0000
0000
3FF0
0000
0180
0180
0000
ENDCHAR
STARTCHAR 2263
ENCODING 8803
SWIDTH 960 0
DWIDTH 11 0
BBX 11 9 0 -1
BITMAP
0220
0440
1880
2200
4400
2200
2200
1100
0880
ENDCHAR
STARTCHAR 2264
ENCODING 8804
SWIDTH 960 0
DWIDTH 11 0
BBX 11 9 0 -1
BITMAP
2200
1100
0880
0880
0440
1880
2200
4400
8800
ENDCHAR
STARTCHAR 2265
ENCODING 8805
SWIDTH 960 0
DWIDTH 12 0
BBX 15 12 -1 -2
BITMAP
007E
0040
0080
0080
0100
0200
0200
2400
7800
2800
1000
0000
ENDCHAR
STARTCHAR 2266
ENCODING 8806
SWIDTH 960 0
DWIDTH 12 0
BBX 15 12 -1 -2
BITMAP
0000
0000
0000
0660
0890
1110
1110
1220
0CC0
0000
0000
0000
ENDCHAR
STARTCHAR 2267
ENCODING 8807
SWIDTH 960 0
DWIDTH 12 0
BBX 15 12 -1 -2
BITMAP
0000
0000
0000
0630
0948
1180
1100
1290
0C60
0000
0000
0000
ENDCHAR
STARTCHAR 2268
ENCODING 8808
SWIDTH 872 0
DWIDTH 10 0
BBX 10 8 0 0
BITMAP
30C0
30C0
0000
0000
0000
0000
1800
1800
ENDCHAR
STARTCHAR 2269
ENCODING 8809
SWIDTH 698 0
DWIDTH 7 0
BBX 8 12 0 -2
BITMAP
03
04
08
10
18
18
10
18
18
10
20
C0
ENDCHAR
STARTCHAR 226a
ENCODING 8810
SWIDTH 960 0
DWIDTH 11 0
BBX 12 12 0 -2
BITMAP
0330
0440
0880
1100
1980
1980
1100
1980
1980
1100
2200
CC00
ENDCHAR
STARTCHAR 2272
ENCODING 8818
SWIDTH 960 0
DWIDTH 11 0
BBX 12 11 0 -1
BITMAP
0100
0280
0300
0200
0500
0900
1100
1F00
2100
4100
E380
ENDCHAR
STARTCHAR 2273
ENCODING 8819
SWIDTH 960 0
DWIDTH 11 0
BBX 13 12 -1 -2
BITMAP
0C40
1240
1280
1700
0A00
0400
0800
1440
3CA0
54C0
8880
0000
ENDCHAR
STARTCHAR 2274
ENCODING 8820
SWIDTH 872 0
DWIDTH 10 0
BBX 11 11 0 -2
BITMAP
0080
0480
04E0
0F00
3900
0900
1380
1E00
7200
2400
2000
ENDCHAR
STARTCHAR 2275
ENCODING 8821
SWIDTH 698 0
DWIDTH 8 0
BBX 8 12 1 -2
BITMAP
10
10
10
20
20
3C
6C
4C
50
A0
C0
00
ENDCHAR
STARTCHAR 2276
ENCODING 8822
SWIDTH 872 0
DWIDTH 10 0
BBX 11 12 0 -2
BITMAP
0100
0180
0180
02C0
0240
0280
0500
0400
3C00
F800
7000
0000
ENDCHAR
STARTCHAR 2277
ENCODING 8823
SWIDTH 960 0
DWIDTH 11 0
BBX 12 12 0 -2
BITMAP
0100
0380
0920
3FE0
1240
0700
0E00
0400
0400
0800
0800
0000
ENDCHAR
STARTCHAR 2278
ENCODING 8824
SWIDTH 960 0
DWIDTH 11 0
BBX 12 12 0 -2
BITMAP
0380
0380
0920
3FE0
1240
0200
2480
7FC0
2480
1C00
1C00
0000
ENDCHAR
STARTCHAR 2279
ENCODING 8825
SWIDTH 698 0
DWIDTH 8 0
BBX 9 12 0 -2
BITMAP
0F00
1D00
1D00
3A00
1A00
0A00
1400
1400
1400
2800
2800
0000
ENDCHAR
STARTCHAR 227e
ENCODING 8830
SWIDTH 960 0
DWIDTH 12 0
BBX 15 12 -1 -2
BITMAP
01E0
0610
0808
1008
2004
2004
4008
4008
4010
4020
30C0
0F00
ENDCHAR
STARTCHAR 2330
ENCODING 9008
SWIDTH 785 0
DWIDTH 9 0
BBX 10 10 0 -1
BITMAP
0700
0880
1080
2080
2080
2080
4100
4100
2600
1800
ENDCHAR
STARTCHAR 2331
ENCODING 9009
SWIDTH 610 0
DWIDTH 7 0
BBX 8 10 0 -1
BITMAP
04
04
1C
08
08
08
10
10
10
70
ENDCHAR
STARTCHAR 2332
ENCODING 9010
SWIDTH 698 0
DWIDTH 8 0
BBX 9 10 0 -1
BITMAP
0F00
1080
1080
0100
0200
0C00
1000
2000
4000
FC00
ENDCHAR
STARTCHAR 2333
ENCODING 9011
SWIDTH 698 0
DWIDTH 8 0
BBX 9 10 0 -1
BITMAP
0E00
1100
0180
0200
0C00
0200
0200
0200
4C00
3000
ENDCHAR
STARTCHAR 2334
ENCODING 9012
SWIDTH 785 0
DWIDTH 9 0
BBX 10 10 0 -1
BITMAP
0100
0300
0500
0A00
1200
2200
4400
7F00
0400
1C00
ENDCHAR
STARTCHAR 2335
ENCODING 9013
SWIDTH 785 0
DWIDTH 9 0
BBX 9 10 1 -1
BITMAP
1F80
1000
1000
2C00
3200
2200
0200
0400
4800
3000
ENDCHAR
STARTCHAR 2336
ENCODING 9014
SWIDTH 785 0
DWIDTH 9 0
BBX 10 10 1 -1
BITMAP
0700
0880
1000
2000
2E00
3100
4100
4100
2600
1800
ENDCHAR
STARTCHAR 2337
ENCODING 9015
SWIDTH 698 0
DWIDTH 8 0
BBX 9 10 0 -1
BITMAP
1F80
1080
1100
0100
0200
0400
0800
1000
1000
2000
ENDCHAR
STARTCHAR 2338
ENCODING 9016
SWIDTH 785 0
DWIDTH 9 0
BBX 10 10 0 -1
BITMAP
0700
0880
10C0
1100
0E00
1100
2100
4100
2600
1800
ENDCHAR
STARTCHAR 2339
ENCODING 9017
SWIDTH 785 0
DWIDTH 9 0
BBX 10 10 0 -1
BITMAP
0700
0880
1080
1080
1180
0E80
0100
4100
2600
1800
ENDCHAR
STARTCHAR 2341
ENCODING 9025
SWIDTH 872 0
DWIDTH 10 0
BBX 12 10 0 -1
BITMAP
0100
0100
0300
0500
0880
1300
1D80
2080
2080
E380
ENDCHAR
STARTCHAR 2342
ENCODING 9026
SWIDTH 785 0
DWIDTH 9 0
BBX 10 10 0 -1
BITMAP
1F00
0880
08C0
1100
1E00
1100
2100
2100
2600
F800
ENDCHAR
STARTCHAR 2343
ENCODING 9027
SWIDTH 872 0
DWIDTH 10 0
BBX 11 10 0 -1
BITMAP
03A0
0460
0820
1000
2000
2000
2000
2080
1300
0C00
ENDCHAR
STARTCHAR 2344
ENCODING 9028
SWIDTH 872 0
DWIDTH 10 0
BBX 11 10 0 -1
BITMAP
1F00
0880
0880
1080
1040
1080
2080
2100
2600
F800
ENDCHAR
STARTCHAR 2345
ENCODING 9029
SWIDTH 872 0
DWIDTH 10 0
BBX 11 10 0 -1
BITMAP
1FC0
0820
0800
1100
1F00
1100
2000
2080
2100
FE00
ENDCHAR
STARTCHAR 2346
ENCODING 9030
SWIDTH 785 0
DWIDTH 9 0
BBX 11 10 0 -1
BITMAP
1FC0
0820
0800
1100
1F00
1100
2000
2000
2000
E000
ENDCHAR
STARTCHAR 2347
ENCODING 9031
SWIDTH 960 0
DWIDTH 11 0
BBX 12 10 0 -1
BITMAP
03A0
0460
0820
1000
2000
21E0
2080
2080
1380
0D00
ENDCHAR
STARTCHAR 2348
ENCODING 9032
SWIDTH 960 0
DWIDTH 11 0
BBX 12 10 0 -1
BITMAP
1C70
0820
0820
1040
1FC0
1040
2080
2080
2080
E380
ENDCHAR
STARTCHAR 2349
ENCODING 9033
SWIDTH 610 0
DWIDTH 7 0
BBX 6 10 1 -1
BITMAP
1C
08
08
10
10
10
20
20
20
E0
ENDCHAR
STARTCHAR 234a
ENCODING 9034
SWIDTH 698 0
DWIDTH 8 0
BBX 9 11 0 -2
BITMAP
0380
0100
0100
0200
0200
0200
0400
0400
0800
9000
6000
ENDCHAR
STARTCHAR 234b
ENCODING 9035
SWIDTH 872 0
DWIDTH 10 0
BBX 11 10 0 -1
BITMAP
1DC0
0880
0B00
1400
1800
1400
2400
2200
2100
E700
ENDCHAR
STARTCHAR 234c
ENCODING 9036
SWIDTH 872 0
DWIDTH 10 0
BBX 11 10 0 -1
BITMAP
1C00
0800
0800
1000
1000
1000
2000
2080
2100
FE00
ENDCHAR
STARTCHAR 234d
ENCODING 9037
SWIDTH 1047 0
DWIDTH 12 0
BBX 14 10 0 -1
BITMAP
180C
0808
0C18
1830
1450
1490
24A0
2520
2620
E4E0
ENDCHAR
STARTCHAR 234e
ENCODING 9038
SWIDTH 872 0
DWIDTH 10 0
BBX 11 10 0 -1
BITMAP
18E0
0C40
0C40
1480
1280
1280
2300
2300
2100
E200
ENDCHAR
STARTCHAR 234f
ENCODING 9039
SWIDTH 960 0
DWIDTH 11 0
BBX 12 10 0 -1
BITMAP
0380
0440
0820
1020
2020
2020
2040
2080
1300
0C00
ENDCHAR
STARTCHAR 2350
ENCODING 9040
SWIDTH 785 0
DWIDTH 9 0
BBX 10 10 0 -1
BITMAP
1F00
0880
0880
1080
1100
1E00
2000
2000
2000
E000
ENDCHAR
STARTCHAR 2351
ENCODING 9041
SWIDTH 960 0
DWIDTH 11 0
BBX 13 11 0 -2
BITMAP
0380
0440
0820
1020
2020
2020
2C40
2280
1300
0D40
00C0
ENDCHAR
STARTCHAR 2352
ENCODING 9042
SWIDTH 872 0
DWIDTH 10 0
BBX 12 11 0 -2
BITMAP
1F80
0840
0860
1080
1F00
1100
2100
2100
2100
E180
0100
ENDCHAR
STARTCHAR 2353
ENCODING 9043
SWIDTH 785 0
DWIDTH 9 0
BBX 10 10 0 -1
BITMAP
0F40
10C0
1040
1000
0C00
0200
0200
4100
6200
9C00
ENDCHAR
STARTCHAR 2354
ENCODING 9044
SWIDTH 960 0
DWIDTH 11 0
BBX 12 10 0 -1
BITMAP
1FF0
1110
1110
0200
0200
0200
0400
0400
0400
1C00
ENDCHAR
STARTCHAR 2355
ENCODING 9045
SWIDTH 960 0
DWIDTH 11 0
BBX 12 10 0 -1
BITMAP
1C70
0820
0820
1040
1040
1040
2080
2080
1300
0C00
ENDCHAR
STARTCHAR 2356
ENCODING 9046
SWIDTH 960 0
DWIDTH 11 0
BBX 12 10 0 -1
BITMAP
1C70
0820
0840
0840
0880
0900
0900
0A00
0C00
0800
ENDCHAR
STARTCHAR 2357
ENCODING 9047
SWIDTH 1047 0
DWIDTH 12 0
BBX 14 10 0 -1
BITMAP
1DDC
0888
0890
0910
0AA0
0CA0
14C0
0880
0880
1100
ENDCHAR
STARTCHAR 2358
ENCODING 9048
SWIDTH 960 0
DWIDTH 11 0
BBX 12 10 0 -1
BITMAP
1C70
0820
04C0
0500
0200
0600
0A00
1100
6080
A380
ENDCHAR
STARTCHAR 2359
ENCODING 9049
SWIDTH 960 0
DWIDTH 11 0
BBX 12 10 0 -1
BITMAP
1C70
0820
04C0
0500
0200
0200
0400
0400
0400
1C00
ENDCHAR
STARTCHAR 235a
ENCODING 9050
SWIDTH 960 0
DWIDTH 11 0
BBX 12 10 0 -1
BITMAP
07F0
0420
08C0
0100
0200
0400
0800
1040
6040
BF80
ENDCHAR
STARTCHAR 2361
ENCODING 9057
SWIDTH 698 0
DWIDTH 8 0
BBX 8 7 0 -1
BITMAP
0C
12
1E
24
44
58
2C
ENDCHAR
STARTCHAR 2362
ENCODING 9058
SWIDTH 785 0
DWIDTH 9 0
BBX 10 10 0 -1
BITMAP
1800
0800
0800
1600
1900
1100
2100
2200
3400
5800
ENDCHAR
STARTCHAR 2363
ENCODING 9059
SWIDTH 698 0
DWIDTH 8 0
BBX 8 7 0 -1
BITMAP
0E
11
20
40
40
26
18
ENDCHAR
STARTCHAR 2364
ENCODING 9060
SWIDTH 785 0
DWIDTH 9 0
BBX 10 10 0 -1
BITMAP
0180
0080
0080
0D00
1300
2100
4200
4200
2E00
1600
ENDCHAR
STARTCHAR 2365
ENCODING 9061
SWIDTH 698 0
DWIDTH 8 0
BBX 8 7 0 -1
BITMAP
0C
12
21
7E
40
26
18
ENDCHAR
STARTCHAR 2366
ENCODING 9062
SWIDTH 698 0
DWIDTH 8 0
BBX 9 10 0 -1
BITMAP
0300
0480
0400
3E00
0800
0800
1000
1000
1000
7000
ENDCHAR
STARTCHAR 2367
ENCODING 9063
SWIDTH 785 0
DWIDTH 9 0
BBX 9 9 0 -2
BITMAP
0000
0C80
1200
1200
1C00
1000
7C00
C200
3C00
ENDCHAR
STARTCHAR 2368
ENCODING 9064
SWIDTH 785 0
DWIDTH 8 0
BBX 10 10 0 -1
BITMAP
1800
0800
0800
1600
1900
1100
2200
2200
2200
EE00
ENDCHAR
STARTCHAR 2369
ENCODING 9065
SWIDTH 610 0
DWIDTH 7 0
BBX 6 10 1 -1
BITMAP
18
08
00
30
10
10
20
20
20
E0
ENDCHAR
STARTCHAR 236a
ENCODING 9066
SWIDTH 698 0
DWIDTH 8 0
BBX 8 11 0 -2
BITMAP
03
01
00
06
02
02
04
04
04
88
70
ENDCHAR
STARTCHAR 236b
ENCODING 9067
SWIDTH 785 0
DWIDTH 9 0
BBX 10 10 0 -1
BITMAP
1800
0800
0800
1700
1200
1400
3800
2400
2200
EE00
ENDCHAR
STARTCHAR 236c
ENCODING 9068
SWIDTH 610 0
DWIDTH 7 0
BBX 6 10 1 -1
BITMAP
18
08
08
10
10
10
20
20
20
E0
ENDCHAR
STARTCHAR 236d
ENCODING 9069
SWIDTH 960 0
DWIDTH 11 0
BBX 12 7 0 -1
BITMAP
2CC0
1320
1220
2440
2440
2440
DDC0
ENDCHAR
STARTCHAR 236e
ENCODING 9070
SWIDTH 785 0
DWIDTH 9 0
BBX 9 7 0 -1
BITMAP
3600
1900
1100
2200
2200
2200
EE00
ENDCHAR
STARTCHAR 236f
ENCODING 9071
SWIDTH 785 0
DWIDTH 9 0
BBX 9 7 0 -1
BITMAP
0E00
1100
2100
4100
4200
2400
1800
ENDCHAR
STARTCHAR 2370
ENCODING 9072
SWIDTH 785 0
DWIDTH 9 0
BBX 9 8 0 -2
BITMAP
3600
1900
1100
2100
3200
2C00
4000
E000
ENDCHAR
STARTCHAR 2371
ENCODING 9073
SWIDTH 785 0
DWIDTH 9 0
BBX 9 8 0 -2
BITMAP
0D80
1300
2100
2200
2600
1A00
0400
0E00
ENDCHAR
STARTCHAR 2372
ENCODING 9074
SWIDTH 698 0
DWIDTH 8 0
BBX 8 7 0 -1
BITMAP
36
19
10
20
20
20
E0
ENDCHAR
STARTCHAR 2373
ENCODING 9075
SWIDTH 610 0
DWIDTH 7 0
BBX 7 7 0 -1
BITMAP
1C
22
20
18
04
48
30
ENDCHAR
STARTCHAR 2374
ENCODING 9076
SWIDTH 698 0
DWIDTH 8 0
BBX 9 10 0 -1
BITMAP
0400
0400
0400
3E00
0800
0800
1000
1000
1600
0800
ENDCHAR
STARTCHAR 2375
ENCODING 9077
SWIDTH 785 0
DWIDTH 9 0
BBX 9 7 0 -1
BITMAP
3B80
1100
1100
2200
2200
2600
1A00
ENDCHAR
STARTCHAR 2376
ENCODING 9078
SWIDTH 872 0
DWIDTH 10 0
BBX 10 7 0 -1
BITMAP
39C0
1080
1100
1100
0A00
0C00
0800
ENDCHAR
STARTCHAR 2377
ENCODING 9079
SWIDTH 1047 0
DWIDTH 12 0
BBX 13 7 0 -1
BITMAP
3BB8
1110
1120
1320
1540
1880
1100
ENDCHAR
STARTCHAR 2378
ENCODING 9080
SWIDTH 785 0
DWIDTH 9 0
BBX 9 7 0 -1
BITMAP
3B80
1100
0E00
0800
1400
6200
AE00
ENDCHAR
STARTCHAR 2379
ENCODING 9081
SWIDTH 785 0
DWIDTH 9 0
BBX 9 8 0 -2
BITMAP
3B80
1100
1200
1400
0800
0800
9000
6000
ENDCHAR
STARTCHAR 237a
ENCODING 9082
SWIDTH 785 0
DWIDTH 9 0
BBX 9 7 0 -1
BITMAP
1F00
2200
0400
0800
1100
6200
BC00
ENDCHAR
STARTCHAR 2421
ENCODING 9249
SWIDTH 785 0
DWIDTH 9 0
BBX 9 7 0 -1
BITMAP
0800
1E00
0A00
3E00
3900
5200
6400
ENDCHAR
STARTCHAR 2422
ENCODING 9250
SWIDTH 960 0
DWIDTH 11 0
BBX 12 11 0 -1
BITMAP
0200
0200
0FC0
0400
0780
0A40
3240
5440
5C80
5100
2600
ENDCHAR
STARTCHAR 2423
ENCODING 9251
SWIDTH 698 0
DWIDTH 8 0
BBX 9 6 1 -0
BITMAP
0000
2000
4400
4400
A400
4000
ENDCHAR
STARTCHAR 2424
ENCODING 9252
SWIDTH 960 0
DWIDTH 11 0
BBX 11 9 0 0
BITMAP
0000
1000
2080
2080
4080
4080
5080
5080
2000
ENDCHAR
STARTCHAR 2425
ENCODING 9253
SWIDTH 610 0
DWIDTH 7 0
BBX 7 7 0 -1
BITMAP
10
0C
3C
44
04
18
60
ENDCHAR
STARTCHAR 2426
ENCODING 9254
SWIDTH 785 0
DWIDTH 9 0
BBX 10 11 1 -1
BITMAP
0400
0300
0000
0E00
3100
0100
0100
0200
0400
1800
6000
ENDCHAR
STARTCHAR 2427
ENCODING 9255
SWIDTH 785 0
DWIDTH 9 0
BBX 9 7 0 -1
BITMAP
0800
0400
1F00
0400
1800
6800
8E00
ENDCHAR
STARTCHAR 2428
ENCODING 9256
SWIDTH 960 0
DWIDTH 11 0
BBX 12 11 0 -1
BITMAP
0200
0180
0000
0F80
0100
0200
0400
0C00
3400
4400
8380
ENDCHAR
STARTCHAR 2429
ENCODING 9257
SWIDTH 785 0
DWIDTH 9 0
BBX 9 8 0 -1
BITMAP
0000
0800
3D00
1100
1800
7400
A400
4800
ENDCHAR
STARTCHAR 242a
ENCODING 9258
SWIDTH 1047 0
DWIDTH 12 0
BBX 13 11 0 -1
BITMAP
0200
0200
0390
3C10
0410
0700
1880
2840
4880
5100
2600
ENDCHAR
STARTCHAR 242b
ENCODING 9259
SWIDTH 1024 0
DWIDTH 12 0
BBX 13 10 0 -1
BITMAP
0400
0420
1E20
0920
0910
1110
1200
2200
5400
9800
ENDCHAR
STARTCHAR 242c
ENCODING 9260
SWIDTH 1024 0
DWIDTH 12 0
BBX 14 10 0 -1
BITMAP
0428
0428
1E10
0910
0910
1110
1200
2200
5400
9800
ENDCHAR
STARTCHAR 242d
ENCODING 9261
SWIDTH 872 0
DWIDTH 10 0
BBX 11 11 0 -1
BITMAP
0200
0380
1E00
0380
3E00
0100
1D00
2300
4000
4000
3C00
ENDCHAR
STARTCHAR 242e
ENCODING 9262
SWIDTH 872 0
DWIDTH 11 0
BBX 12 11 0 -1
BITMAP
02A0
03A0
1E00
0380
3E00
0100
1D00
2300
4000
4000
3C00
ENDCHAR
STARTCHAR 242f
ENCODING 9263
SWIDTH 698 0
DWIDTH 8 0
BBX 9 11 0 -1
BITMAP
0100
0100
0200
0C00
1000
2000
2000
1000
0800
0800
0800
ENDCHAR
STARTCHAR 2430
ENCODING 9264
SWIDTH 785 0
DWIDTH 9 0
BBX 11 11 0 -1
BITMAP
0100
01A0
02A0
0C00
1000
2000
2000
1000
0800
0800
0800
ENDCHAR
STARTCHAR 2431
ENCODING 9265
SWIDTH 1047 0
DWIDTH 12 0
BBX 13 11 0 -1
BITMAP
0020
0820
1038
13C0
2040
2040
4080
5080
2100
0200
0C00
ENDCHAR
STARTCHAR 2432
ENCODING 9266
SWIDTH 1047 0
DWIDTH 12 0
BBX 14 11 0 -1
BITMAP
0054
0854
1038
13C0
2040
2040
4080
5080
2100
0200
0C00
ENDCHAR
STARTCHAR 2433
ENCODING 9267
SWIDTH 872 0
DWIDTH 10 0
BBX 11 10 0 -1
BITMAP
0800
07C0
0000
0000
0000
0000
4000
4080
3F00
0000
ENDCHAR
STARTCHAR 2434
ENCODING 9268
SWIDTH 872 0
DWIDTH 10 0
BBX 12 11 0 -1
BITMAP
0000
0850
07D0
0000
0000
0000
0000
4000
4180
3E00
0000
ENDCHAR
STARTCHAR 2435
ENCODING 9269
SWIDTH 872 0
DWIDTH 10 0
BBX 11 11 0 -1
BITMAP
0200
0200
01E0
3F00
0200
0100
3D00
4300
4000
2000
1C00
ENDCHAR
STARTCHAR 2436
ENCODING 9270
SWIDTH 872 0
DWIDTH 10 0
BBX 12 11 0 -1
BITMAP
0250
0250
01E0
3E00
0100
0300
3D00
4300
4000
2000
1C00
ENDCHAR
STARTCHAR 2437
ENCODING 9271
SWIDTH 872 0
DWIDTH 10 0
BBX 10 11 1 -1
BITMAP
0000
1000
1000
2000
2000
2000
4000
4000
4300
4C00
3000
ENDCHAR
STARTCHAR 2438
ENCODING 9272
SWIDTH 872 0
DWIDTH 10 0
BBX 10 11 1 -1
BITMAP
0000
1000
1140
2280
2000
2000
4000
4000
4300
4C00
3000
ENDCHAR
STARTCHAR 2439
ENCODING 9273
SWIDTH 960 0
DWIDTH 11 0
BBX 13 11 -1 -1
BITMAP
0040
0040
0FF8
0080
0380
0480
0500
0300
0300
0400
1800
ENDCHAR
STARTCHAR 243a
ENCODING 9274
SWIDTH 1047 0
DWIDTH 12 0
BBX 14 11 -1 -1
BITMAP
0054
0054
0FF8
0080
0380
0480
0500
0300
0300
0400
1800
ENDCHAR
STARTCHAR 243b
ENCODING 9275
SWIDTH 1047 0
DWIDTH 12 0
BBX 13 11 0 -1
BITMAP
0000
0040
0440
08F0
0B80
3C80
1100
1100
1000
1000
0F00
ENDCHAR
STARTCHAR 243c
ENCODING 9276
SWIDTH 1047 0
DWIDTH 12 0
BBX 15 11 -1 -1
BITMAP
0000
004A
0452
08E0
0B80
3C80
1100
1100
1000
1000
0F00
ENDCHAR
STARTCHAR 243d
ENCODING 9277
SWIDTH 960 0
DWIDTH 11 0
BBX 12 11 0 -1
BITMAP
0000
07C0
0180
0200
04E0
3F00
0400
0800
0800
0800
0600
ENDCHAR
STARTCHAR 243e
ENCODING 9278
SWIDTH 1047 0
DWIDTH 12 0
BBX 14 11 0 -1
BITMAP
0000
07E8
01A8
0200
04E0
3F00
0400
0800
0800
0800
0600
ENDCHAR
STARTCHAR 243f
ENCODING 9279
SWIDTH 960 0
DWIDTH 11 0
BBX 12 11 0 -1
BITMAP
0200
0200
1F80
0800
0860
1180
1000
2000
4400
4400
8380
ENDCHAR
STARTCHAR 2440
ENCODING 9280
SWIDTH 1047 0
DWIDTH 12 0
BBX 14 11 0 -1
BITMAP
0200
0228
1FA8
0800
0860
1180
1000
2000
4400
4400
8380
ENDCHAR
STARTCHAR 2441
ENCODING 9281
SWIDTH 872 0
DWIDTH 10 0
BBX 11 11 0 -1
BITMAP
0400
0400
1FC0
0800
0800
1600
3900
2080
0100
0600
3800
ENDCHAR
STARTCHAR 2442
ENCODING 9282
SWIDTH 872 0
DWIDTH 10 0
BBX 12 11 0 -1
BITMAP
0400
0450
1FD0
0800
0800
1600
3900
2080
0100
0600
3800
ENDCHAR
STARTCHAR 2443
ENCODING 9283
SWIDTH 785 0
DWIDTH 9 0
BBX 9 6 1 -1
BITMAP
0000
1800
6400
0400
0800
3000
ENDCHAR
STARTCHAR 2444
ENCODING 9284
SWIDTH 1047 0
DWIDTH 12 0
BBX 12 7 0 1
BITMAP
07C0
3820
0020
0020
0040
0180
1E00
ENDCHAR
STARTCHAR 2445
ENCODING 9285
SWIDTH 1047 0
DWIDTH 12 0
BBX 12 8 0 1
BITMAP
0050
07D0
3840
0040
0040
0180
0600
3800
ENDCHAR
STARTCHAR 2446
ENCODING 9286
SWIDTH 960 0
DWIDTH 11 0
BBX 12 10 0 -1
BITMAP
0070
1F80
0100
0200
0400
0400
0400
0400
0380
0000
ENDCHAR
STARTCHAR 2447
ENCODING 9287
SWIDTH 1047 0
DWIDTH 12 0
BBX 13 10 0 -1
BITMAP
0070
1F80
0128
0250
0400
0400
0400
0400
0380
0000
ENDCHAR
STARTCHAR 2448
ENCODING 9288
SWIDTH 872 0
DWIDTH 10 0
BBX 11 10 0 -1
BITMAP
0400
0400
0400
04C0
0700
1C00
2000
4000
2000
1F00
ENDCHAR
STARTCHAR 2449
ENCODING 9289
SWIDTH 872 0
DWIDTH 10 0
BBX 12 10 0 -1
BITMAP
0450
0450
0400
04C0
0700
1C00
2000
4000
2000
1F00
ENDCHAR
STARTCHAR 244a
ENCODING 9290
SWIDTH 1047 0
DWIDTH 12 0
BBX 13 10 0 -1
BITMAP
0200
0F90
0228
0440
0840
3040
4780
08C0
0920
0600
ENDCHAR
STARTCHAR 244b
ENCODING 9291
SWIDTH 960 0
DWIDTH 11 0
BBX 12 10 0 -1
BITMAP
0800
0860
1180
1000
2000
2000
4400
4400
53C0
6000
ENDCHAR
STARTCHAR 244c
ENCODING 9292
SWIDTH 1047 0
DWIDTH 12 0
BBX 13 10 0 -1
BITMAP
0080
0880
0FC0
1920
1110
1A10
3420
49A0
5240
6180
ENDCHAR
STARTCHAR 244d
ENCODING 9293
SWIDTH 1047 0
DWIDTH 12 0
BBX 13 11 0 -1
BITMAP
0400
0400
0400
3DC0
0A20
0C20
3040
3040
53C0
24C0
2300
ENDCHAR
STARTCHAR 244e
ENCODING 9294
SWIDTH 1047 0
DWIDTH 12 0
BBX 12 9 0 0
BITMAP
0780
0A40
1220
2420
4420
4840
5080
2100
0600
ENDCHAR
STARTCHAR 244f
ENCODING 9295
SWIDTH 1047 0
DWIDTH 12 0
BBX 13 10 0 -1
BITMAP
0820
0838
13E0
1040
2040
2040
4780
48C0
5920
6600
ENDCHAR
STARTCHAR 2450
ENCODING 9296
SWIDTH 1047 0
DWIDTH 12 0
BBX 14 11 0 -1
BITMAP
0014
0834
1020
17E0
2040
2040
4080
4780
48C0
6940
4600
ENDCHAR
STARTCHAR 2451
ENCODING 9297
SWIDTH 1047 0
DWIDTH 12 0
BBX 14 11 0 -1
BITMAP
0018
0824
1038
17C0
2040
2040
4080
4780
48C0
6940
4600
ENDCHAR
STARTCHAR 2452
ENCODING 9298
SWIDTH 960 0
DWIDTH 11 0
BBX 12 10 0 -1
BITMAP
0200
1C00
0440
0880
10C0
20A0
4100
4100
2600
1800
ENDCHAR
STARTCHAR 2453
ENCODING 9299
SWIDTH 1047 0
DWIDTH 12 0
BBX 14 11 0 -1
BITMAP
0000
0114
0E14
0880
1080
20C0
2140
4100
4200
4400
3800
ENDCHAR
STARTCHAR 2454
ENCODING 9300
SWIDTH 1047 0
DWIDTH 12 0
BBX 14 11 0 -1
BITMAP
0018
0124
0E18
0880
1080
20C0
2140
4100
4200
4400
3800
ENDCHAR
STARTCHAR 2455
ENCODING 9301
SWIDTH 1047 0
DWIDTH 12 0
BBX 13 10 0 -1
BITMAP
0200
01C0
0000
0200
0240
0A20
1220
2120
5200
0C00
ENDCHAR
STARTCHAR 2456
ENCODING 9302
SWIDTH 1047 0
DWIDTH 12 0
BBX 13 11 0 -1
BITMAP
0000
0228
01E8
0000
0200
0240
1240
1220
6220
A200
1C00
ENDCHAR
STARTCHAR 2457
ENCODING 9303
SWIDTH 1047 0
DWIDTH 12 0
BBX 14 11 0 -1
BITMAP
0000
0218
01EC
0010
0200
0240
1240
1220
6220
A200
1C00
ENDCHAR
STARTCHAR 2458
ENCODING 9304
SWIDTH 1047 0
DWIDTH 12 0
BBX 12 8 0 0
BITMAP
0000
0600
1900
6100
0080
0040
0040
0000
ENDCHAR
STARTCHAR 2459
ENCODING 9305
SWIDTH 1047 0
DWIDTH 12 0
BBX 12 9 0 -1
BITMAP
0050
0050
0C00
1200
6100
0080
0080
0040
0000
ENDCHAR
STARTCHAR 245a
ENCODING 9306
SWIDTH 1047 0
DWIDTH 12 0
BBX 13 9 0 -0
BITMAP
0030
0048
0C30
1200
6100
0080
0080
0040
0000
ENDCHAR
STARTCHAR 245b
ENCODING 9307
SWIDTH 1047 0
DWIDTH 12 0
BBX 13 10 0 -1
BITMAP
0BF8
0820
1020
13E0
2040
2040
4780
48C0
5920
6600
ENDCHAR
STARTCHAR 245c
ENCODING 9308
SWIDTH 1047 0
DWIDTH 12 0
BBX 14 11 0 -1
BITMAP
0014
0BF4
1020
1040
23E0
2040
4080
4780
48C0
6940
4600
ENDCHAR
STARTCHAR 245d
ENCODING 9309
SWIDTH 1047 0
DWIDTH 12 0
BBX 14 11 0 -1
BITMAP
0018
0BE4
1038
1040
23E0
2040
4080
4780
48C0
6940
4600
ENDCHAR
STARTCHAR 245e
ENCODING 9310
SWIDTH 872 0
DWIDTH 10 0
BBX 11 11 0 -1
BITMAP
0100
0100
1FE0
0200
0380
3E00
0400
3C00
4600
4900
3000
ENDCHAR
STARTCHAR 245f
ENCODING 9311
SWIDTH 1047 0
DWIDTH 12 0
BBX 13 10 0 -1
BITMAP
0F00
0100
0120
0240
0FC0
1460
28A0
5080
2100
0600
ENDCHAR
STARTCHAR 2460
ENCODING 9312
SWIDTH 1047 0
DWIDTH 12 0
BBX 13 11 0 -1
BITMAP
0200
0200
0300
3C60
0410
1C00
2800
5040
3080
1100
0E00
ENDCHAR
STARTCHAR 2461
ENCODING 9313
SWIDTH 1047 0
DWIDTH 12 0
BBX 13 11 0 -1
BITMAP
0000
0080
0BC0
1540
1920
3220
5420
4820
5040
6180
0600
ENDCHAR
STARTCHAR 2462
ENCODING 9314
SWIDTH 872 0
DWIDTH 10 0
BBX 11 11 0 -1
BITMAP
0200
0200
0F80
0400
0880
3F00
1000
1080
1100
1200
0C00
ENDCHAR
STARTCHAR 2463
ENCODING 9315
SWIDTH 872 0
DWIDTH 10 0
BBX 10 7 0 -1
BITMAP
0A00
0B80
3D80
1080
0B00
0800
1000
ENDCHAR
STARTCHAR 2464
ENCODING 9316
SWIDTH 1047 0
DWIDTH 12 0
BBX 14 11 0 -1
BITMAP
0080
0480
0460
0590
0E88
3430
04C0
0400
0400
0400
0400
ENDCHAR
STARTCHAR 2465
ENCODING 9317
SWIDTH 785 0
DWIDTH 9 0
BBX 9 7 0 -1
BITMAP
0400
2600
3D00
6900
4E00
1000
2000
ENDCHAR
STARTCHAR 2466
ENCODING 9318
SWIDTH 1047 0
DWIDTH 12 0
BBX 13 11 0 -1
BITMAP
0080
0880
13C0
1520
2910
3120
6240
4F80
2600
0800
1000
ENDCHAR
STARTCHAR 2467
ENCODING 9319
SWIDTH 785 0
DWIDTH 9 0
BBX 9 7 0 -1
BITMAP
0400
0700
0400
0800
3C00
5B00
2000
ENDCHAR
STARTCHAR 2468
ENCODING 9320
SWIDTH 872 0
DWIDTH 10 0
BBX 12 11 0 -1
BITMAP
0100
0100
0100
03C0
0200
0200
0400
3C00
4700
4880
3000
ENDCHAR
STARTCHAR 2469
ENCODING 9321
SWIDTH 960 0
DWIDTH 11 0
BBX 11 11 0 -1
BITMAP
0200
0180
0000
1000
1000
1F00
3080
2080
0100
0600
3800
ENDCHAR
STARTCHAR 246a
ENCODING 9322
SWIDTH 872 0
DWIDTH 10 0
BBX 10 11 1 -1
BITMAP
0100
0880
1080
1100
2100
2100
3200
2200
0400
0800
3000
ENDCHAR
STARTCHAR 246b
ENCODING 9323
SWIDTH 960 0
DWIDTH 11 0
BBX 12 10 0 -1
BITMAP
07C0
0080
0100
0780
0C40
3040
4040
0C80
1300
0C00
ENDCHAR
STARTCHAR 246c
ENCODING 9324
SWIDTH 1047 0
DWIDTH 12 0
BBX 14 11 0 -1
BITMAP
0400
0400
0580
0A40
3C40
0840
3080
3080
5080
2040
2000
ENDCHAR
STARTCHAR 246d
ENCODING 9325
SWIDTH 960 0
DWIDTH 11 0
BBX 12 10 0 -1
BITMAP
07C0
0080
0100
0780
0C40
3040
4040
0080
0300
1C00
ENDCHAR
STARTCHAR 246e
ENCODING 9326
SWIDTH 785 0
DWIDTH 9 0
BBX 10 7 0 -1
BITMAP
0800
1C00
0F00
1880
3080
5100
2600
ENDCHAR
STARTCHAR 246f
ENCODING 9327
SWIDTH 1047 0
DWIDTH 12 0
BBX 13 11 0 -1
BITMAP
0400
0400
0400
0DC0
3A20
0C20
1020
3040
5080
2300
2000
ENDCHAR
STARTCHAR 2470
ENCODING 9328
SWIDTH 1047 0
DWIDTH 12 0
BBX 13 10 0 -1
BITMAP
0780
0080
0080
07C0
0A20
1420
2420
4B20
34C0
0300
ENDCHAR
STARTCHAR 2471
ENCODING 9329
SWIDTH 1047 0
DWIDTH 12 0
BBX 13 11 0 -1
BITMAP
0000
07E0
0080
07C0
0820
1640
0980
0600
0000
5980
8640
ENDCHAR
STARTCHAR 2472
ENCODING 9330
SWIDTH 960 0
DWIDTH 11 0
BBX 12 11 0 -1
BITMAP
0100
0100
0FC0
0400
0860
3C80
4600
0A00
1200
1000
0F00
ENDCHAR
STARTCHAR 2473
ENCODING 9331
SWIDTH 1047 0
DWIDTH 12 0
BBX 13 10 0 -1
BITMAP
0100
0100
0200
0200
0400
0E00
1200
2220
42C0
8100
ENDCHAR
STARTCHAR 2521
ENCODING 9505
SWIDTH 785 0
DWIDTH 9 0
BBX 8 7 0 -1
BITMAP
00
3F
0A
1C
10
20
40
ENDCHAR
STARTCHAR 2522
ENCODING 9506
SWIDTH 960 0
DWIDTH 11 0
BBX 11 9 0 -1
BITMAP
3FE0
0020
04C0
0900
0E00
0800
1000
2000
4000
ENDCHAR
STARTCHAR 2523
ENCODING 9507
SWIDTH 785 0
DWIDTH 9 0
BBX 7 7 0 -1
BITMAP
02
02
04
18
68
08
10
ENDCHAR
STARTCHAR 2524
ENCODING 9508
SWIDTH 872 0
DWIDTH 9 0
BBX 10 10 0 -1
BITMAP
0040
0040
0080
0300
0E00
3200
0400
0400
0400
0800
ENDCHAR
STARTCHAR 2525
ENCODING 9509
SWIDTH 785 0
DWIDTH 9 0
BBX 8 8 0 -1
BITMAP
00
08
08
7E
44
48
10
60
ENDCHAR
STARTCHAR 2526
ENCODING 9510
SWIDTH 960 0
DWIDTH 11 0
BBX 12 11 0 -1
BITMAP
0100
0100
0100
3FE0
2020
2040
4040
0080
0300
0C00
3000
ENDCHAR
STARTCHAR 2527
ENCODING 9511
SWIDTH 785 0
DWIDTH 9 0
BBX 9 5 1 -1
BITMAP
3E00
0800
0800
FE00
0000
ENDCHAR
STARTCHAR 2528
ENCODING 9512
SWIDTH 1047 0
DWIDTH 12 0
BBX 12 8 0 0
BITMAP
0000
1FE0
0200
0400
0400
0400
0800
FFC0
ENDCHAR
STARTCHAR 2529
ENCODING 9513
SWIDTH 785 0
DWIDTH 9 0
BBX 9 7 0 -1
BITMAP
0200
0200
3F80
0C00
1400
6400
1800
ENDCHAR
STARTCHAR 252a
ENCODING 9514
SWIDTH 960 0
DWIDTH 11 0
BBX 12 11 0 -1
BITMAP
0080
0080
0080
3FE0
0300
0700
0A00
1200
6200
0400
0C00
ENDCHAR
STARTCHAR 252b
ENCODING 9515
SWIDTH 872 0
DWIDTH 10 0
BBX 11 11 0 -1
BITMAP
0200
0200
0200
3FC0
0440
0840
0880
1080
2080
4100
8600
ENDCHAR
STARTCHAR 252c
ENCODING 9516
SWIDTH 960 0
DWIDTH 11 0
BBX 13 11 0 -1
BITMAP
0250
0250
0200
3FC0
0440
0840
0880
1080
2080
4100
8600
ENDCHAR
STARTCHAR 252d
ENCODING 9517
SWIDTH 960 0
DWIDTH 11 0
BBX 12 11 0 -1
BITMAP
0100
0100
01E0
3E00
0200
03E0
7E00
0200
0200
0400
0400
ENDCHAR
STARTCHAR 252e
ENCODING 9518
SWIDTH 1047 0
DWIDTH 12 0
BBX 13 11 0 -1
BITMAP
0128
0128
01E0
3E00
0200
03E0
7E00
0200
0200
0400
0400
ENDCHAR
STARTCHAR 252f
ENCODING 9519
SWIDTH 872 0
DWIDTH 10 0
BBX 11 10 0 -1
BITMAP
0200
03E0
0440
0840
3080
0100
0200
0400
1800
E000
ENDCHAR
STARTCHAR 2530
ENCODING 9520
SWIDTH 960 0
DWIDTH 11 0
BBX 13 11 0 -1
BITMAP
0028
0228
03E0
0440
0840
3080
0100
0200
0C00
3000
C000
ENDCHAR
STARTCHAR 2531
ENCODING 9521
SWIDTH 1047 0
DWIDTH 12 0
BBX 13 10 0 -1
BITMAP
0400
0400
07F8
0880
1080
2080
0100
0200
0C00
3000
ENDCHAR
STARTCHAR 2532
ENCODING 9522
SWIDTH 1047 0
DWIDTH 12 0
BBX 14 11 0 -1
BITMAP
0000
0414
0414
0FE0
0880
1080
6100
0100
0200
0C00
3000
ENDCHAR
STARTCHAR 2533
ENCODING 9523
SWIDTH 872 0
DWIDTH 10 0
BBX 10 8 0 0
BITMAP
3FC0
0040
0040
0080
0080
0080
FF00
0100
ENDCHAR
STARTCHAR 2534
ENCODING 9524
SWIDTH 960 0
DWIDTH 11 0
BBX 13 10 0 0
BITMAP
0028
0028
1FE0
0040
0040
0040
0080
0080
7F80
0100
ENDCHAR
STARTCHAR 2535
ENCODING 9525
SWIDTH 1047 0
DWIDTH 12 0
BBX 13 11 0 -1
BITMAP
0000
0220
0220
0440
3FF0
0440
0880
0880
0100
0600
1800
ENDCHAR
STARTCHAR 2536
ENCODING 9526
SWIDTH 1047 0
DWIDTH 12 0
BBX 14 11 0 -1
BITMAP
0000
0454
0454
0880
3FE0
0880
1100
1100
0200
0C00
3000
ENDCHAR
STARTCHAR 2537
ENCODING 9527
SWIDTH 960 0
DWIDTH 11 0
BBX 12 10 0 -1
BITMAP
0C00
0210
0020
3020
0840
0080
0100
0200
0C00
F000
ENDCHAR
STARTCHAR 2538
ENCODING 9528
SWIDTH 1047 0
DWIDTH 12 0
BBX 13 11 0 -1
BITMAP
0000
0C28
0228
0000
3020
0840
0080
0100
0600
1800
E000
ENDCHAR
STARTCHAR 2539
ENCODING 9529
SWIDTH 1047 0
DWIDTH 12 0
BBX 12 9 0 -1
BITMAP
1FC0
0040
0080
0080
0100
0680
0880
3040
C040
ENDCHAR
STARTCHAR 253a
ENCODING 9530
SWIDTH 1047 0
DWIDTH 12 0
BBX 14 11 0 -1
BITMAP
0000
0028
0FE8
0040
0040
0080
0100
0280
0C40
3040
C040
ENDCHAR
STARTCHAR 253b
ENCODING 9531
SWIDTH 960 0
DWIDTH 11 0
BBX 13 10 -1 -1
BITMAP
0200
0200
0278
0790
3C20
04C0
0900
0800
0800
0780
ENDCHAR
STARTCHAR 253c
ENCODING 9532
SWIDTH 1047 0
DWIDTH 12 0
BBX 14 11 0 -1
BITMAP
0000
0214
0218
0468
0790
3C60
0880
0900
0800
0800
0780
ENDCHAR
STARTCHAR 253d
ENCODING 9533
SWIDTH 872 0
DWIDTH 10 0
BBX 10 9 0 -1
BITMAP
2040
1040
1080
0080
0100
0600
0800
3000
C000
ENDCHAR
STARTCHAR 253e
ENCODING 9534
SWIDTH 1047 0
DWIDTH 12 0
BBX 14 11 0 -1
BITMAP
0000
0050
1060
1020
1040
0080
0100
0200
0C00
3000
C000
ENDCHAR
STARTCHAR 253f
ENCODING 9535
SWIDTH 960 0
DWIDTH 11 0
BBX 12 10 0 -1
BITMAP
0100
01F0
0220
0C20
3340
01C0
0100
0200
0C00
7000
ENDCHAR
STARTCHAR 2540
ENCODING 9536
SWIDTH 1047 0
DWIDTH 12 0
BBX 14 11 0 -1
BITMAP
0000
0114
03F4
0420
0820
3240
0180
0100
0600
1800
6000
ENDCHAR
STARTCHAR 2541
ENCODING 9537
SWIDTH 1047 0
DWIDTH 12 0
BBX 13 10 0 -1
BITMAP
0060
0F80
0080
0100
3FF0
0100
0200
0200
0C00
3000
ENDCHAR
STARTCHAR 2542
ENCODING 9538
SWIDTH 1047 0
DWIDTH 12 0
BBX 14 11 0 -1
BITMAP
0000
0074
0F94
0100
0100
3FF0
0200
0200
0400
0800
3000
ENDCHAR
STARTCHAR 2543
ENCODING 9539
SWIDTH 785 0
DWIDTH 9 0
BBX 9 7 0 -1
BITMAP
0800
2480
2500
2100
0200
0C00
7000
ENDCHAR
STARTCHAR 2544
ENCODING 9540
SWIDTH 1047 0
DWIDTH 12 0
BBX 13 10 0 -1
BITMAP
0100
0888
0888
0910
0810
0020
0040
0080
0300
3C00
ENDCHAR
STARTCHAR 2545
ENCODING 9541
SWIDTH 1047 0
DWIDTH 12 0
BBX 14 11 0 -1
BITMAP
0014
0114
0900
0910
0910
0820
0020
0040
0180
0600
3800
ENDCHAR
STARTCHAR 2546
ENCODING 9542
SWIDTH 1047 0
DWIDTH 12 0
BBX 12 9 0 -1
BITMAP
0FC0
0000
0000
7FE0
0200
0400
0800
1000
6000
ENDCHAR
STARTCHAR 2547
ENCODING 9543
SWIDTH 1047 0
DWIDTH 12 0
BBX 14 11 0 -1
BITMAP
0000
0028
07E8
0000
0000
3FF0
0200
0200
0400
1800
6000
ENDCHAR
STARTCHAR 2548
ENCODING 9544
SWIDTH 785 0
DWIDTH 9 0
BBX 9 11 1 -1
BITMAP
1000
1000
1000
2000
3800
2400
4200
4000
4000
8000
8000
ENDCHAR
STARTCHAR 2549
ENCODING 9545
SWIDTH 785 0
DWIDTH 9 0
BBX 10 11 1 -1
BITMAP
1000
1140
1140
2000
3800
2400
4200
4000
4000
8000
8000
ENDCHAR
STARTCHAR 254a
ENCODING 9546
SWIDTH 1047 0
DWIDTH 12 0
BBX 13 11 0 -1
BITMAP
0080
0080
0080
3FF0
0100
0200
0200
0400
0800
1000
6000
ENDCHAR
STARTCHAR 254b
ENCODING 9547
SWIDTH 1047 0
DWIDTH 12 0
BBX 12 7 0 0
BITMAP
0FC0
0000
0000
0000
0000
0000
FFC0
ENDCHAR
STARTCHAR 254c
ENCODING 9548
SWIDTH 1047 0
DWIDTH 12 0
BBX 12 9 0 -1
BITMAP
0FE0
0020
0040
0C80
0300
0480
0880
3040
C000
ENDCHAR
STARTCHAR 254d
ENCODING 9549
SWIDTH 1047 0
DWIDTH 12 0
BBX 13 11 0 -1
BITMAP
0100
0100
0FE0
0040
0080
0300
1C80
6460
0400
0800
0800
ENDCHAR
STARTCHAR 254e
ENCODING 9550
SWIDTH 872 0
DWIDTH 10 0
BBX 10 8 0 -0
BITMAP
0040
0040
0080
0100
0200
0C00
3000
C000
ENDCHAR
STARTCHAR 254f
ENCODING 9551
SWIDTH 1047 0
DWIDTH 12 0
BBX 12 9 0 -1
BITMAP
0000
0480
0880
0880
1040
2040
2040
4040
8040
ENDCHAR
STARTCHAR 2550
ENCODING 9552
SWIDTH 1047 0
DWIDTH 12 0
BBX 14 11 0 -1
BITMAP
0000
0014
0214
0480
0440
0840
0840
1040
2040
4040
8040
ENDCHAR
STARTCHAR 2551
ENCODING 9553
SWIDTH 1047 0
DWIDTH 12 0
BBX 14 11 0 -1
BITMAP
0000
0018
0064
04B0
0440
0840
0840
1040
2040
4040
8040
ENDCHAR
STARTCHAR 2552
ENCODING 9554
SWIDTH 960 0
DWIDTH 11 0
BBX 11 10 1 -1
BITMAP
1000
1000
1000
2180
3E00
2000
4000
4000
3F80
0000
ENDCHAR
STARTCHAR 2553
ENCODING 9555
SWIDTH 960 0
DWIDTH 11 0
BBX 12 10 1 -1
BITMAP
10A0
10A0
1000
2380
3C00
2000
4000
4000
3F80
0000
ENDCHAR
STARTCHAR 2554
ENCODING 9556
SWIDTH 960 0
DWIDTH 11 0
BBX 12 10 1 -1
BITMAP
1060
1090
1060
2380
3C00
2000
4000
4000
3F80
0000
ENDCHAR
STARTCHAR 2555
ENCODING 9557
SWIDTH 960 0
DWIDTH 11 0
BBX 11 9 0 -1
BITMAP
3FE0
0020
0040
0040
0080
0300
0400
1800
6000
ENDCHAR
STARTCHAR 2556
ENCODING 9558
SWIDTH 960 0
DWIDTH 11 0
BBX 13 11 0 -1
BITMAP
0028
0028
1FE0
0040
0040
0080
0100
0200
0C00
3000
C000
ENDCHAR
STARTCHAR 2557
ENCODING 9559
SWIDTH 960 0
DWIDTH 11 0
BBX 13 11 0 -1
BITMAP
0030
0048
1FF0
0040
0040
0080
0100
0200
0C00
3000
C000
ENDCHAR
STARTCHAR 2558
ENCODING 9560
SWIDTH 960 0
DWIDTH 11 0
BBX 12 7 0 0
BITMAP
0600
0900
3080
4080
0040
0020
0000
ENDCHAR
STARTCHAR 2559
ENCODING 9561
SWIDTH 960 0
DWIDTH 11 0
BBX 12 9 0 0
BITMAP
0050
0050
0C00
1200
2100
4080
0080
0040
0000
ENDCHAR
STARTCHAR 255a
ENCODING 9562
SWIDTH 960 0
DWIDTH 11 0
BBX 12 9 0 0
BITMAP
0060
0090
0C60
1200
2100
4080
0080
0040
0000
ENDCHAR
STARTCHAR 255b
ENCODING 9563
SWIDTH 960 0
DWIDTH 11 0
BBX 12 11 0 -1
BITMAP
0100
0100
0100
3FE0
0200
1280
1480
2440
4440
8800
1800
ENDCHAR
STARTCHAR 255c
ENCODING 9564
SWIDTH 960 0
DWIDTH 11 0
BBX 13 11 0 -1
BITMAP
0100
0128
0130
3FE0
0200
1280
1480
2480
4480
8880
1800
ENDCHAR
STARTCHAR 255d
ENCODING 9565
SWIDTH 1047 0
DWIDTH 12 0
BBX 14 11 0 -1
BITMAP
0100
0118
0164
3F90
0200
1280
1480
2480
4480
8880
1800
ENDCHAR
STARTCHAR 255e
ENCODING 9566
SWIDTH 960 0
DWIDTH 11 0
BBX 11 9 0 -1
BITMAP
3FE0
0020
0040
0180
3200
0800
0400
0200
0000
ENDCHAR
STARTCHAR 255f
ENCODING 9567
SWIDTH 698 0
DWIDTH 9 0
BBX 10 10 0 -1
BITMAP
0E00
0180
0040
0000
1C00
0200
0000
7000
0C00
0200
ENDCHAR
STARTCHAR 2560
ENCODING 9568
SWIDTH 960 0
DWIDTH 11 0
BBX 12 10 0 -1
BITMAP
0100
0100
0200
0200
0500
0880
1080
2780
7880
0080
ENDCHAR
STARTCHAR 2561
ENCODING 9569
SWIDTH 960 0
DWIDTH 11 0
BBX 12 10 0 -1
BITMAP
0020
0020
0040
0C40
0380
0180
0280
0440
1800
E000
ENDCHAR
STARTCHAR 2562
ENCODING 9570
SWIDTH 1047 0
DWIDTH 12 0
BBX 12 8 0 0
BITMAP
1FC0
0400
0400
7FE0
0800
0800
0800
0780
ENDCHAR
STARTCHAR 2563
ENCODING 9571
SWIDTH 872 0
DWIDTH 10 0
BBX 10 7 0 -1
BITMAP
0800
0800
0FC0
7900
0A00
0800
1000
ENDCHAR
STARTCHAR 2564
ENCODING 9572
SWIDTH 1047 0
DWIDTH 12 0
BBX 13 10 -1 -1
BITMAP
0200
0200
0278
0790
3A20
0240
0200
0200
0200
0400
ENDCHAR
STARTCHAR 2565
ENCODING 9573
SWIDTH 785 0
DWIDTH 9 0
BBX 8 5 1 0
BITMAP
3C
04
04
08
FE
ENDCHAR
STARTCHAR 2566
ENCODING 9574
SWIDTH 1024 0
DWIDTH 12 0
BBX 12 7 0 0
BITMAP
1FC0
0040
0080
0080
0100
0100
FFC0
ENDCHAR
STARTCHAR 2567
ENCODING 9575
SWIDTH 698 0
DWIDTH 8 0
BBX 7 6 1 -1
BITMAP
7E
02
3E
04
04
FC
ENDCHAR
STARTCHAR 2568
ENCODING 9576
SWIDTH 960 0
DWIDTH 11 0
BBX 11 9 0 -1
BITMAP
3FE0
0020
0020
3FC0
0040
0040
0080
FF80
0080
ENDCHAR
STARTCHAR 2569
ENCODING 9577
SWIDTH 960 0
DWIDTH 11 0
BBX 12 10 0 -1
BITMAP
0FE0
0000
0000
3FE0
0020
0040
0080
0100
0600
7800
ENDCHAR
STARTCHAR 256a
ENCODING 9578
SWIDTH 698 0
DWIDTH 8 0
BBX 10 10 0 -1
BITMAP
1080
1080
1080
2100
2100
2200
0200
0400
1800
6000
ENDCHAR
STARTCHAR 256b
ENCODING 9579
SWIDTH 1047 0
DWIDTH 12 0
BBX 13 10 0 -1
BITMAP
0080
0480
0480
0900
0910
1120
1240
2280
4300
8000
ENDCHAR
STARTCHAR 256c
ENCODING 9580
SWIDTH 785 0
DWIDTH 9 0
BBX 10 10 0 -1
BITMAP
1000
1000
1000
2000
2000
2180
4200
4400
7800
C000
ENDCHAR
STARTCHAR 256d
ENCODING 9581
SWIDTH 872 0
DWIDTH 10 0
BBX 10 8 0 0
BITMAP
3FC0
2040
2040
4080
4080
4080
FF00
8100
ENDCHAR
STARTCHAR 256e
ENCODING 9582
SWIDTH 698 0
DWIDTH 8 0
BBX 7 6 1 -1
BITMAP
7E
42
44
08
10
60
ENDCHAR
STARTCHAR 256f
ENCODING 9583
SWIDTH 872 0
DWIDTH 10 0
BBX 10 9 0 -1
BITMAP
3FC0
2040
2080
4080
0100
0200
0400
1800
6000
ENDCHAR
STARTCHAR 2570
ENCODING 9584
SWIDTH 1047 0
DWIDTH 12 0
BBX 13 11 0 -1
BITMAP
0040
0040
0040
3FE0
0880
0880
1100
7FE0
0100
0200
0200
ENDCHAR
STARTCHAR 2571
ENCODING 9585
SWIDTH 872 0
DWIDTH 10 0
BBX 11 8 0 0
BITMAP
1FC0
0040
0380
0600
0400
0400
0800
FF80
ENDCHAR
STARTCHAR 2572
ENCODING 9586
SWIDTH 872 0
DWIDTH 10 0
BBX 10 9 0 -1
BITMAP
3FC0
0040
0040
3F80
0100
0200
0400
1800
E000
ENDCHAR
STARTCHAR 2573
ENCODING 9587
SWIDTH 960 0
DWIDTH 11 0
BBX 11 9 0 -1
BITMAP
3000
0820
0040
0040
0080
0300
0400
1800
E000
ENDCHAR
STARTCHAR 2574
ENCODING 9588
SWIDTH 960 0
DWIDTH 11 0
BBX 13 11 0 -1
BITMAP
0128
0128
0100
3FE0
2020
2040
0040
0080
0300
0C00
3000
ENDCHAR
STARTCHAR 2575
ENCODING 9589
SWIDTH 698 0
DWIDTH 8 0
BBX 8 8 0 -1
BITMAP
00
08
08
7E
12
22
44
98
ENDCHAR
STARTCHAR 2576
ENCODING 9590
SWIDTH 785 0
DWIDTH 9 0
BBX 10 7 0 -1
BITMAP
0800
0800
1F80
6400
0400
0800
7000
ENDCHAR
STARTCHAR 2621
ENCODING 9761
SWIDTH 872 0
DWIDTH 10 0
BBX 12 10 0 -1
BITMAP
0100
0100
0300
0500
0880
1300
1D80
2080
2080
E380
ENDCHAR
STARTCHAR 2622
ENCODING 9762
SWIDTH 785 0
DWIDTH 9 0
BBX 10 10 0 -1
BITMAP
1F00
0880
08C0
1100
1E00
1100
2100
2100
2600
F800
ENDCHAR
STARTCHAR 2623
ENCODING 9763
SWIDTH 785 0
DWIDTH 9 0
BBX 10 10 1 -1
BITMAP
1F80
0880
0840
1000
1000
1000
2000
2000
2000
E000
ENDCHAR
STARTCHAR 2624
ENCODING 9764
SWIDTH 872 0
DWIDTH 10 0
BBX 12 10 0 -1
BITMAP
0100
0100
0100
0300
0500
0900
1100
2080
2080
FF80
ENDCHAR
STARTCHAR 2625
ENCODING 9765
SWIDTH 872 0
DWIDTH 10 0
BBX 11 10 0 -1
BITMAP
1FC0
0820
0800
1100
1F00
1100
2000
2080
2100
FE00
ENDCHAR
STARTCHAR 2626
ENCODING 9766
SWIDTH 960 0
DWIDTH 11 0
BBX 12 10 0 -1
BITMAP
07F0
0420
08C0
0100
0200
0400
0800
1040
6040
BF80
ENDCHAR
STARTCHAR 2627
ENCODING 9767
SWIDTH 960 0
DWIDTH 11 0
BBX 12 10 0 -1
BITMAP
1C70
0820
0820
1040
1FC0
1040
2080
2080
2080
E380
ENDCHAR
STARTCHAR 2628
ENCODING 9768
SWIDTH 960 0
DWIDTH 11 0
BBX 12 10 0 -1
BITMAP
0380
0440
0820
1860
2FA0
28A0
2040
2080
1300
0C00
ENDCHAR
STARTCHAR 2629
ENCODING 9769
SWIDTH 610 0
DWIDTH 7 0
BBX 6 10 1 -1
BITMAP
1C
08
08
10
10
10
20
20
20
E0
ENDCHAR
STARTCHAR 262a
ENCODING 9770
SWIDTH 872 0
DWIDTH 10 0
BBX 11 10 0 -1
BITMAP
1DC0
0880
0B00
1400
1800
1400
2400
2200
2100
E700
ENDCHAR
STARTCHAR 262b
ENCODING 9771
SWIDTH 872 0
DWIDTH 10 0
BBX 12 10 0 -1
BITMAP
0100
0100
0300
0500
0880
1080
1080
2080
2080
E380
ENDCHAR
STARTCHAR 262c
ENCODING 9772
SWIDTH 1047 0
DWIDTH 12 0
BBX 14 10 -1 -1
BITMAP
180C
0808
0C18
1830
1450
1490
24A0
2520
2620
E4E0
ENDCHAR
STARTCHAR 262d
ENCODING 9773
SWIDTH 872 0
DWIDTH 10 0
BBX 12 10 0 -1
BITMAP
1870
0C20
0C20
1440
1240
1240
2280
2180
2080
E100
ENDCHAR
STARTCHAR 262e
ENCODING 9774
SWIDTH 872 0
DWIDTH 10 0
BBX 11 10 0 -1
BITMAP
1FE0
1020
0000
1080
1F80
1080
0000
4080
7F80
0000
ENDCHAR
STARTCHAR 262f
ENCODING 9775
SWIDTH 960 0
DWIDTH 11 0
BBX 12 10 0 -1
BITMAP
0380
0440
0820
1020
2020
2020
2040
2080
1300
0C00
ENDCHAR
STARTCHAR 2630
ENCODING 9776
SWIDTH 872 0
DWIDTH 10 0
BBX 12 10 0 -1
BITMAP
1FF0
0820
0820
1040
1040
1040
2080
2080
2080
E380
ENDCHAR
STARTCHAR 2631
ENCODING 9777
SWIDTH 785 0
DWIDTH 9 0
BBX 10 10 0 -1
BITMAP
1F00
0880
0880
1080
1100
1E00
2000
2000
2000
E000
ENDCHAR
STARTCHAR 2632
ENCODING 9778
SWIDTH 872 0
DWIDTH 10 0
BBX 12 10 0 -1
BITMAP
1FC0
0840
0420
0400
0200
0400
0800
1040
6080
BF00
ENDCHAR
STARTCHAR 2633
ENCODING 9779
SWIDTH 872 0
DWIDTH 10 0
BBX 12 10 0 -1
BITMAP
1FF0
1110
1110
0200
0200
0200
0400
0400
0400
1C00
ENDCHAR
STARTCHAR 2634
ENCODING 9780
SWIDTH 872 0
DWIDTH 10 0
BBX 12 10 0 -1
BITMAP
0EE0
1110
1110
0200
0200
0200
0400
0400
0400
1C00
ENDCHAR
STARTCHAR 2635
ENCODING 9781
SWIDTH 960 0
DWIDTH 11 0
BBX 12 10 0 -1
BITMAP
0380
0100
0F80
1240
2220
2240
2480
1F00
0400
1C00
ENDCHAR
STARTCHAR 2636
ENCODING 9782
SWIDTH 960 0
DWIDTH 11 0
BBX 12 10 0 -1
BITMAP
1C70
0820
04C0
0500
0200
0600
0A00
1100
6080
A380
ENDCHAR
STARTCHAR 2637
ENCODING 9783
SWIDTH 960 0
DWIDTH 11 0
BBX 12 10 -1 -1
BITMAP
0380
1110
1120
1240
1240
0A80
0F00
0400
0400
1C00
ENDCHAR
STARTCHAR 2638
ENCODING 9784
SWIDTH 960 0
DWIDTH 11 0
BBX 12 10 0 -1
BITMAP
0380
0440
0840
1040
1040
1080
1100
4A40
4A40
F780
ENDCHAR
STARTCHAR 2641
ENCODING 9793
SWIDTH 785 0
DWIDTH 9 0
BBX 9 7 1 -1
BITMAP
0C80
1280
2300
4400
4800
5400
6200
ENDCHAR
STARTCHAR 2642
ENCODING 9794
SWIDTH 785 0
DWIDTH 9 0
BBX 11 11 0 -2
BITMAP
00C0
0120
0260
0480
0700
0900
1100
2100
3600
5800
8000
ENDCHAR
STARTCHAR 2643
ENCODING 9795
SWIDTH 785 0
DWIDTH 9 0
BBX 10 8 0 -2
BITMAP
18C0
2500
0200
0400
0800
1000
2000
4000
ENDCHAR
STARTCHAR 2644
ENCODING 9796
SWIDTH 698 0
DWIDTH 8 0
BBX 10 10 0 -1
BITMAP
0300
04C0
0200
0200
0600
1A00
2200
4200
4C00
3000
ENDCHAR
STARTCHAR 2645
ENCODING 9797
SWIDTH 698 0
DWIDTH 8 0
BBX 8 7 0 -1
BITMAP
0E
11
20
38
42
4C
30
ENDCHAR
STARTCHAR 2646
ENCODING 9798
SWIDTH 698 0
DWIDTH 8 0
BBX 10 11 0 -2
BITMAP
0400
04C0
0780
0400
0800
1000
2000
2000
1000
8800
7000
ENDCHAR
STARTCHAR 2647
ENCODING 9799
SWIDTH 698 0
DWIDTH 8 0
BBX 9 8 0 -2
BITMAP
1300
2C80
1100
1100
2200
4400
0400
0800
ENDCHAR
STARTCHAR 2648
ENCODING 9800
SWIDTH 698 0
DWIDTH 8 0
BBX 10 10 0 -1
BITMAP
0180
0240
0440
0880
1F80
2100
4200
4200
2C00
3000
ENDCHAR
STARTCHAR 2649
ENCODING 9801
SWIDTH 698 0
DWIDTH 7 0
BBX 8 7 0 -1
BITMAP
08
10
20
20
42
4C
30
ENDCHAR
STARTCHAR 264a
ENCODING 9802
SWIDTH 872 0
DWIDTH 10 0
BBX 11 8 0 -1
BITMAP
0820
0440
0580
0E00
1400
2480
4500
8200
ENDCHAR
STARTCHAR 264b
ENCODING 9803
SWIDTH 785 0
DWIDTH 9 0
BBX 11 10 0 -1
BITMAP
0600
0100
0100
0200
0200
0E00
1400
2200
4200
8100
ENDCHAR
STARTCHAR 264c
ENCODING 9804
SWIDTH 785 0
DWIDTH 9 0
BBX 11 8 0 -2
BITMAP
0440
0440
0880
1080
2100
3700
4980
8000
ENDCHAR
STARTCHAR 264d
ENCODING 9805
SWIDTH 785 0
DWIDTH 8 0
BBX 9 7 0 -1
BITMAP
1080
0880
1100
1200
2400
3800
E000
ENDCHAR
STARTCHAR 264e
ENCODING 9806
SWIDTH 698 0
DWIDTH 8 0
BBX 9 11 0 -2
BITMAP
0200
0380
0400
1800
0C00
3000
4000
3000
0800
8800
7000
ENDCHAR
STARTCHAR 264f
ENCODING 9807
SWIDTH 698 0
DWIDTH 8 0
BBX 8 7 0 -1
BITMAP
0E
11
21
42
42
4C
30
ENDCHAR
STARTCHAR 2650
ENCODING 9808
SWIDTH 872 0
DWIDTH 10 0
BBX 11 8 0 -1
BITMAP
0020
0FC0
1880
0900
1200
2400
4500
8200
ENDCHAR
STARTCHAR 2651
ENCODING 9809
SWIDTH 698 0
DWIDTH 8 0
BBX 9 8 0 -2
BITMAP
0700
0880
1080
2100
3200
4C00
8000
8000
ENDCHAR
STARTCHAR 2652
ENCODING 9810
SWIDTH 872 0
DWIDTH 9 0
BBX 10 8 0 -1
BITMAP
0040
0780
1A00
2200
4200
4400
4800
3000
ENDCHAR
STARTCHAR 2653
ENCODING 9811
SWIDTH 785 0
DWIDTH 8 0
BBX 9 8 0 -1
BITMAP
0080
1F00
2400
0800
1000
2000
2800
1000
ENDCHAR
STARTCHAR 2654
ENCODING 9812
SWIDTH 785 0
DWIDTH 9 0
BBX 10 7 0 -1
BITMAP
1080
2840
1080
1080
2100
2600
1800
ENDCHAR
STARTCHAR 2655
ENCODING 9813
SWIDTH 785 0
DWIDTH 9 0
BBX 11 11 0 -2
BITMAP
0080
0080
0100
0F00
1280
2480
4480
4900
3E00
2000
2000
ENDCHAR
STARTCHAR 2656
ENCODING 9814
SWIDTH 698 0
DWIDTH 8 0
BBX 9 9 0 -2
BITMAP
0080
1080
2B00
4C00
0800
3800
5000
8A00
8400
ENDCHAR
STARTCHAR 2657
ENCODING 9815
SWIDTH 785 0
DWIDTH 9 0
BBX 11 11 0 -2
BITMAP
0080
0080
0080
2180
1240
2240
2480
4900
3E00
2000
2000
ENDCHAR
STARTCHAR 2658
ENCODING 9816
SWIDTH 872 0
DWIDTH 10 0
BBX 11 7 0 -1
BITMAP
0840
1020
2020
2440
4440
5D80
2600
ENDCHAR
STARTCHAR 2721
ENCODING 10017
SWIDTH 872 0
DWIDTH 10 0
BBX 12 10 0 -1
BITMAP
0100
0100
0300
0500
0880
1300
1D80
2080
2080
E380
ENDCHAR
STARTCHAR 2722
ENCODING 10018
SWIDTH 785 0
DWIDTH 9 0
BBX 10 10 0 -1
BITMAP
1FC0
0840
0840
1000
1E00
1100
2100
2100
2600
F800
ENDCHAR
STARTCHAR 2723
ENCODING 10019
SWIDTH 785 0
DWIDTH 9 0
BBX 10 10 0 -1
BITMAP
1F00
0880
08C0
1100
1E00
1100
2100
2100
2600
F800
ENDCHAR
STARTCHAR 2724
ENCODING 10020
SWIDTH 785 0
DWIDTH 9 0
BBX 10 10 0 -1
BITMAP
1F80
0880
0840
1000
1000
1000
2000
2000
2000
E000
ENDCHAR
STARTCHAR 2725
ENCODING 10021
SWIDTH 872 0
DWIDTH 10 0
BBX 12 11 0 -2
BITMAP
07F0
0240
0240
0480
0480
0880
1100
1100
2100
7F80
8080
ENDCHAR
STARTCHAR 2726
ENCODING 10022
SWIDTH 872 0
DWIDTH 10 0
BBX 11 10 0 -1
BITMAP
1FC0
0820
0800
1100
1F00
1100
2000
2080
2100
FE00
ENDCHAR
STARTCHAR 2727
ENCODING 10023
SWIDTH 872 0
DWIDTH 10 0
BBX 11 11 0 -1
BITMAP
0CC0
0000
1F80
1040
1000
1100
3E00
2200
2080
4100
FE00
ENDCHAR
STARTCHAR 2728
ENCODING 10024
SWIDTH 960 0
DWIDTH 11 0
BBX 13 10 -1 -1
BITMAP
1390
0920
0940
0A80
0700
0A80
1480
2480
2480
DD80
ENDCHAR
STARTCHAR 2729
ENCODING 10025
SWIDTH 785 0
DWIDTH 9 0
BBX 10 10 0 -1
BITMAP
0700
0880
10C0
0100
0600
0100
0100
4100
6600
9800
ENDCHAR
STARTCHAR 272a
ENCODING 10026
SWIDTH 872 0
DWIDTH 10 0
BBX 11 10 0 -1
BITMAP
1C60
08C0
0940
1280
1480
1880
2900
3100
2100
C700
ENDCHAR
STARTCHAR 272b
ENCODING 10027
SWIDTH 872 0
DWIDTH 10 0
BBX 11 11 0 -1
BITMAP
0480
0300
1C60
1180
1280
1480
2900
3100
3100
4200
C700
ENDCHAR
STARTCHAR 272c
ENCODING 10028
SWIDTH 872 0
DWIDTH 10 0
BBX 11 10 0 -1
BITMAP
1C40
08A0
0B00
1400
1800
1400
2400
2200
2100
E700
ENDCHAR
STARTCHAR 272d
ENCODING 10029
SWIDTH 872 0
DWIDTH 10 0
BBX 12 10 0 -1
BITMAP
07F0
0120
0120
0240
0240
0440
0880
0880
5080
6380
ENDCHAR
STARTCHAR 272e
ENCODING 10030
SWIDTH 1047 0
DWIDTH 12 0
BBX 14 10 -1 -1
BITMAP
0C18
0410
0630
0C60
0AA0
1320
2120
2220
2220
E0E0
ENDCHAR
STARTCHAR 272f
ENCODING 10031
SWIDTH 960 0
DWIDTH 11 0
BBX 12 10 0 -1
BITMAP
1C70
0820
0820
1040
1FC0
1040
2080
2080
2080
E380
ENDCHAR
STARTCHAR 2730
ENCODING 10032
SWIDTH 960 0
DWIDTH 11 0
BBX 12 10 0 -1
BITMAP
0380
0440
0820
1020
2020
2020
2040
2080
1300
0C00
ENDCHAR
STARTCHAR 2731
ENCODING 10033
SWIDTH 872 0
DWIDTH 10 0
BBX 11 10 0 -1
BITMAP
1FE0
0840
0840
1080
1080
1080
2100
2100
2100
E700
ENDCHAR
STARTCHAR 2732
ENCODING 10034
SWIDTH 872 0
DWIDTH 10 0
BBX 11 10 0 -1
BITMAP
1F80
0840
0840
1040
1080
1F00
2000
2000
2000
E000
ENDCHAR
STARTCHAR 2733
ENCODING 10035
SWIDTH 872 0
DWIDTH 10 0
BBX 11 10 0 -1
BITMAP
03A0
0460
0820
1000
2000
2000
2000
2080
1300
0C00
ENDCHAR
STARTCHAR 2734
ENCODING 10036
SWIDTH 960 0
DWIDTH 11 0
BBX 12 10 0 -1
BITMAP
1FF0
1110
1110
0200
0200
0200
0400
0400
0400
1C00
ENDCHAR
STARTCHAR 2735
ENCODING 10037
SWIDTH 872 0
DWIDTH 10 0
BBX 12 10 0 -1
BITMAP
1C70
0820
0840
0880
0500
0600
0200
0400
2800
3000
ENDCHAR
STARTCHAR 2736
ENCODING 10038
SWIDTH 872 0
DWIDTH 10 0
BBX 12 10 0 -1
BITMAP
0380
0100
0F80
1240
2220
2240
2480
1F00
0400
1C00
ENDCHAR
STARTCHAR 2737
ENCODING 10039
SWIDTH 960 0
DWIDTH 10 0
BBX 12 10 0 -1
BITMAP
1C70
0820
04C0
0500
0200
0600
0A00
1100
6080
A380
ENDCHAR
STARTCHAR 2738
ENCODING 10040
SWIDTH 872 0
DWIDTH 10 0
BBX 12 11 0 -2
BITMAP
1CE0
0840
0840
1080
1080
1080
2100
2100
2100
FF80
0080
ENDCHAR
STARTCHAR 2739
ENCODING 10041
SWIDTH 872 0
DWIDTH 9 0
BBX 11 10 0 -1
BITMAP
1CE0
0840
0840
1080
1080
0B80
0500
0100
0100
0700
ENDCHAR
STARTCHAR 273a
ENCODING 10042
SWIDTH 1047 0
DWIDTH 12 0
BBX 14 10 -1 -1
BITMAP
1DDC
0888
0888
1110
1110
1110
2220
2220
2220
FFE0
ENDCHAR
STARTCHAR 273b
ENCODING 10043
SWIDTH 1047 0
DWIDTH 12 0
BBX 15 11 -1 -2
BITMAP
1DDC
0888
0888
1110
1110
1110
2220
2220
2220
FFF0
0010
ENDCHAR
STARTCHAR 273c
ENCODING 10044
SWIDTH 872 0
DWIDTH 10 0
BBX 12 10 -1 -1
BITMAP
0E00
1200
0200
0780
0440
0440
0840
0880
0900
3E00
ENDCHAR
STARTCHAR 273d
ENCODING 10045
SWIDTH 960 0
DWIDTH 10 0
BBX 12 10 -1 -1
BITMAP
1870
0820
0820
1C40
1240
1240
2280
2480
2880
F380
ENDCHAR
STARTCHAR 273e
ENCODING 10046
SWIDTH 872 0
DWIDTH 9 0
BBX 10 10 0 -1
BITMAP
1800
0800
0800
1E00
1100
1100
2100
2200
2400
7800
ENDCHAR
STARTCHAR 273f
ENCODING 10047
SWIDTH 785 0
DWIDTH 8 0
BBX 10 10 0 -1
BITMAP
1700
1880
1080
0080
0C80
1380
0100
4100
2600
1800
ENDCHAR
STARTCHAR 2740
ENCODING 10048
SWIDTH 960 0
DWIDTH 11 0
BBX 13 10 -1 -1
BITMAP
1C60
0890
0910
1210
1E10
1210
2420
2420
22C0
E300
ENDCHAR
STARTCHAR 2741
ENCODING 10049
SWIDTH 872 0
DWIDTH 10 0
BBX 12 10 -1 -1
BITMAP
03F0
0420
0820
0840
07C0
0340
0480
0880
3080
C380
ENDCHAR
STARTCHAR 2751
ENCODING 10065
SWIDTH 698 0
DWIDTH 8 0
BBX 8 7 0 -1
BITMAP
0C
12
1E
24
44
58
2C
ENDCHAR
STARTCHAR 2752
ENCODING 10066
SWIDTH 698 0
DWIDTH 8 0
BBX 9 11 0 -1
BITMAP
0180
0600
0800
1000
2C00
3200
4200
4200
4400
4800
3000
ENDCHAR
STARTCHAR 2753
ENCODING 10067
SWIDTH 698 0
DWIDTH 8 0
BBX 8 7 0 -1
BITMAP
3E
11
12
3C
22
24
F8
ENDCHAR
STARTCHAR 2754
ENCODING 10068
SWIDTH 698 0
DWIDTH 7 0
BBX 8 7 0 -1
BITMAP
3E
11
10
20
20
20
E0
ENDCHAR
STARTCHAR 2755
ENCODING 10069
SWIDTH 872 0
DWIDTH 10 0
BBX 10 8 0 -2
BITMAP
0FC0
0480
0880
0900
1100
1100
FF00
8100
ENDCHAR
STARTCHAR 2756
ENCODING 10070
SWIDTH 698 0
DWIDTH 8 0
BBX 8 7 0 -1
BITMAP
0C
12
21
7E
40
26
18
ENDCHAR
STARTCHAR 2757
ENCODING 10071
SWIDTH 698 0
DWIDTH 8 0
BBX 8 9 0 -1
BITMAP
12
00
18
24
42
7E
80
44
38
ENDCHAR
STARTCHAR 2758
ENCODING 10072
SWIDTH 872 0
DWIDTH 10 0
BBX 11 7 -1 -1
BITMAP
3760
0A80
0B00
0E00
1500
2500
DD80
ENDCHAR
STARTCHAR 2759
ENCODING 10073
SWIDTH 698 0
DWIDTH 8 0
BBX 8 7 0 -1
BITMAP
0E
31
02
1C
02
44
38
ENDCHAR
STARTCHAR 275a
ENCODING 10074
SWIDTH 872 0
DWIDTH 10 0
BBX 10 7 0 -1
BITMAP
39C0
1180
1280
2D00
3100
2100
E700
ENDCHAR
STARTCHAR 275b
ENCODING 10075
SWIDTH 872 0
DWIDTH 10 0
BBX 11 10 0 -1
BITMAP
0480
0300
0000
39C0
1180
1280
2D00
3100
2100
E700
ENDCHAR
STARTCHAR 275c
ENCODING 10076
SWIDTH 785 0
DWIDTH 9 0
BBX 9 7 0 -1
BITMAP
3900
1280
1C00
3000
2800
2400
E200
ENDCHAR
STARTCHAR 275d
ENCODING 10077
SWIDTH 698 0
DWIDTH 8 0
BBX 9 7 -1 -1
BITMAP
0F80
0500
0900
0A00
1200
6200
4E00
ENDCHAR
STARTCHAR 275e
ENCODING 10078
SWIDTH 960 0
DWIDTH 11 0
BBX 11 7 0 -1
BITMAP
3060
18C0
18C0
2980
2A80
2C80
EB80
ENDCHAR
STARTCHAR 275f
ENCODING 10079
SWIDTH 785 0
DWIDTH 9 0
BBX 9 7 0 -1
BITMAP
3B80
1100
1100
3E00
2200
2200
EE00
ENDCHAR
STARTCHAR 2760
ENCODING 10080
SWIDTH 785 0
DWIDTH 9 0
BBX 9 7 0 -1
BITMAP
0E00
1100
2100
4100
4200
2400
1800
ENDCHAR
STARTCHAR 2761
ENCODING 10081
SWIDTH 785 0
DWIDTH 9 0
BBX 9 7 0 -1
BITMAP
3F80
1100
1100
2200
2200
2200
EE00
ENDCHAR
STARTCHAR 2762
ENCODING 10082
SWIDTH 785 0
DWIDTH 9 0
BBX 9 8 0 -2
BITMAP
3600
1900
1100
2100
3200
2C00
4000
E000
ENDCHAR
STARTCHAR 2763
ENCODING 10083
SWIDTH 698 0
DWIDTH 8 0
BBX 8 7 0 -1
BITMAP
0E
11
20
40
40
26
18
ENDCHAR
STARTCHAR 2764
ENCODING 10084
SWIDTH 785 0
DWIDTH 9 0
BBX 9 7 0 -1
BITMAP
3F80
2480
0400
0800
0800
0800
3800
ENDCHAR
STARTCHAR 2765
ENCODING 10085
SWIDTH 872 0
DWIDTH 10 0
BBX 10 8 0 -2
BITMAP
39C0
1080
0900
0900
0600
0400
4800
3000
ENDCHAR
STARTCHAR 2766
ENCODING 10086
SWIDTH 960 0
DWIDTH 10 0
BBX 12 11 0 -2
BITMAP
0380
0100
0D40
1740
2220
2220
2440
2E80
1500
0800
1C00
ENDCHAR
STARTCHAR 2767
ENCODING 10087
SWIDTH 785 0
DWIDTH 9 0
BBX 9 7 0 -1
BITMAP
3B80
1100
0E00
0800
1400
6200
AE00
ENDCHAR
STARTCHAR 2768
ENCODING 10088
SWIDTH 785 0
DWIDTH 9 0
BBX 9 8 0 -2
BITMAP
3B80
1100
1100
2200
2200
2200
FE00
0200
ENDCHAR
STARTCHAR 2769
ENCODING 10089
SWIDTH 785 0
DWIDTH 9 0
BBX 9 7 0 -1
BITMAP
3B80
1100
1100
0E00
0200
0200
0E00
ENDCHAR
STARTCHAR 276a
ENCODING 10090
SWIDTH 785 0
DWIDTH 9 0
BBX 9 7 0 -1
BITMAP
2480
2480
2480
4900
4900
4900
FE00
ENDCHAR
STARTCHAR 276b
ENCODING 10091
SWIDTH 960 0
DWIDTH 11 0
BBX 11 8 0 -2
BITMAP
2480
2480
2480
4900
4900
4900
FF80
0080
ENDCHAR
STARTCHAR 276c
ENCODING 10092
SWIDTH 785 0
DWIDTH 9 0
BBX 9 7 0 -1
BITMAP
1800
2800
0E00
1100
1100
1200
7C00
ENDCHAR
STARTCHAR 276d
ENCODING 10093
SWIDTH 872 0
DWIDTH 10 0
BBX 10 7 0 -1
BITMAP
39C0
1080
1080
3900
2500
2D00
F700
ENDCHAR
STARTCHAR 276e
ENCODING 10094
SWIDTH 698 0
DWIDTH 8 0
BBX 8 7 0 -1
BITMAP
38
10
1C
22
22
24
F8
ENDCHAR
STARTCHAR 276f
ENCODING 10095
SWIDTH 698 0
DWIDTH 8 0
BBX 8 7 0 -1
BITMAP
1E
21
1B
2E
02
44
38
ENDCHAR
STARTCHAR 2770
ENCODING 10096
SWIDTH 960 0
DWIDTH 11 0
BBX 11 7 0 -1
BITMAP
3980
1240
1440
3840
2880
2500
E600
ENDCHAR
STARTCHAR 2771
ENCODING 10097
SWIDTH 785 0
DWIDTH 9 0
BBX 9 7 0 -1
BITMAP
0F80
1100
1100
1E00
1200
6200
AE00
ENDCHAR
STARTCHAR 2821
ENCODING 10273
SWIDTH 960 0
DWIDTH 12 0
BBX 15 12 -1 -2
BITMAP
0000
0000
0000
0000
0000
3FFC
0000
0000
0000
0000
0000
0000
ENDCHAR
STARTCHAR 2822
ENCODING 10274
SWIDTH 960 0
DWIDTH 12 0
BBX 15 12 -1 -2
BITMAP
0080
0080
0080
0100
0100
0100
0200
0200
0200
0400
0400
0400
ENDCHAR
STARTCHAR 2823
ENCODING 10275
SWIDTH 960 0
DWIDTH 12 0
BBX 15 12 -1 -2
BITMAP
0000
0000
0000
0000
0000
01FC
0200
0200
0200
0400
0400
0400
ENDCHAR
STARTCHAR 2824
ENCODING 10276
SWIDTH 960 0
DWIDTH 12 0
BBX 15 12 -1 -2
BITMAP
0000
0000
0000
0000
0000
3F00
0200
0200
0200
0400
0400
0400
ENDCHAR
STARTCHAR 2825
ENCODING 10277
SWIDTH 960 0
DWIDTH 12 0
BBX 15 12 -1 -2
BITMAP
0080
0080
0080
0100
0100
3F00
0000
0000
0000
0000
0000
0000
ENDCHAR
STARTCHAR 2826
ENCODING 10278
SWIDTH 960 0
DWIDTH 12 0
BBX 15 12 -1 -2
BITMAP
0080
0080
0080
0100
0100
01FC
0000
0000
0000
0000
0000
0000
ENDCHAR
STARTCHAR 2827
ENCODING 10279
SWIDTH 960 0
DWIDTH 12 0
BBX 15 12 -1 -2
BITMAP
0080
0080
0080
0100
0100
01FC
0200
0200
0200
0400
0400
0400
ENDCHAR
STARTCHAR 2828
ENCODING 10280
SWIDTH 960 0
DWIDTH 12 0
BBX 15 12 -1 -2
BITMAP
0000
0000
0000
0000
0000
3FFC
0200
0200
0200
0400
0400
0400
ENDCHAR
STARTCHAR 2829
ENCODING 10281
SWIDTH 960 0
DWIDTH 12 0
BBX 15 12 -1 -2
BITMAP
0080
0080
0080
0100
0100
3F00
0200
0200
0200
0400
0400
0400
ENDCHAR
STARTCHAR 282a
ENCODING 10282
SWIDTH 960 0
DWIDTH 12 0
BBX 15 12 -1 -2
BITMAP
0080
0080
0080
0100
0100
3FFC
0000
0000
0000
0000
0000
0000
ENDCHAR
STARTCHAR 282b
ENCODING 10283
SWIDTH 960 0
DWIDTH 12 0
BBX 15 12 -1 -2
BITMAP
0080
0080
0080
0100
0100
3FFC
0200
0200
0200
0400
0400
0400
ENDCHAR
STARTCHAR 282c
ENCODING 10284
SWIDTH 960 0
DWIDTH 12 0
BBX 15 12 -1 -2
BITMAP
0000
0000
0000
0000
0000
3FFC
7FF8
0000
0000
0000
0000
0000
ENDCHAR
STARTCHAR 282d
ENCODING 10285
SWIDTH 960 0
DWIDTH 12 0
BBX 15 12 -1 -2
BITMAP
00C0
00C0
00C0
0180
0180
0180
0300
0300
0300
0600
0600
0600
ENDCHAR
STARTCHAR 282e
ENCODING 10286
SWIDTH 960 0
DWIDTH 12 0
BBX 15 12 -1 -2
BITMAP
0000
0000
0000
0000
0000
01FC
03F8
0300
0300
0600
0600
0600
ENDCHAR
STARTCHAR 282f
ENCODING 10287
SWIDTH 960 0
DWIDTH 12 0
BBX 15 12 -1 -2
BITMAP
0000
0000
0000
0000
0000
3F80
7F00
0300
0300
0600
0600
0600
ENDCHAR
STARTCHAR 2830
ENCODING 10288
SWIDTH 960 0
DWIDTH 12 0
BBX 15 12 -1 -2
BITMAP
00C0
00C0
00C0
0180
0180
3F80
7F00
0000
0000
0000
0000
0000
ENDCHAR
STARTCHAR 2831
ENCODING 10289
SWIDTH 960 0
DWIDTH 12 0
BBX 15 12 -1 -2
BITMAP
00C0
00C0
00C0
0180
0180
01FC
03F8
0000
0000
0000
0000
0000
ENDCHAR
STARTCHAR 2832
ENCODING 10290
SWIDTH 960 0
DWIDTH 12 0
BBX 15 12 -1 -2
BITMAP
00C0
00C0
00C0
0180
0180
01FC
03F8
0300
0300
0600
0600
0600
ENDCHAR
STARTCHAR 2833
ENCODING 10291
SWIDTH 960 0
DWIDTH 12 0
BBX 15 12 -1 -2
BITMAP
0000
0000
0000
0000
0000
3FFC
7FF8
0300
0300
0600
0600
0600
ENDCHAR
STARTCHAR 2834
ENCODING 10292
SWIDTH 960 0
DWIDTH 12 0
BBX 15 12 -1 -2
BITMAP
00C0
00C0
00C0
0180
0180
3F80
7F00
0300
0300
0600
0600
0600
ENDCHAR
STARTCHAR 2835
ENCODING 10293
SWIDTH 960 0
DWIDTH 12 0
BBX 15 12 -1 -2
BITMAP
00C0
00C0
00C0
0180
0180
3FFC
7FF8
0000
0000
0000
0000
0000
ENDCHAR
STARTCHAR 2836
ENCODING 10294
SWIDTH 960 0
DWIDTH 12 0
BBX 15 12 -1 -2
BITMAP
00C0
00C0
00C0
0180
0180
3FFC
7FF8
0300
0300
0600
0600
0600
ENDCHAR
STARTCHAR 2837
ENCODING 10295
SWIDTH 960 0
DWIDTH 12 0
BBX 15 12 -1 -2
BITMAP
00C0
00C0
00C0
0180
0180
01FC
0300
0300
0300
0600
0600
0600
ENDCHAR
STARTCHAR 2838
ENCODING 10296
SWIDTH 960 0
DWIDTH 12 0
BBX 15 12 -1 -2
BITMAP
0000
0000
0000
0000
0000
3FFC
7FF8
0200
0200
0400
0400
0400
ENDCHAR
STARTCHAR 2839
ENCODING 10297
SWIDTH 960 0
DWIDTH 12 0
BBX 15 12 -1 -2
BITMAP
00C0
00C0
00C0
0180
0180
3F80
0300
0300
0300
0600
0600
0600
ENDCHAR
STARTCHAR 283a
ENCODING 10298
SWIDTH 960 0
DWIDTH 12 0
BBX 15 12 -1 -2
BITMAP
0080
0080
0080
0100
0100
3FFC
7FF8
0000
0000
0000
0000
0000
ENDCHAR
STARTCHAR 283b
ENCODING 10299
SWIDTH 960 0
DWIDTH 12 0
BBX 15 12 -1 -2
BITMAP
0080
0080
0080
0100
0100
3FFC
7FF8
0200
0200
0400
0400
0400
ENDCHAR
STARTCHAR 283c
ENCODING 10300
SWIDTH 960 0
DWIDTH 12 0
BBX 15 12 -1 -2
BITMAP
0080
0080
0080
0100
0100
01FC
03F8
0200
0200
0400
0400
0400
ENDCHAR
STARTCHAR 283d
ENCODING 10301
SWIDTH 960 0
DWIDTH 12 0
BBX 15 12 -1 -2
BITMAP
0000
0000
0000
0000
0000
3FFC
0300
0300
0300
0600
0600
0600
ENDCHAR
STARTCHAR 283e
ENCODING 10302
SWIDTH 960 0
DWIDTH 12 0
BBX 15 12 -1 -2
BITMAP
0080
0080
0080
0100
0100
3F00
7E00
0200
0200
0400
0400
0400
ENDCHAR
STARTCHAR 283f
ENCODING 10303
SWIDTH 960 0
DWIDTH 12 0
BBX 15 12 -1 -2
BITMAP
00C0
00C0
00C0
0180
0180
3FFC
0000
0000
0000
0000
0000
0000
ENDCHAR
STARTCHAR 2840
ENCODING 10304
SWIDTH 960 0
DWIDTH 12 0
BBX 15 12 -1 -2
BITMAP
00C0
00C0
00C0
0180
0180
3FFC
0300
0300
0300
0600
0600
0600
ENDCHAR
STARTCHAR 3021
ENCODING 12321
SWIDTH 960 0
DWIDTH 12 0
BBX 15 12 -1 -2
BITMAP
0000
0FFC
0120
0240
0FF0
0A50
14A0
14A0
1FE0
0900
0900
7FE0
ENDCHAR
STARTCHAR 3022
ENCODING 12322
SWIDTH 960 0
DWIDTH 12 0
BBX 15 12 -1 -2
BITMAP
0000
03FC
1C50
28A0
2BF8
2AA8
5550
5550
57F0
E280
0280
1FE0
ENDCHAR
STARTCHAR 3023
ENCODING 12323
SWIDTH 960 0
DWIDTH 12 0
BBX 15 12 -1 -2
BITMAP
0820
0820
0BF8
3E40
1440
17F8
2880
4880
7BE0
2D00
4100
8FE0
ENDCHAR
STARTCHAR 3024
ENCODING 12324
SWIDTH 960 0
DWIDTH 12 0
BBX 15 12 -1 -2
BITMAP
0000
1FFC
1408
2BD0
3250
3250
54A0
57A0
6420
8040
8040
80C0
ENDCHAR
STARTCHAR 3025
ENCODING 12325
SWIDTH 960 0
DWIDTH 12 0
BBX 15 12 -1 -2
BITMAP
0080
1FFC
0000
0FE0
0820
0820
1FC0
0420
3A40
D200
1D80
7060
ENDCHAR
STARTCHAR 3026
ENCODING 12326
SWIDTH 960 0
DWIDTH 12 0
BBX 15 12 -1 -2
BITMAP
0038
0FD0
02A0
3FF8
2290
2A60
0BD0
2F90
3900
0E00
1B00
E0E0
ENDCHAR
STARTCHAR 3027
ENCODING 12327
SWIDTH 960 0
DWIDTH 12 0
BBX 15 12 -1 -2
BITMAP
0440
0450
0498
3DE8
0A08
0FF0
1880
77F0
1180
2280
2440
6830
ENDCHAR
STARTCHAR 3028
ENCODING 12328
SWIDTH 960 0
DWIDTH 12 0
BBX 15 12 -1 -2
BITMAP
0820
0820
0A60
3EA0
1510
26E8
4800
6BE0
3A20
2C40
4440
87C0
ENDCHAR
STARTCHAR 3029
ENCODING 12329
SWIDTH 960 0
DWIDTH 12 0
BBX 15 12 -1 -2
BITMAP
0040
0878
0530
00C0
0330
3FF8
1100
17E0
1100
1FC0
4A00
87F0
ENDCHAR
STARTCHAR 302a
ENCODING 12330
SWIDTH 960 0
DWIDTH 12 0
BBX 15 12 -1 -2
BITMAP
0220
1FFC
0220
07C0
1250
1C38
17E0
6218
1FE0
0600
1980
6060
ENDCHAR
STARTCHAR 302b
ENCODING 12331
SWIDTH 960 0
DWIDTH 12 0
BBX 15 12 -1 -2
BITMAP
0220
1FFC
0220
3FF8
0280
1FF0
2520
2520
28E0
7040
4040
7FC0
ENDCHAR
STARTCHAR 302c
ENCODING 12332
SWIDTH 960 0
DWIDTH 12 0
BBX 15 12 -1 -2
BITMAP
0340
1C78
0490
09F0
3F50
09F0
3AA0
37F0
5490
AFE0
2110
20F0
ENDCHAR
STARTCHAR 302d
ENCODING 12333
SWIDTH 960 0
DWIDTH 12 0
BBX 15 12 -1 -2
BITMAP
0000
1FFC
0140
1FF0
1290
1FF0
0500
7FF0
2A00
5240
90A0
0F80
ENDCHAR
STARTCHAR 302e
ENCODING 12334
SWIDTH 960 0
DWIDTH 12 0
BBX 15 12 -1 -2
BITMAP
0800
0BF8
0A08
3FF0
1400
17F8
3960
6FD0
2880
57C0
6100
DFE0
ENDCHAR
STARTCHAR 302f
ENCODING 12335
SWIDTH 960 0
DWIDTH 12 0
BBX 15 12 -1 -2
BITMAP
1000
0BF8
0208
27F0
1400
07F8
0960
1BD0
2880
57C0
9100
AFE0
ENDCHAR
STARTCHAR 3030
ENCODING 12336
SWIDTH 960 0
DWIDTH 12 0
BBX 15 12 -1 -2
BITMAP
0400
047C
0444
3E88
0AF8
0A88
1510
1510
2510
2BE0
4810
87F0
ENDCHAR
STARTCHAR 3031
ENCODING 12337
SWIDTH 960 0
DWIDTH 12 0
BBX 15 12 -1 -2
BITMAP
0220
1FFC
02A0
1FE0
0220
3FF8
0840
0FC0
1FE0
2400
FFE0
0400
ENDCHAR
STARTCHAR 3032
ENCODING 12338
SWIDTH 960 0
DWIDTH 12 0
BBX 15 12 -1 -2
BITMAP
0220
1FFC
0220
1FF0
0000
0FF0
1020
1FE0
2000
2000
4000
8000
ENDCHAR
STARTCHAR 3033
ENCODING 12339
SWIDTH 960 0
DWIDTH 12 0
BBX 15 12 -1 -2
BITMAP
0420
0F48
13F4
3E40
2BF8
3EE0
5520
7E50
1988
6840
5180
8600
ENDCHAR
STARTCHAR 3034
ENCODING 12340
SWIDTH 960 0
DWIDTH 12 0
BBX 15 12 -1 -2
BITMAP
0420
0420
07FC
3D10
08A0
1FF8
3880
3080
57F0
A100
2100
2100
ENDCHAR
STARTCHAR 3035
ENCODING 12341
SWIDTH 960 0
DWIDTH 12 0
BBX 15 12 -1 -2
BITMAP
0000
07FC
0400
0880
0880
0FF0
1100
1100
2100
2200
5FE0
8000
ENDCHAR
STARTCHAR 3036
ENCODING 12342
SWIDTH 960 0
DWIDTH 12 0
BBX 15 12 -1 -2
BITMAP
0420
1F20
0450
3F50
2228
3E20
4640
7D40
11F0
FE80
2080
2080
ENDCHAR
STARTCHAR 3037
ENCODING 12343
SWIDTH 960 0
DWIDTH 12 0
BBX 15 12 -1 -2
BITMAP
0400
04F8
0450
3EA0
08B8
0890
1990
72A0
14E0
2540
2A20
7410
ENDCHAR
STARTCHAR 3038
ENCODING 12344
SWIDTH 960 0
DWIDTH 12 0
BBX 15 12 -1 -2
BITMAP
0080
1FFC
1008
2808
0EF0
1290
2520
5520
19C0
1220
2220
41E0
ENDCHAR
STARTCHAR 3039
ENCODING 12345
SWIDTH 960 0
DWIDTH 12 0
BBX 15 12 -1 -2
BITMAP
0800
08F8
0A88
3F10
15F0
1510
2A20
4BE0
7A20
2C40
4440
8FE0
ENDCHAR
STARTCHAR 303a
ENCODING 12346
SWIDTH 960 0
DWIDTH 12 0
BBX 15 12 -1 -2
BITMAP
0410
0410
1F10
2BF8
2A80
3E80
1100
1900
1900
3D00
C4E0
0400
ENDCHAR
STARTCHAR 303b
ENCODING 12347
SWIDTH 960 0
DWIDTH 12 0
BBX 15 12 -1 -2
BITMAP
0420
0620
1920
2D60
1290
1EF0
2710
3DE0
2920
4A40
5640
E3C0
ENDCHAR
STARTCHAR 303c
ENCODING 12348
SWIDTH 960 0
DWIDTH 12 0
BBX 15 12 -1 -2
BITMAP
0420
0820
167C
1908
14E8
3CA8
15D0
5950
5950
ABA0
A020
20C0
ENDCHAR
STARTCHAR 303d
ENCODING 12349
SWIDTH 960 0
DWIDTH 12 0
BBX 15 12 -1 -2
BITMAP
0420
08F8
1620
19F8
14A0
3F90
16F0
5920
5F40
A900
A280
2C60
ENDCHAR
STARTCHAR 303e
ENCODING 12350
SWIDTH 960 0
DWIDTH 12 0
BBX 15 12 -1 -2
BITMAP
0420
0720
0A20
1E78
2A40
3E40
54E0
7D20
1920
6A40
5240
83C0
ENDCHAR
STARTCHAR 303f
ENCODING 12351
SWIDTH 960 0
DWIDTH 12 0
BBX 15 12 -1 -2
BITMAP
0050
0048
1FFC
0080
1E90
12A0
24A0
3CC0
01C0
1A60
E420
1820
ENDCHAR
STARTCHAR 3040
ENCODING 12352
SWIDTH 960 0
DWIDTH 12 0
BBX 15 12 -1 -2
BITMAP
1FFC
0140
0FF8
1290
1FF0
1A70
0A80
7FF0
0F00
3480
C460
0400
ENDCHAR
STARTCHAR 3041
ENCODING 12353
SWIDTH 960 0
DWIDTH 12 0
BBX 15 12 -1 -2
BITMAP
0420
0420
1F60
04A0
0910
0EE8
3800
57E0
1220
2440
2440
27C0
ENDCHAR
STARTCHAR 3042
ENCODING 12354
SWIDTH 960 0
DWIDTH 12 0
BBX 15 12 -1 -2
BITMAP
0080
1FFC
1104
2208
0200
3FF8
0880
0880
1F00
0600
1980
6040
ENDCHAR
STARTCHAR 3043
ENCODING 12355
SWIDTH 960 0
DWIDTH 12 0
BBX 15 12 -1 -2
BITMAP
0040
0FFC
0840
1FF8
12A0
17E0
3930
2FE0
4920
5FC0
8220
81E0
ENDCHAR
STARTCHAR 3044
ENCODING 12356
SWIDTH 960 0
DWIDTH 12 0
BBX 15 12 -1 -2
BITMAP
0420
05FC
0504
3E88
0880
0FFC
1920
7120
1340
2180
2240
6C20
ENDCHAR
STARTCHAR 3045
ENCODING 12357
SWIDTH 960 0
DWIDTH 12 0
BBX 15 12 -1 -2
BITMAP
0020
1FFC
1298
2520
27F8
3C00
4BE0
4A20
4BE0
F440
0440
07C0
ENDCHAR
STARTCHAR 3046
ENCODING 12358
SWIDTH 960 0
DWIDTH 12 0
BBX 15 12 -1 -2
BITMAP
0080
1FFC
1104
2FE8
0440
0780
1AC0
7FF0
0F00
3480
C460
0400
ENDCHAR
STARTCHAR 3047
ENCODING 12359
SWIDTH 960 0
DWIDTH 12 0
BBX 15 12 -1 -2
BITMAP
1F7C
1144
1F7C
3EF8
2108
2FE8
4510
7FF0
4890
9F20
9120
9F60
ENDCHAR
STARTCHAR 3048
ENCODING 12360
SWIDTH 960 0
DWIDTH 12 0
BBX 15 12 -1 -2
BITMAP
0A20
1FFC
0B44
1C80
0BFC
3E90
5520
7D20
1740
F980
2240
2420
ENDCHAR
STARTCHAR 3049
ENCODING 12361
SWIDTH 960 0
DWIDTH 12 0
BBX 15 12 -1 -2
BITMAP
0080
0080
1FFC
0380
0540
1920
6230
1FC0
1040
2080
2080
3F80
ENDCHAR
STARTCHAR 304a
ENCODING 12362
SWIDTH 960 0
DWIDTH 12 0
BBX 15 12 -1 -2
BITMAP
0408
0408
0508
0910
0910
0890
1020
1420
3860
40A0
8310
0C00
ENDCHAR
STARTCHAR 304b
ENCODING 12363
SWIDTH 960 0
DWIDTH 12 0
BBX 15 12 -1 -2
BITMAP
0200
03F8
0448
0890
1FF8
2890
1120
17E0
1100
2200
2400
2800
ENDCHAR
STARTCHAR 304c
ENCODING 12364
SWIDTH 960 0
DWIDTH 12 0
BBX 15 12 -1 -2
BITMAP
0220
0220
0220
07F8
0810
3A10
5220
1220
1240
2480
2100
3FE0
ENDCHAR
STARTCHAR 304d
ENCODING 12365
SWIDTH 960 0
DWIDTH 12 0
BBX 15 12 -1 -2
BITMAP
0220
0220
03FC
0440
0888
3990
56C0
1A80
1280
2480
2740
2C20
ENDCHAR
STARTCHAR 304e
ENCODING 12366
SWIDTH 960 0
DWIDTH 12 0
BBX 15 12 -1 -2
BITMAP
0240
02F8
0248
07FC
0910
39F0
5080
17E0
1480
3FE0
2100
2100
ENDCHAR
STARTCHAR 304f
ENCODING 12367
SWIDTH 960 0
DWIDTH 12 0
BBX 15 12 -1 -2
BITMAP
0000
0FFC
0924
1248
1FF8
1248
2490
3FF0
2490
4920
5020
7FE0
ENDCHAR
STARTCHAR 3050
ENCODING 12368
SWIDTH 960 0
DWIDTH 12 0
BBX 15 12 -1 -2
BITMAP
0080
1FFC
0080
1FE0
0120
1FE0
2200
3FF0
0D20
1140
2080
C060
ENDCHAR
STARTCHAR 3051
ENCODING 12369
SWIDTH 960 0
DWIDTH 12 0
BBX 15 12 -1 -2
BITMAP
0030
07C0
0080
3FF8
0380
1960
6430
3FE0
0980
3E00
0D80
7040
ENDCHAR
STARTCHAR 3052
ENCODING 12370
SWIDTH 960 0
DWIDTH 12 0
BBX 15 12 -1 -2
BITMAP
0028
0824
0FFE
1040
1F48
1550
3F50
2A60
4A48
4CD0
8930
B610
ENDCHAR
STARTCHAR 3053
ENCODING 12371
SWIDTH 960 0
DWIDTH 12 0
BBX 15 12 -1 -2
BITMAP
0008
0F88
0888
1FF8
1010
1F50
20A0
3EA0
2420
6A40
AA40
18C0
ENDCHAR
STARTCHAR 3054
ENCODING 12372
SWIDTH 960 0
DWIDTH 12 0
BBX 15 12 -1 -2
BITMAP
0488
0490
04FC
1B20
1D20
2DF8
5240
1240
13F0
2480
2480
27E0
ENDCHAR
STARTCHAR 3055
ENCODING 12373
SWIDTH 960 0
DWIDTH 12 0
BBX 15 12 -1 -2
BITMAP
0080
0FF8
0220
3FF8
0820
0FE0
1040
1FC0
3200
5240
90A0
0F80
ENDCHAR
STARTCHAR 3056
ENCODING 12374
SWIDTH 960 0
DWIDTH 12 0
BBX 15 12 -1 -2
BITMAP
0F88
0888
0FFC
1090
1F50
1210
3520
5560
1A00
5240
90A0
0F80
ENDCHAR
STARTCHAR 3057
ENCODING 12375
SWIDTH 960 0
DWIDTH 12 0
BBX 15 12 -1 -2
BITMAP
0000
03F8
0208
07F0
0410
07F0
0400
0FF0
3650
0920
3220
0CC0
ENDCHAR
STARTCHAR 3058
ENCODING 12376
SWIDTH 960 0
DWIDTH 12 0
BBX 15 12 -1 -2
BITMAP
0420
04FC
0460
3CA0
0910
1FF8
3820
33A0
52A0
A740
2040
20C0
ENDCHAR
STARTCHAR 3059
ENCODING 12377
SWIDTH 960 0
DWIDTH 12 0
BBX 15 12 -1 -2
BITMAP
0440
0240
0080
1FC0
0240
07F0
0820
1FF0
6010
9520
2AA0
40C0
ENDCHAR
STARTCHAR 305a
ENCODING 12378
SWIDTH 960 0
DWIDTH 12 0
BBX 15 12 -1 -2
BITMAP
0000
07F8
0488
0FF0
0910
0FF0
0000
7FF0
1220
2240
3D80
E060
ENDCHAR
STARTCHAR 305b
ENCODING 12379
SWIDTH 960 0
DWIDTH 12 0
BBX 15 12 -1 -2
BITMAP
0000
0FF8
0888
1FF0
1110
1FF0
0880
3FE0
0880
FFE0
2180
C040
ENDCHAR
STARTCHAR 305c
ENCODING 12380
SWIDTH 960 0
DWIDTH 12 0
BBX 15 12 -1 -2
BITMAP
0340
1C78
0590
3EA0
0840
1DA0
36F0
3110
56E0
A080
2300
2C00
ENDCHAR
STARTCHAR 305d
ENCODING 12381
SWIDTH 960 0
DWIDTH 12 0
BBX 15 12 -1 -2
BITMAP
0448
0450
1CFC
1720
0920
35F0
5E40
1240
5BE0
AC80
A480
27E0
ENDCHAR
STARTCHAR 305e
ENCODING 12382
SWIDTH 960 0
DWIDTH 12 0
BBX 15 12 -1 -2
BITMAP
0420
04FC
1C24
15FC
0888
34F8
5C40
11F0
5540
AFF0
A080
2080
ENDCHAR
STARTCHAR 305f
ENCODING 12383
SWIDTH 960 0
DWIDTH 12 0
BBX 15 12 -1 -2
BITMAP
0000
0FF8
0888
1FF0
1110
1FF0
1040
1FC0
1040
3F80
2080
2180
ENDCHAR
STARTCHAR 3060
ENCODING 12384
SWIDTH 960 0
DWIDTH 12 0
BBX 15 12 -1 -2
BITMAP
0220
1FFC
0220
1FF0
0100
3FF8
1AC0
6230
3FE0
1100
0F00
78C0
ENDCHAR
STARTCHAR 3061
ENCODING 12385
SWIDTH 960 0
DWIDTH 12 0
BBX 15 12 -1 -2
BITMAP
0080
0080
1FFC
0200
0310
0520
1940
6900
0880
1080
1C40
7020
ENDCHAR
STARTCHAR 3062
ENCODING 12386
SWIDTH 960 0
DWIDTH 12 0
BBX 15 12 -1 -2
BITMAP
0E00
01FC
1F24
03F8
3E48
07F8
7A20
03E0
7A20
97C0
9440
F4C0
ENDCHAR
STARTCHAR 3063
ENCODING 12387
SWIDTH 960 0
DWIDTH 12 0
BBX 15 12 -1 -2
BITMAP
0040
09F8
0448
03F8
0110
39F0
1080
17E0
1480
3FE0
5100
8FF0
ENDCHAR
STARTCHAR 3064
ENCODING 12388
SWIDTH 960 0
DWIDTH 12 0
BBX 15 12 -1 -2
BITMAP
0040
09F8
0548
07F8
0000
3BF0
1420
17E0
1420
1FC0
4C60
8FF0
ENDCHAR
STARTCHAR 3065
ENCODING 12389
SWIDTH 960 0
DWIDTH 12 0
BBX 15 12 -1 -2
BITMAP
0000
0FFC
0900
13E0
1480
1880
27E0
2100
2680
4880
5000
7FE0
ENDCHAR
STARTCHAR 3066
ENCODING 12390
SWIDTH 960 0
DWIDTH 12 0
BBX 15 12 -1 -2
BITMAP
0110
0110
0110
1FF8
0220
0220
0440
3FF0
0440
0880
1080
2080
ENDCHAR
STARTCHAR 3067
ENCODING 12391
SWIDTH 960 0
DWIDTH 12 0
BBX 15 12 -1 -2
BITMAP
0080
1FFC
0200
0280
1C80
0500
0640
0C80
3300
0D00
3080
C040
ENDCHAR
STARTCHAR 3068
ENCODING 12392
SWIDTH 960 0
DWIDTH 12 0
BBX 15 12 -1 -2
BITMAP
0030
0828
0BFC
1040
3F48
1550
2A50
2E60
3340
CC60
3120
0220
ENDCHAR
STARTCHAR 3069
ENCODING 12393
SWIDTH 960 0
DWIDTH 12 0
BBX 15 12 -1 -2
BITMAP
0080
1FFC
0320
04E0
1F10
0FE0
1040
1FC0
1040
3F80
2080
2180
ENDCHAR
STARTCHAR 306a
ENCODING 12394
SWIDTH 960 0
DWIDTH 12 0
BBX 15 12 -1 -2
BITMAP
0200
023C
1FE8
0850
0F60
1970
3E90
5290
1EA0
25C0
2500
2D00
ENDCHAR
STARTCHAR 306b
ENCODING 12395
SWIDTH 960 0
DWIDTH 12 0
BBX 15 12 -1 -2
BITMAP
0088
1F54
05F8
0958
13F8
1C68
6FF8
2A50
2E60
5BA0
7260
0C20
ENDCHAR
STARTCHAR 306c
ENCODING 12396
SWIDTH 960 0
DWIDTH 12 0
BBX 15 12 -1 -2
BITMAP
0000
0000
0000
0000
0000
1FF8
0000
0000
0000
0000
0000
0000
ENDCHAR
STARTCHAR 306d
ENCODING 12397
SWIDTH 960 0
DWIDTH 12 0
BBX 15 12 -1 -2
BITMAP
0080
07F0
0080
3FF8
0000
3FF8
4810
4810
0F80
1000
1040
0FC0
ENDCHAR
STARTCHAR 306e
ENCODING 12398
SWIDTH 960 0
DWIDTH 12 0
BBX 15 12 -1 -2
BITMAP
0910
0490
00E0
2FB8
1220
0420
0820
1FF0
2AA0
5540
9540
BFE0
ENDCHAR
STARTCHAR 306f
ENCODING 12399
SWIDTH 960 0
DWIDTH 12 0
BBX 15 12 -1 -2
BITMAP
0040
0878
0490
01F8
0248
3BF8
1180
1180
1290
1C60
4800
87F0
ENDCHAR
STARTCHAR 3070
ENCODING 12400
SWIDTH 960 0
DWIDTH 12 0
BBX 15 12 -1 -2
BITMAP
031C
1CF4
0458
3EB0
08A0
1DF8
3690
3690
52F0
A520
2520
25E0
ENDCHAR
STARTCHAR 3071
ENCODING 12401
SWIDTH 960 0
DWIDTH 12 0
BBX 15 12 -1 -2
BITMAP
0220
1FFC
0220
0540
11F8
1250
12A0
0480
1980
2280
CC40
3020
ENDCHAR
STARTCHAR 3072
ENCODING 12402
SWIDTH 960 0
DWIDTH 12 0
BBX 15 12 -1 -2
BITMAP
0220
1FFC
0220
0FE0
0100
0100
7FF0
0200
0200
0400
0400
0C00
ENDCHAR
STARTCHAR 3073
ENCODING 12403
SWIDTH 960 0
DWIDTH 12 0
BBX 15 12 -1 -2
BITMAP
0400
07FC
0A24
1EF8
2B20
3FF8
5490
7ED0
19B0
6DA0
5120
86C0
ENDCHAR
STARTCHAR 3074
ENCODING 12404
SWIDTH 960 0
DWIDTH 12 0
BBX 15 12 -1 -2
BITMAP
0100
0100
0240
0C30
1FC8
0280
0500
0500
0900
1220
2220
41E0
ENDCHAR
STARTCHAR 3075
ENCODING 12405
SWIDTH 960 0
DWIDTH 12 0
BBX 15 12 -1 -2
BITMAP
0100
0E7C
0844
1088
1E88
1088
2110
2110
3D60
4200
0200
0200
ENDCHAR
STARTCHAR 3076
ENCODING 12406
SWIDTH 960 0
DWIDTH 12 0
BBX 15 12 -1 -2
BITMAP
0000
01FC
1D24
2A48
2BF8
2A48
5490
54D0
5570
EA60
0C20
0FE0
ENDCHAR
STARTCHAR 3077
ENCODING 12407
SWIDTH 960 0
DWIDTH 12 0
BBX 15 12 -1 -2
BITMAP
03F0
0210
03F0
07F0
0810
0FF0
1020
1FE0
1020
3FC0
1980
6060
ENDCHAR
STARTCHAR 3078
ENCODING 12408
SWIDTH 960 0
DWIDTH 12 0
BBX 15 12 -1 -2
BITMAP
0000
0FFC
0884
1108
1FE8
1108
2210
2510
3890
60A0
4020
7FE0
ENDCHAR
STARTCHAR 3079
ENCODING 12409
SWIDTH 960 0
DWIDTH 12 0
BBX 15 12 -1 -2
BITMAP
0800
08FC
0AA4
3F48
15F8
1548
2A90
4AD0
7B70
2D60
4620
87E0
ENDCHAR
STARTCHAR 307a
ENCODING 12410
SWIDTH 960 0
DWIDTH 12 0
BBX 15 12 -1 -2
BITMAP
0008
0F88
0088
0110
1F10
1010
3E20
0220
0220
0440
0440
3840
ENDCHAR
STARTCHAR 307b
ENCODING 12411
SWIDTH 960 0
DWIDTH 12 0
BBX 15 12 -1 -2
BITMAP
0420
0620
19A0
2C7C
12A8
1F28
2640
3C40
28C0
4940
5620
EC10
ENDCHAR
STARTCHAR 307c
ENCODING 12412
SWIDTH 960 0
DWIDTH 12 0
BBX 15 12 -1 -2
BITMAP
081C
05E0
0248
2290
1220
0BF8
0100
1100
27E0
4200
8200
9FE0
ENDCHAR
STARTCHAR 307d
ENCODING 12413
SWIDTH 960 0
DWIDTH 12 0
BBX 15 12 -1 -2
BITMAP
0888
0928
0AC8
1310
1250
1FF0
28A0
2FA0
28A0
5F50
5150
9330
ENDCHAR
STARTCHAR 307e
ENCODING 12414
SWIDTH 960 0
DWIDTH 12 0
BBX 15 12 -1 -2
BITMAP
0220
1FFC
0620
38C0
29E0
3610
59F0
5040
7FF0
C480
85C0
8E40
ENDCHAR
STARTCHAR 3121
ENCODING 12577
SWIDTH 960 0
DWIDTH 12 0
BBX 15 12 -1 -2
BITMAP
1C20
17FC
1E04
37E8
2800
2FF8
5140
5140
6240
84A0
88A0
9060
ENDCHAR
STARTCHAR 3122
ENCODING 12578
SWIDTH 960 0
DWIDTH 12 0
BBX 15 12 -1 -2
BITMAP
0040
1C60
1590
2AF0
3408
3BF0
5080
5FF0
6380
C4C0
9F40
8040
ENDCHAR
STARTCHAR 3123
ENCODING 12579
SWIDTH 960 0
DWIDTH 12 0
BBX 15 12 -1 -2
BITMAP
1C78
17C8
1D70
37D0
3010
33F0
5020
5FE0
62A0
94E0
A420
A3E0
ENDCHAR
STARTCHAR 3124
ENCODING 12580
SWIDTH 960 0
DWIDTH 12 0
BBX 15 12 -1 -2
BITMAP
0478
1F48
0C48
14F8
3E88
00F8
3D10
25F0
3D10
4BE0
7940
0620
ENDCHAR
STARTCHAR 3125
ENCODING 12581
SWIDTH 960 0
DWIDTH 12 0
BBX 15 12 -1 -2
BITMAP
0010
0010
1E10
27F8
2420
2520
4940
4940
4840
F080
0080
0180
ENDCHAR
STARTCHAR 3126
ENCODING 12582
SWIDTH 960 0
DWIDTH 12 0
BBX 15 12 -1 -2
BITMAP
0100
0100
0100
3FF8
0200
0400
0800
0FE0
3820
5040
9040
1FC0
ENDCHAR
STARTCHAR 3127
ENCODING 12583
SWIDTH 960 0
DWIDTH 12 0
BBX 15 12 -1 -2
BITMAP
0080
1FFC
1004
2FE8
0100
0100
3FE0
0200
0200
0400
0400
0C00
ENDCHAR
STARTCHAR 3128
ENCODING 12584
SWIDTH 960 0
DWIDTH 12 0
BBX 15 12 -1 -2
BITMAP
0100
07F0
0410
0FE0
0800
0FF8
1000
1FF0
0090
54A0
4A20
80C0
ENDCHAR
STARTCHAR 3129
ENCODING 12585
SWIDTH 960 0
DWIDTH 12 0
BBX 15 12 -1 -2
BITMAP
0000
1FFC
0104
1288
0A48
0208
0C30
1450
6590
0820
0820
1860
ENDCHAR
STARTCHAR 312a
ENCODING 12586
SWIDTH 960 0
DWIDTH 12 0
BBX 15 12 -1 -2
BITMAP
0000
09F8
0420
0040
07F8
3840
1080
1080
1080
1300
4800
87F0
ENDCHAR
STARTCHAR 312b
ENCODING 12587
SWIDTH 960 0
DWIDTH 12 0
BBX 15 12 -1 -2
BITMAP
0000
0FFC
0080
0100
1FF8
1948
2A50
2210
3290
54A0
4420
4460
ENDCHAR
STARTCHAR 312c
ENCODING 12588
SWIDTH 960 0
DWIDTH 12 0
BBX 15 12 -1 -2
BITMAP
0180
0E3C
0824
1248
1248
1248
2490
2C90
74E0
0900
1100
2100
ENDCHAR
STARTCHAR 312d
ENCODING 12589
SWIDTH 960 0
DWIDTH 12 0
BBX 15 12 -1 -2
BITMAP
0920
0678
1E48
0AF0
3E90
28F8
7D00
15F0
35B0
7AE0
A420
20C0
ENDCHAR
STARTCHAR 312e
ENCODING 12590
SWIDTH 960 0
DWIDTH 12 0
BBX 15 12 -1 -2
BITMAP
0080
1FFC
1388
0CF0
0800
1EF0
1120
7FE0
1920
2BC0
42A0
8CE0
ENDCHAR
STARTCHAR 312f
ENCODING 12591
SWIDTH 960 0
DWIDTH 12 0
BBX 15 12 -1 -2
BITMAP
0000
07F0
0090
0120
0120
1FF8
0240
0440
0440
0880
0880
7FE0
ENDCHAR
STARTCHAR 3130
ENCODING 12592
SWIDTH 960 0
DWIDTH 12 0
BBX 15 12 -1 -2
BITMAP
0048
1E90
04FC
0B20
1520
1DF8
6A40
2A40
2BF0
5480
7480
07E0
ENDCHAR
STARTCHAR 3131
ENCODING 12593
SWIDTH 960 0
DWIDTH 12 0
BBX 15 12 -1 -2
BITMAP
0080
0100
0678
0810
0810
0810
1DE0
1020
1020
2040
3FC0
0000
ENDCHAR
STARTCHAR 3132
ENCODING 12594
SWIDTH 960 0
DWIDTH 12 0
BBX 15 12 -1 -2
BITMAP
0800
05F8
0108
22F0
1290
07F0
0810
1BD0
2A50
57A0
9020
9060
ENDCHAR
STARTCHAR 3133
ENCODING 12595
SWIDTH 960 0
DWIDTH 12 0
BBX 15 12 -1 -2
BITMAP
0040
0078
1C40
2BF8
2A80
2BF8
5520
54E0
5570
E6C0
1680
2FE0
ENDCHAR
STARTCHAR 3134
ENCODING 12596
SWIDTH 960 0
DWIDTH 12 0
BBX 15 12 -1 -2
BITMAP
0000
00F8
1E88
2510
25F0
2510
4BE0
4A20
4A20
F7C0
0240
0C20
ENDCHAR
STARTCHAR 3135
ENCODING 12597
SWIDTH 960 0
DWIDTH 12 0
BBX 15 12 -1 -2
BITMAP
0490
1F7C
1EB8
2AA8
1FF0
1290
3FE0
2440
3FF0
5280
4880
F580
ENDCHAR
STARTCHAR 3136
ENCODING 12598
SWIDTH 960 0
DWIDTH 12 0
BBX 15 12 -1 -2
BITMAP
0220
1FFC
0220
1F10
1110
1FF8
2020
3EA0
24A0
6C40
AA40
2AC0
ENDCHAR
STARTCHAR 3137
ENCODING 12599
SWIDTH 960 0
DWIDTH 12 0
BBX 15 12 -1 -2
BITMAP
0478
0F48
1278
3E90
2BF8
3EA8
57F0
7D20
1940
6980
5240
8420
ENDCHAR
STARTCHAR 3138
ENCODING 12600
SWIDTH 960 0
DWIDTH 12 0
BBX 15 12 -1 -2
BITMAP
0820
0820
0BFC
3E50
1460
17F8
2880
4900
7BE0
2E00
4220
81E0
ENDCHAR
STARTCHAR 3139
ENCODING 12601
SWIDTH 960 0
DWIDTH 12 0
BBX 15 12 -1 -2
BITMAP
0FFC
0800
0BBC
1550
1750
15F8
2E40
28C0
2DC0
5680
9AA0
3460
ENDCHAR
STARTCHAR 313a
ENCODING 12602
SWIDTH 960 0
DWIDTH 12 0
BBX 15 12 -1 -2
BITMAP
0824
0422
01FC
2040
13F8
0248
07F0
1490
27F0
4920
8920
8960
ENDCHAR
STARTCHAR 313b
ENCODING 12603
SWIDTH 960 0
DWIDTH 12 0
BBX 15 12 -1 -2
BITMAP
0018
07E0
04A0
0940
0940
0940
1240
1340
22C0
4740
7940
8020
ENDCHAR
STARTCHAR 313c
ENCODING 12604
SWIDTH 960 0
DWIDTH 12 0
BBX 15 12 -1 -2
BITMAP
1F7C
1144
1F7C
2288
3EF8
2008
5FD0
4210
4F90
8420
BFA0
8060
ENDCHAR
STARTCHAR 313d
ENCODING 12605
SWIDTH 960 0
DWIDTH 12 0
BBX 15 12 -1 -2
BITMAP
0110
03FC
1CA0
2FF0
2D50
2E70
5FE0
5040
5FF0
E880
0480
0180
ENDCHAR
STARTCHAR 313e
ENCODING 12606
SWIDTH 960 0
DWIDTH 12 0
BBX 15 12 -1 -2
BITMAP
0000
07F0
0000
0000
3FF8
0200
0200
0480
0880
13C0
7C40
0040
ENDCHAR
STARTCHAR 313f
ENCODING 12607
SWIDTH 960 0
DWIDTH 12 0
BBX 15 12 -1 -2
BITMAP
03FC
0A24
07FC
0250
03F0
3A50
17E0
1080
1FF0
2100
5900
87F0
ENDCHAR
STARTCHAR 3140
ENCODING 12608
SWIDTH 960 0
DWIDTH 12 0
BBX 15 12 -1 -2
BITMAP
0FF8
0080
1FFC
2108
2D68
0100
1FC0
0000
7FF0
0900
1380
7C40
ENDCHAR
STARTCHAR 3141
ENCODING 12609
SWIDTH 960 0
DWIDTH 12 0
BBX 15 12 -1 -2
BITMAP
0220
1FFC
0220
0430
05C0
0840
1080
3FF0
5080
2100
2FC0
2000
ENDCHAR
STARTCHAR 3142
ENCODING 12610
SWIDTH 960 0
DWIDTH 12 0
BBX 15 12 -1 -2
BITMAP
0400
06FC
1948
2CF0
1290
1E90
25E0
3D20
2920
4BE0
5640
E040
ENDCHAR
STARTCHAR 3143
ENCODING 12611
SWIDTH 960 0
DWIDTH 12 0
BBX 15 12 -1 -2
BITMAP
0700
047C
1F88
2948
1C50
2360
1020
3C40
66C0
7940
4A20
7C10
ENDCHAR
STARTCHAR 3144
ENCODING 12612
SWIDTH 960 0
DWIDTH 12 0
BBX 15 12 -1 -2
BITMAP
0510
02A0
1FFC
2008
2FC8
0840
1F80
0400
3FC0
4080
4080
7F80
ENDCHAR
STARTCHAR 3145
ENCODING 12613
SWIDTH 960 0
DWIDTH 12 0
BBX 15 12 -1 -2
BITMAP
1F7C
1144
1F7C
2288
3EF8
14D0
2510
7FF0
0900
2900
0E00
71C0
ENDCHAR
STARTCHAR 3146
ENCODING 12614
SWIDTH 960 0
DWIDTH 12 0
BBX 15 12 -1 -2
BITMAP
0F90
0890
0FA0
11D0
1F10
0420
7F40
2290
3E20
5440
9280
3100
ENDCHAR
STARTCHAR 3147
ENCODING 12615
SWIDTH 960 0
DWIDTH 12 0
BBX 15 12 -1 -2
BITMAP
0040
1C40
15F8
2A90
2A90
3A90
5FF0
5180
5280
E480
0840
3020
ENDCHAR
STARTCHAR 3148
ENCODING 12616
SWIDTH 960 0
DWIDTH 12 0
BBX 15 12 -1 -2
BITMAP
0100
0100
0FF0
1220
1FE0
1220
3FE0
0440
0780
1A20
E1A0
0060
ENDCHAR
STARTCHAR 3149
ENCODING 12617
SWIDTH 960 0
DWIDTH 12 0
BBX 15 12 -1 -2
BITMAP
0908
0490
04E0
3FB8
2108
2110
1FE0
0700
1A80
2480
C460
0400
ENDCHAR
STARTCHAR 314a
ENCODING 12618
SWIDTH 960 0
DWIDTH 12 0
BBX 15 12 -1 -2
BITMAP
0180
0040
0000
0710
01A0
3FC0
0A80
0A40
3220
C420
0400
0C00
ENDCHAR
STARTCHAR 314b
ENCODING 12619
SWIDTH 960 0
DWIDTH 12 0
BBX 15 12 -1 -2
BITMAP
0860
0410
0000
21C8
1070
0760
02C0
12A0
2490
5910
8100
8300
ENDCHAR
STARTCHAR 314c
ENCODING 12620
SWIDTH 960 0
DWIDTH 12 0
BBX 15 12 -1 -2
BITMAP
0840
0440
07F8
2490
17F0
0490
0FE0
1100
21C0
4100
86A0
9860
ENDCHAR
STARTCHAR 314d
ENCODING 12621
SWIDTH 960 0
DWIDTH 12 0
BBX 15 12 -1 -2
BITMAP
0090
1FFC
0890
1160
13F0
3E50
24A0
2FF0
3980
C280
0440
1820
ENDCHAR
STARTCHAR 314e
ENCODING 12622
SWIDTH 960 0
DWIDTH 12 0
BBX 15 12 -1 -2
BITMAP
0000
0FE0
0220
07F0
0A90
1B10
2520
40C0
7FC0
4A40
4A40
FFE0
ENDCHAR
STARTCHAR 314f
ENCODING 12623
SWIDTH 960 0
DWIDTH 12 0
BBX 15 12 -1 -2
BITMAP
1000
1EFC
1020
0E78
0088
1EF8
1110
7DF0
1110
73E0
AA40
2420
ENDCHAR
STARTCHAR 3150
ENCODING 12624
SWIDTH 960 0
DWIDTH 12 0
BBX 15 12 -1 -2
BITMAP
1000
1F7C
1020
0E78
0088
1EF8
0110
7DF0
1110
ABE0
A940
2620
ENDCHAR
STARTCHAR 3151
ENCODING 12625
SWIDTH 960 0
DWIDTH 12 0
BBX 15 12 -1 -2
BITMAP
0220
0FF8
02A0
0100
0FE0
0920
1240
7FF0
0600
0A00
3180
C060
ENDCHAR
STARTCHAR 3152
ENCODING 12626
SWIDTH 960 0
DWIDTH 12 0
BBX 15 12 -1 -2
BITMAP
0500
07DC
1940
2FC0
0CFC
1790
6220
2F20
2A20
7F40
4440
44C0
ENDCHAR
STARTCHAR 3153
ENCODING 12627
SWIDTH 960 0
DWIDTH 12 0
BBX 15 12 -1 -2
BITMAP
0E60
0010
1EE0
0048
1C70
07E0
39C0
01A0
7AA0
9D20
9100
F300
ENDCHAR
STARTCHAR 3154
ENCODING 12628
SWIDTH 960 0
DWIDTH 12 0
BBX 15 12 -1 -2
BITMAP
0488
0648
0970
31D0
1F10
0910
7FE0
1140
5D40
7280
3CA0
C860
ENDCHAR
STARTCHAR 3155
ENCODING 12629
SWIDTH 960 0
DWIDTH 12 0
BBX 15 12 -1 -2
BITMAP
0820
05FC
0120
2178
1248
02F0
0D10
35A0
46C0
4940
8A20
8C20
ENDCHAR
STARTCHAR 3156
ENCODING 12630
SWIDTH 960 0
DWIDTH 12 0
BBX 15 12 -1 -2
BITMAP
0040
07FC
14F0
1920
0928
0E18
39C0
5040
2280
2300
4580
9860
ENDCHAR
STARTCHAR 3157
ENCODING 12631
SWIDTH 960 0
DWIDTH 12 0
BBX 15 12 -1 -2
BITMAP
0410
0210
0120
3FF8
0440
0840
1040
3FE0
5550
2A80
2A80
FFE0
ENDCHAR
STARTCHAR 3158
ENCODING 12632
SWIDTH 960 0
DWIDTH 12 0
BBX 15 12 -1 -2
BITMAP
0000
1F7C
1444
3C88
28F8
3CA0
5140
7D40
0540
AA40
8A20
3410
ENDCHAR
STARTCHAR 3159
ENCODING 12633
SWIDTH 960 0
DWIDTH 12 0
BBX 15 12 -1 -2
BITMAP
0488
0450
04F0
1D10
1B10
2910
53E0
1140
1240
24A0
28A0
3060
ENDCHAR
STARTCHAR 315a
ENCODING 12634
SWIDTH 960 0
DWIDTH 12 0
BBX 15 12 -1 -2
BITMAP
0EF8
0088
1FF8
0110
1DF0
0100
39F0
0250
7F90
9AA0
93A0
F0C0
ENDCHAR
STARTCHAR 315b
ENCODING 12635
SWIDTH 960 0
DWIDTH 12 0
BBX 15 12 -1 -2
BITMAP
0210
0214
0F7C
04A0
3FA8
04B0
2F20
2970
5B90
4820
8400
83F0
ENDCHAR
STARTCHAR 315c
ENCODING 12636
SWIDTH 960 0
DWIDTH 12 0
BBX 15 12 -1 -2
BITMAP
1F7C
1144
1F7C
2288
3EF8
2288
4790
4890
4F90
8A20
93A0
A060
ENDCHAR
STARTCHAR 315d
ENCODING 12637
SWIDTH 960 0
DWIDTH 12 0
BBX 15 12 -1 -2
BITMAP
05FC
0420
04FC
3D08
09F8
0908
3BF0
31E0
5740
A980
2140
2E30
ENDCHAR
STARTCHAR 315e
ENCODING 12638
SWIDTH 960 0
DWIDTH 12 0
BBX 15 12 -1 -2
BITMAP
0000
0FFC
0A98
1728
1020
17F8
2A40
2E40
4AC0
5D40
9540
9620
ENDCHAR
STARTCHAR 315f
ENCODING 12639
SWIDTH 960 0
DWIDTH 12 0
BBX 15 12 -1 -2
BITMAP
0000
0FF8
0888
1110
1110
1FF0
2020
2020
2020
4040
4040
40C0
ENDCHAR
STARTCHAR 3160
ENCODING 12640
SWIDTH 960 0
DWIDTH 12 0
BBX 15 12 -1 -2
BITMAP
0000
0FFC
0884
17E8
1108
1FF8
2850
2FD0
2F90
7520
44A0
7FE0
ENDCHAR
STARTCHAR 3161
ENCODING 12641
SWIDTH 960 0
DWIDTH 12 0
BBX 15 12 -1 -2
BITMAP
0400
05FC
0548
0AF0
3E90
0AF0
1480
17F0
3D60
C980
0E40
0FE0
ENDCHAR
STARTCHAR 3162
ENCODING 12642
SWIDTH 960 0
DWIDTH 12 0
BBX 15 12 -1 -2
BITMAP
0080
0080
1FFC
0540
0920
3FF8
1240
1FC0
1240
3F80
0420
03E0
ENDCHAR
STARTCHAR 3163
ENCODING 12643
SWIDTH 960 0
DWIDTH 12 0
BBX 15 12 -1 -2
BITMAP
0080
1FFC
13E4
2448
07C0
0440
0F80
0400
7FF0
3100
0E00
7180
ENDCHAR
STARTCHAR 3164
ENCODING 12644
SWIDTH 960 0
DWIDTH 12 0
BBX 15 12 -1 -2
BITMAP
000C
1EF0
0420
0840
1178
1D40
0A80
2A80
3280
3FE0
4C00
83F0
ENDCHAR
STARTCHAR 3165
ENCODING 12645
SWIDTH 960 0
DWIDTH 12 0
BBX 15 12 -1 -2
BITMAP
0400
0778
1948
2A90
04B0
1888
6070
0200
2A20
5220
90A0
0F80
ENDCHAR
STARTCHAR 3166
ENCODING 12646
SWIDTH 960 0
DWIDTH 12 0
BBX 15 12 -1 -2
BITMAP
0420
0420
07FE
3D50
0A48
0FF4
1AA0
73E0
12A0
27C0
2110
60F0
ENDCHAR
STARTCHAR 3167
ENCODING 12647
SWIDTH 960 0
DWIDTH 12 0
BBX 15 12 -1 -2
BITMAP
041C
05E8
07D0
3D60
0BF0
0900
1FF0
7200
17E0
2A40
3180
6E60
ENDCHAR
STARTCHAR 3168
ENCODING 12648
SWIDTH 960 0
DWIDTH 12 0
BBX 15 12 -1 -2
BITMAP
08A0
04A0
0120
0120
2220
1C10
17D0
1440
2440
4880
8880
8F80
ENDCHAR
STARTCHAR 3169
ENCODING 12649
SWIDTH 960 0
DWIDTH 12 0
BBX 15 12 -1 -2
BITMAP
1040
0FFC
0408
03F0
2080
17F0
0920
1FE0
2920
5FC0
8840
B020
ENDCHAR
STARTCHAR 316a
ENCODING 12650
SWIDTH 960 0
DWIDTH 12 0
BBX 15 12 -1 -2
BITMAP
0080
0288
0490
0180
0660
1210
0A00
0A20
17C0
0900
3080
C060
ENDCHAR
STARTCHAR 316b
ENCODING 12651
SWIDTH 960 0
DWIDTH 12 0
BBX 15 12 -1 -2
BITMAP
0410
041C
0468
1A10
2C20
2978
1290
1290
2AF0
4D20
8520
05E0
ENDCHAR
STARTCHAR 316c
ENCODING 12652
SWIDTH 960 0
DWIDTH 12 0
BBX 15 12 -1 -2
BITMAP
0400
05FC
0450
1BF8
2EA8
2AA8
17F0
1080
2BE0
4D00
8100
0FE0
ENDCHAR
STARTCHAR 316d
ENCODING 12653
SWIDTH 960 0
DWIDTH 12 0
BBX 15 12 -1 -2
BITMAP
0140
1FFC
0140
0BA0
0838
3BA0
1550
7750
1070
2A40
4920
8920
ENDCHAR
STARTCHAR 316e
ENCODING 12654
SWIDTH 960 0
DWIDTH 12 0
BBX 15 12 -1 -2
BITMAP
1220
0DFC
1820
2FFC
09F0
0920
33F0
5190
12A0
3CA0
2540
CE20
ENDCHAR
STARTCHAR 316f
ENCODING 12655
SWIDTH 960 0
DWIDTH 12 0
BBX 15 12 -1 -2
BITMAP
04F0
0410
1CF0
1420
09F8
35D0
5EA0
1140
5EE0
AAA0
A480
2180
ENDCHAR
STARTCHAR 3170
ENCODING 12656
SWIDTH 960 0
DWIDTH 12 0
BBX 15 12 -1 -2
BITMAP
0510
1FDC
1568
3FF8
2AA8
3FA8
3DF0
2500
3D00
5220
3E20
E1E0
ENDCHAR
STARTCHAR 3171
ENCODING 12657
SWIDTH 960 0
DWIDTH 12 0
BBX 15 12 -1 -2
BITMAP
0220
1FFC
0220
0400
0EF0
1290
2520
3520
5DC0
1220
2220
41E0
ENDCHAR
STARTCHAR 3172
ENCODING 12658
SWIDTH 960 0
DWIDTH 12 0
BBX 15 12 -1 -2
BITMAP
0220
1FFC
0220
1FF8
13C8
1FF8
2850
2FD0
2590
7920
4CA0
7FE0
ENDCHAR
STARTCHAR 3173
ENCODING 12659
SWIDTH 960 0
DWIDTH 12 0
BBX 15 12 -1 -2
BITMAP
0040
09F8
0440
03F8
03F0
3A10
17E0
13A0
1D40
3220
5B00
87F0
ENDCHAR
STARTCHAR 3174
ENCODING 12660
SWIDTH 960 0
DWIDTH 12 0
BBX 15 12 -1 -2
BITMAP
0450
0450
0A90
1310
3E10
0818
7FE0
1220
5A20
6440
3C40
E7C0
ENDCHAR
STARTCHAR 3175
ENCODING 12661
SWIDTH 960 0
DWIDTH 12 0
BBX 15 12 -1 -2
BITMAP
03BC
04A4
132C
0E20
3938
0FE0
1040
1FE0
1000
3FE0
5520
A4C0
ENDCHAR
STARTCHAR 3176
ENCODING 12662
SWIDTH 960 0
DWIDTH 12 0
BBX 15 12 -1 -2
BITMAP
0480
04FC
0700
3DF0
0910
09F0
1000
3FF0
6550
0AA0
0AA0
3FF0
ENDCHAR
STARTCHAR 3177
ENCODING 12663
SWIDTH 960 0
DWIDTH 12 0
BBX 15 12 -1 -2
BITMAP
0420
0420
1F60
08A0
0910
0E48
1440
1500
2480
4880
8840
3040
ENDCHAR
STARTCHAR 3178
ENCODING 12664
SWIDTH 960 0
DWIDTH 12 0
BBX 15 12 -1 -2
BITMAP
0800
05F8
0040
2080
17F8
0200
03E0
1420
2420
4040
8040
8180
ENDCHAR
STARTCHAR 3179
ENCODING 12665
SWIDTH 960 0
DWIDTH 12 0
BBX 15 12 -1 -2
BITMAP
0200
0AFC
0AA4
1FF8
2548
07F8
3C80
0BF0
0890
3920
C220
0CC0
ENDCHAR
STARTCHAR 317a
ENCODING 12666
SWIDTH 960 0
DWIDTH 12 0
BBX 15 12 -1 -2
BITMAP
0000
1E3C
1224
2448
2448
2448
4F90
4010
4010
8020
FFE0
0000
ENDCHAR
STARTCHAR 317b
ENCODING 12667
SWIDTH 960 0
DWIDTH 12 0
BBX 15 12 -1 -2
BITMAP
0080
0080
07F0
0920
0920
0920
7FF0
0600
0900
1100
2080
C060
ENDCHAR
STARTCHAR 317c
ENCODING 12668
SWIDTH 960 0
DWIDTH 12 0
BBX 15 12 -1 -2
BITMAP
0100
0200
0FF8
1550
1390
1FF0
2AA0
3260
7FF0
0A00
3180
C060
ENDCHAR
STARTCHAR 317d
ENCODING 12669
SWIDTH 960 0
DWIDTH 12 0
BBX 15 12 -1 -2
BITMAP
0440
0420
0FFC
1440
2440
0840
13E0
3080
5080
2100
2100
2FE0
ENDCHAR
STARTCHAR 317e
ENCODING 12670
SWIDTH 960 0
DWIDTH 12 0
BBX 15 12 -1 -2
BITMAP
0080
0080
0FFC
1080
1040
1140
2A20
2A10
3210
5480
A480
0380
ENDCHAR
STARTCHAR 3221
ENCODING 12833
SWIDTH 960 0
DWIDTH 12 0
BBX 15 12 -1 -2
BITMAP
0400
05FC
0524
3E48
0BF8
0A48
1C90
77F0
1080
2100
2100
6100
ENDCHAR
STARTCHAR 3222
ENCODING 12834
SWIDTH 960 0
DWIDTH 12 0
BBX 15 12 -1 -2
BITMAP
0000
1FFC
1220
2440
2440
3C40
4FE0
4880
4880
F100
0100
1FE0
ENDCHAR
STARTCHAR 3223
ENCODING 12835
SWIDTH 960 0
DWIDTH 12 0
BBX 15 12 -1 -2
BITMAP
0448
04FC
1E48
09FC
0840
19F8
3A90
37F0
5290
A7E0
2240
2C20
ENDCHAR
STARTCHAR 3224
ENCODING 12836
SWIDTH 960 0
DWIDTH 12 0
BBX 15 12 -1 -2
BITMAP
0040
1F40
1040
32F8
2AA8
2E30
4A40
5440
64C0
8140
FA40
0C20
ENDCHAR
STARTCHAR 3225
ENCODING 12837
SWIDTH 960 0
DWIDTH 12 0
BBX 15 12 -1 -2
BITMAP
0070
1F50
1050
3298
2B18
2CF0
4820
5520
64C0
8080
FB40
0C20
ENDCHAR
STARTCHAR 3226
ENCODING 12838
SWIDTH 960 0
DWIDTH 12 0
BBX 15 12 -1 -2
BITMAP
0000
0FF8
0080
0100
0100
0100
1FC0
0200
0200
0400
0400
FFE0
ENDCHAR
STARTCHAR 3227
ENCODING 12839
SWIDTH 960 0
DWIDTH 12 0
BBX 15 12 -1 -2
BITMAP
0120
0290
0D08
3244
0FE0
0010
7FF0
2490
2450
38E0
CB20
1860
ENDCHAR
STARTCHAR 3228
ENCODING 12840
SWIDTH 960 0
DWIDTH 12 0
BBX 15 12 -1 -2
BITMAP
0420
04FC
1CDC
0568
05F8
09E8
3770
5A50
1440
23F0
2140
2E30
ENDCHAR
STARTCHAR 3229
ENCODING 12841
SWIDTH 960 0
DWIDTH 12 0
BBX 15 12 -1 -2
BITMAP
0510
02A0
1FFC
2208
0FC0
0840
1FF0
1000
1FE0
1540
4A40
8180
ENDCHAR
STARTCHAR 322a
ENCODING 12842
SWIDTH 960 0
DWIDTH 12 0
BBX 15 12 -1 -2
BITMAP
0020
1F78
1048
22F0
3290
2CF8
4900
55F0
65B0
82E0
FC20
80C0
ENDCHAR
STARTCHAR 322b
ENCODING 12843
SWIDTH 960 0
DWIDTH 12 0
BBX 15 12 -1 -2
BITMAP
0220
0FF8
0220
3FF8
0100
0FE0
1240
1FC0
1240
3F80
1180
E060
ENDCHAR
STARTCHAR 322c
ENCODING 12844
SWIDTH 960 0
DWIDTH 12 0
BBX 15 12 -1 -2
BITMAP
0000
1FFC
1224
2248
2288
3FF8
4210
5250
5250
BFA0
8020
8060
ENDCHAR
STARTCHAR 322d
ENCODING 12845
SWIDTH 960 0
DWIDTH 12 0
BBX 15 12 -1 -2
BITMAP
0820
0420
01FC
2248
1248
0248
07F0
1080
2080
4100
8100
8100
ENDCHAR
STARTCHAR 322e
ENCODING 12846
SWIDTH 960 0
DWIDTH 12 0
BBX 15 12 -1 -2
BITMAP
0220
1FFC
0220
0440
2850
3160
52C0
1A80
6B80
9280
1440
6820
ENDCHAR
STARTCHAR 322f
ENCODING 12847
SWIDTH 960 0
DWIDTH 12 0
BBX 15 12 -1 -2
BITMAP
0420
05F8
0890
0FF8
1210
13F0
6420
27E0
2F00
5540
64A0
4380
ENDCHAR
STARTCHAR 3230
ENCODING 12848
SWIDTH 960 0
DWIDTH 12 0
BBX 15 12 -1 -2
BITMAP
07F8
0408
07F8
0800
0FF8
0B40
1460
1F90
2100
5FC0
8200
7FE0
ENDCHAR
STARTCHAR 3231
ENCODING 12849
SWIDTH 960 0
DWIDTH 12 0
BBX 15 12 -1 -2
BITMAP
0440
05F8
0490
0FF8
1A10
3BF0
5420
17E0
1280
2CC0
34A0
23A0
ENDCHAR
STARTCHAR 3232
ENCODING 12850
SWIDTH 960 0
DWIDTH 12 0
BBX 15 12 -1 -2
BITMAP
0020
1DF8
1490
2FF8
3A10
2BF0
5420
77E0
5280
ACC0
B4A0
A3A0
ENDCHAR
STARTCHAR 3233
ENCODING 12851
SWIDTH 960 0
DWIDTH 12 0
BBX 15 12 -1 -2
BITMAP
05F8
0490
0460
3FF8
0A48
1A48
3FF0
3490
57F0
A920
2920
2960
ENDCHAR
STARTCHAR 3234
ENCODING 12852
SWIDTH 960 0
DWIDTH 12 0
BBX 15 12 -1 -2
BITMAP
0220
0A20
0A20
1E40
25F8
0440
0C80
7880
0880
1100
1100
1FF0
ENDCHAR
STARTCHAR 3235
ENCODING 12853
SWIDTH 960 0
DWIDTH 12 0
BBX 15 12 -1 -2
BITMAP
0000
07F0
0020
0040
0080
0300
0400
0800
1000
2020
4020
3FE0
ENDCHAR
STARTCHAR 3236
ENCODING 12854
SWIDTH 960 0
DWIDTH 12 0
BBX 15 12 -1 -2
BITMAP
0440
0440
0FFC
1140
32B0
1FE8
3540
27C0
2540
4F80
4220
41E0
ENDCHAR
STARTCHAR 3237
ENCODING 12855
SWIDTH 960 0
DWIDTH 12 0
BBX 15 12 -1 -2
BITMAP
0400
07BC
0C24
3448
1FC8
0448
2E90
2890
28E0
5D00
E100
0100
ENDCHAR
STARTCHAR 3238
ENCODING 12856
SWIDTH 960 0
DWIDTH 12 0
BBX 15 12 -1 -2
BITMAP
0000
0FF8
0888
1FF0
1290
1C70
3FE0
0A00
2A20
5220
90A0
0F80
ENDCHAR
STARTCHAR 3239
ENCODING 12857
SWIDTH 960 0
DWIDTH 12 0
BBX 15 12 -1 -2
BITMAP
0800
05F0
0110
23E0
1220
03E0
0000
1FE0
2AA0
5540
9540
BFE0
ENDCHAR
STARTCHAR 323a
ENCODING 12858
SWIDTH 960 0
DWIDTH 12 0
BBX 15 12 -1 -2
BITMAP
063C
1DC8
0550
0960
3FF0
0810
3BE0
3020
57E0
AB40
2AA0
29E0
ENDCHAR
STARTCHAR 323b
ENCODING 12859
SWIDTH 960 0
DWIDTH 12 0
BBX 15 12 -1 -2
BITMAP
0080
0FF8
0260
0280
3FF8
0000
0FC0
0840
0FC0
1080
1080
1F80
ENDCHAR
STARTCHAR 323c
ENCODING 12860
SWIDTH 960 0
DWIDTH 12 0
BBX 15 12 -1 -2
BITMAP
0000
1FFC
0080
0100
01C0
0120
0220
0200
0200
0400
0400
0400
ENDCHAR
STARTCHAR 323d
ENCODING 12861
SWIDTH 960 0
DWIDTH 12 0
BBX 15 12 -1 -2
BITMAP
0240
0240
0448
0490
08A0
38C0
5100
1100
1100
2220
2220
21E0
ENDCHAR
STARTCHAR 323e
ENCODING 12862
SWIDTH 960 0
DWIDTH 12 0
BBX 15 12 -1 -2
BITMAP
0200
02FC
0480
0500
09F0
39A0
52A0
12C0
1440
2980
3240
2C20
ENDCHAR
STARTCHAR 323f
ENCODING 12863
SWIDTH 960 0
DWIDTH 12 0
BBX 15 12 -1 -2
BITMAP
0200
03FE
0408
0410
0BD0
3A50
54A0
14A0
17A0
2040
2040
20C0
ENDCHAR
STARTCHAR 3240
ENCODING 12864
SWIDTH 960 0
DWIDTH 12 0
BBX 15 12 -1 -2
BITMAP
0500
0500
051C
0FA8
12A8
32A8
2550
2550
2950
52A0
62E0
4C00
ENDCHAR
STARTCHAR 3241
ENCODING 12865
SWIDTH 960 0
DWIDTH 12 0
BBX 15 12 -1 -2
BITMAP
0200
03FC
0450
04A0
0BF8
3AA8
5550
1550
1550
2AA0
2FE0
2800
ENDCHAR
STARTCHAR 3242
ENCODING 12866
SWIDTH 960 0
DWIDTH 12 0
BBX 15 12 -1 -2
BITMAP
0440
0440
07F8
0880
1080
37F8
2100
2100
2FE0
4200
4200
7FE0
ENDCHAR
STARTCHAR 3243
ENCODING 12867
SWIDTH 960 0
DWIDTH 12 0
BBX 15 12 -1 -2
BITMAP
0400
0400
043C
3F48
0948
0948
1290
1290
2290
2520
45E0
9800
ENDCHAR
STARTCHAR 3244
ENCODING 12868
SWIDTH 960 0
DWIDTH 12 0
BBX 15 12 -1 -2
BITMAP
0000
1FFC
0010
0FA0
08A0
08A0
1140
1F40
1040
0080
0080
0180
ENDCHAR
STARTCHAR 3245
ENCODING 12869
SWIDTH 960 0
DWIDTH 12 0
BBX 15 12 -1 -2
BITMAP
0080
1FFC
0080
0FE0
0820
1FF0
0480
7FF0
0800
FBE0
2A20
DBE0
ENDCHAR
STARTCHAR 3246
ENCODING 12870
SWIDTH 960 0
DWIDTH 12 0
BBX 15 12 -1 -2
BITMAP
0000
1FFC
0100
0FE0
0820
0FE0
1040
1FC0
0F80
7100
0E00
F1E0
ENDCHAR
STARTCHAR 3247
ENCODING 12871
SWIDTH 960 0
DWIDTH 12 0
BBX 15 12 -1 -2
BITMAP
0820
09FC
0B08
3CF0
1440
17D8
2960
4EC0
7B60
24A0
4080
8300
ENDCHAR
STARTCHAR 3248
ENCODING 12872
SWIDTH 960 0
DWIDTH 12 0
BBX 15 12 -1 -2
BITMAP
0080
1FFC
1004
2FE8
0200
0D60
35A0
0B40
2D40
1240
6220
0C00
ENDCHAR
STARTCHAR 3249
ENCODING 12873
SWIDTH 960 0
DWIDTH 12 0
BBX 15 12 -1 -2
BITMAP
0080
1FFC
1104
23C8
0440
07C0
0880
7FF0
3460
DF90
0880
3300
ENDCHAR
STARTCHAR 324a
ENCODING 12874
SWIDTH 960 0
DWIDTH 12 0
BBX 15 12 -1 -2
BITMAP
0308
1C48
0428
0810
3E90
0C50
3420
3078
53A0
2040
2040
2040
ENDCHAR
STARTCHAR 324b
ENCODING 12875
SWIDTH 960 0
DWIDTH 12 0
BBX 15 12 -1 -2
BITMAP
01DC
1D44
1544
2BB8
2A00
3AF8
5710
5450
5460
EE40
08A0
0910
ENDCHAR
STARTCHAR 324c
ENCODING 12876
SWIDTH 960 0
DWIDTH 12 0
BBX 15 12 -1 -2
BITMAP
0000
07F8
0488
0FF0
0910
0FF0
0200
3FF0
0F00
3480
C460
0400
ENDCHAR
STARTCHAR 324d
ENCODING 12877
SWIDTH 960 0
DWIDTH 12 0
BBX 15 12 -1 -2
BITMAP
0400
1F78
0548
0A90
1290
2DF0
0200
7FF0
0F00
3480
C460
0400
ENDCHAR
STARTCHAR 324e
ENCODING 12878
SWIDTH 960 0
DWIDTH 12 0
BBX 15 12 -1 -2
BITMAP
0020
1FA0
1D3C
2A68
3AB0
0320
7C40
04C0
7540
AA40
EC20
1810
ENDCHAR
STARTCHAR 324f
ENCODING 12879
SWIDTH 960 0
DWIDTH 12 0
BBX 15 12 -1 -2
BITMAP
0800
05FC
0008
2010
13D0
0250
04A0
17A0
2020
4040
8040
80C0
ENDCHAR
STARTCHAR 3250
ENCODING 12880
SWIDTH 960 0
DWIDTH 12 0
BBX 15 12 -1 -2
BITMAP
0080
0080
0088
0910
0920
1140
2200
0300
0500
0900
3080
C060
ENDCHAR
STARTCHAR 3251
ENCODING 12881
SWIDTH 960 0
DWIDTH 12 0
BBX 15 12 -1 -2
BITMAP
0000
01FC
1E08
09D0
0950
0950
7AA0
13A0
1020
3040
C040
00C0
ENDCHAR
STARTCHAR 3252
ENCODING 12882
SWIDTH 960 0
DWIDTH 12 0
BBX 15 12 -1 -2
BITMAP
04F8
0488
1CB8
0550
0950
0BF0
3C10
55D0
1550
2AA0
2BA0
2860
ENDCHAR
STARTCHAR 3253
ENCODING 12883
SWIDTH 960 0
DWIDTH 12 0
BBX 15 12 -1 -2
BITMAP
0030
0FC0
0080
0100
3FF8
0100
0700
0A80
3240
C420
0400
0400
ENDCHAR
STARTCHAR 3254
ENCODING 12884
SWIDTH 960 0
DWIDTH 12 0
BBX 15 12 -1 -2
BITMAP
0620
1DFC
0508
0BF0
3E80
0D98
36A0
59C0
5EA0
3120
2100
2600
ENDCHAR
STARTCHAR 3255
ENCODING 12885
SWIDTH 960 0
DWIDTH 12 0
BBX 15 12 -1 -2
BITMAP
0420
0F7C
1290
1FF8
1108
17E8
2210
2FD0
2850
5FA0
4020
7FE0
ENDCHAR
STARTCHAR 3256
ENCODING 12886
SWIDTH 960 0
DWIDTH 12 0
BBX 15 12 -1 -2
BITMAP
0220
0220
1FFC
0640
0280
0498
1960
2980
4900
1220
1220
11E0
ENDCHAR
STARTCHAR 3257
ENCODING 12887
SWIDTH 960 0
DWIDTH 12 0
BBX 15 12 -1 -2
BITMAP
0220
1FFC
0220
0000
3FF8
0020
1F40
1140
1140
3E80
0080
0180
ENDCHAR
STARTCHAR 3258
ENCODING 12888
SWIDTH 960 0
DWIDTH 12 0
BBX 15 12 -1 -2
BITMAP
0220
1FFC
0220
0440
0878
3F48
1290
1290
2290
2520
45E0
9800
ENDCHAR
STARTCHAR 3259
ENCODING 12889
SWIDTH 960 0
DWIDTH 12 0
BBX 15 12 -1 -2
BITMAP
0220
1FFC
0120
0800
0FF8
1020
2F40
6940
2940
5E80
4080
4180
ENDCHAR
STARTCHAR 325a
ENCODING 12890
SWIDTH 960 0
DWIDTH 12 0
BBX 15 12 -1 -2
BITMAP
0220
1FFC
0220
1FF0
0920
3FF8
1240
3FE0
0200
FFE0
0400
0400
ENDCHAR
STARTCHAR 325b
ENCODING 12891
SWIDTH 960 0
DWIDTH 12 0
BBX 15 12 -1 -2
BITMAP
0220
1FFC
0220
07E0
0920
0FE0
1240
7FF0
0F00
3480
C460
0400
ENDCHAR
STARTCHAR 325c
ENCODING 12892
SWIDTH 960 0
DWIDTH 12 0
BBX 15 12 -1 -2
BITMAP
0400
04FC
04A4
3FD8
2B00
2B78
7F90
1250
1A60
2F40
3CA0
C520
ENDCHAR
STARTCHAR 325d
ENCODING 12893
SWIDTH 960 0
DWIDTH 12 0
BBX 15 12 -1 -2
BITMAP
0EFC
00A4
1EFC
0148
1D48
01F8
3880
07F0
7BC0
9540
9920
F100
ENDCHAR
STARTCHAR 325e
ENCODING 12894
SWIDTH 960 0
DWIDTH 12 0
BBX 15 12 -1 -2
BITMAP
0110
07FC
1D10
2FF0
2AA0
2FF8
5540
5FE0
7100
3FE0
0200
0200
ENDCHAR
STARTCHAR 325f
ENCODING 12895
SWIDTH 960 0
DWIDTH 12 0
BBX 15 12 -1 -2
BITMAP
014C
0670
1244
0FF8
0820
0FE0
1040
1FC0
1040
3F80
3180
C040
ENDCHAR
STARTCHAR 3260
ENCODING 12896
SWIDTH 960 0
DWIDTH 12 0
BBX 15 12 -1 -2
BITMAP
0100
091C
07D4
02A8
02A8
3AA8
1550
1550
1D70
3600
5800
87F0
ENDCHAR
STARTCHAR 3261
ENCODING 12897
SWIDTH 960 0
DWIDTH 12 0
BBX 15 12 -1 -2
BITMAP
00F8
0888
04B8
0150
03F8
3A08
15D0
1550
15D0
1860
4800
87F0
ENDCHAR
STARTCHAR 3262
ENCODING 12898
SWIDTH 960 0
DWIDTH 12 0
BBX 15 12 -1 -2
BITMAP
0FF8
0080
1FFC
2108
2D68
0000
3DE0
2420
3DE0
4140
7880
4360
ENDCHAR
STARTCHAR 3263
ENCODING 12899
SWIDTH 960 0
DWIDTH 12 0
BBX 15 12 -1 -2
BITMAP
0420
0420
05FC
3E90
2A90
2AA0
7CC0
1880
1580
3A80
C440
0820
ENDCHAR
STARTCHAR 3264
ENCODING 12900
SWIDTH 960 0
DWIDTH 12 0
BBX 15 12 -1 -2
BITMAP
04A0
0728
0524
0A40
1FF8
1240
66A0
24A0
3C40
6960
4A20
5820
ENDCHAR
STARTCHAR 3265
ENCODING 12901
SWIDTH 960 0
DWIDTH 12 0
BBX 15 12 -1 -2
BITMAP
0050
0598
0494
0920
0BF8
2B20
5750
5650
5620
FCC0
0560
0C20
ENDCHAR
STARTCHAR 3266
ENCODING 12902
SWIDTH 960 0
DWIDTH 12 0
BBX 15 12 -1 -2
BITMAP
0140
0E50
0248
0480
3FF8
0490
0920
0EA0
79C0
1260
1420
3020
ENDCHAR
STARTCHAR 3267
ENCODING 12903
SWIDTH 960 0
DWIDTH 12 0
BBX 15 12 -1 -2
BITMAP
0000
03F8
0220
0440
0440
3FF8
0180
0280
0C80
3100
C100
0300
ENDCHAR
STARTCHAR 3268
ENCODING 12904
SWIDTH 960 0
DWIDTH 12 0
BBX 15 12 -1 -2
BITMAP
0000
1FFC
0080
0FE0
2928
2928
5FD0
5250
5250
BFA0
8020
FFE0
ENDCHAR
STARTCHAR 3269
ENCODING 12905
SWIDTH 960 0
DWIDTH 12 0
BBX 15 12 -1 -2
BITMAP
0010
1F90
1210
2420
3F20
2120
7E40
48A0
48A0
9120
FE20
0410
ENDCHAR
STARTCHAR 326a
ENCODING 12906
SWIDTH 960 0
DWIDTH 12 0
BBX 15 12 -1 -2
BITMAP
0220
1FFC
0220
1FF8
0840
0840
7FF0
0280
0C80
3100
C100
0300
ENDCHAR
STARTCHAR 326b
ENCODING 12907
SWIDTH 960 0
DWIDTH 12 0
BBX 15 12 -1 -2
BITMAP
0050
0598
0494
3F20
2BF8
2B20
7F50
1250
1E20
34C0
C560
0C20
ENDCHAR
STARTCHAR 326c
ENCODING 12908
SWIDTH 960 0
DWIDTH 12 0
BBX 15 12 -1 -2
BITMAP
0400
1F7C
0D44
1288
26F8
0FE0
1040
1FC0
1040
3F80
1100
E0C0
ENDCHAR
STARTCHAR 326d
ENCODING 12909
SWIDTH 960 0
DWIDTH 12 0
BBX 15 12 -1 -2
BITMAP
0048
1F50
0BFC
1520
3F20
05F0
1A40
1A40
2BE0
D480
1480
37E0
ENDCHAR
STARTCHAR 326e
ENCODING 12910
SWIDTH 960 0
DWIDTH 12 0
BBX 15 12 -1 -2
BITMAP
0450
0698
0B94
3D20
17F8
1D20
2B50
3E50
2220
54C0
5D60
EC20
ENDCHAR
STARTCHAR 326f
ENCODING 12911
SWIDTH 960 0
DWIDTH 12 0
BBX 15 12 -1 -2
BITMAP
0400
1F7C
0D44
12F8
2600
0FF0
1200
1FC0
1200
3FE0
4AA0
90C0
ENDCHAR
STARTCHAR 3270
ENCODING 12912
SWIDTH 960 0
DWIDTH 12 0
BBX 15 12 -1 -2
BITMAP
0080
0080
0140
0640
0820
3858
0880
0880
1080
1100
2100
4100
ENDCHAR
STARTCHAR 3271
ENCODING 12913
SWIDTH 960 0
DWIDTH 12 0
BBX 15 12 -1 -2
BITMAP
0080
0080
0140
0640
0FE0
3018
0000
3FE0
0D00
1300
7C80
0080
ENDCHAR
STARTCHAR 3272
ENCODING 12914
SWIDTH 960 0
DWIDTH 12 0
BBX 15 12 -1 -2
BITMAP
0400
07FC
0B24
3488
1F30
15F8
3F40
2A40
3FF8
4480
4480
8C80
ENDCHAR
STARTCHAR 3273
ENCODING 12915
SWIDTH 960 0
DWIDTH 12 0
BBX 15 12 -1 -2
BITMAP
0000
0FFC
0804
1008
13C8
1248
2490
2790
2010
4020
7FE0
0000
ENDCHAR
STARTCHAR 3274
ENCODING 12916
SWIDTH 960 0
DWIDTH 12 0
BBX 15 12 -1 -2
BITMAP
0420
0440
05F8
3E50
0BF0
0A50
17E0
11A0
3FD0
C5E0
0920
30E0
ENDCHAR
STARTCHAR 3275
ENCODING 12917
SWIDTH 960 0
DWIDTH 12 0
BBX 15 12 -1 -2
BITMAP
0020
05FC
0420
0BF8
3EA8
0BF8
1080
1FF8
3EA0
D480
2740
0C20
ENDCHAR
STARTCHAR 3276
ENCODING 12918
SWIDTH 960 0
DWIDTH 12 0
BBX 15 12 -1 -2
BITMAP
0000
1DFC
0504
0AE8
12A8
32A8
15D0
5410
37F0
1000
4800
87E0
ENDCHAR
STARTCHAR 3277
ENCODING 12919
SWIDTH 960 0
DWIDTH 12 0
BBX 15 12 -1 -2
BITMAP
0440
0440
05F8
0890
1C90
3BF8
5100
1180
1380
2480
2840
3020
ENDCHAR
STARTCHAR 3278
ENCODING 12920
SWIDTH 960 0
DWIDTH 12 0
BBX 15 12 -1 -2
BITMAP
05F8
0488
0470
0840
1CA0
3B18
5080
1080
17E0
2100
2100
3FE0
ENDCHAR
STARTCHAR 3279
ENCODING 12921
SWIDTH 960 0
DWIDTH 12 0
BBX 15 12 -1 -2
BITMAP
0440
047C
0480
0BF0
1950
3E50
53F0
14A0
14A0
2FE0
2040
2180
ENDCHAR
STARTCHAR 327a
ENCODING 12922
SWIDTH 960 0
DWIDTH 12 0
BBX 15 12 -1 -2
BITMAP
0400
04FC
0490
0928
1968
1DF0
3740
5240
14C0
2540
3640
3820
ENDCHAR
STARTCHAR 327b
ENCODING 12923
SWIDTH 960 0
DWIDTH 12 0
BBX 15 12 -1 -2
BITMAP
0420
05FC
0420
0FF8
1AA8
3BF8
5080
1FF8
12E0
2C80
3740
2C20
ENDCHAR
STARTCHAR 327c
ENCODING 12924
SWIDTH 960 0
DWIDTH 12 0
BBX 15 12 -1 -2
BITMAP
0050
0048
1FFC
0080
0A90
0AA0
7EA0
14C0
2580
4AA0
8C60
0820
ENDCHAR
STARTCHAR 327d
ENCODING 12925
SWIDTH 960 0
DWIDTH 12 0
BBX 15 12 -1 -2
BITMAP
0400
04FC
0484
3D08
09F8
0800
1FF0
7090
1110
2220
2420
68C0
ENDCHAR
STARTCHAR 327e
ENCODING 12926
SWIDTH 960 0
DWIDTH 12 0
BBX 15 12 -1 -2
BITMAP
0040
1F40
017C
0290
3F10
2120
4540
4080
4580
3A80
0440
1820
ENDCHAR
STARTCHAR 3321
ENCODING 13089
SWIDTH 960 0
DWIDTH 12 0
BBX 15 12 -1 -2
BITMAP
0408
0808
1F68
2A90
3E50
2A90
7A30
1BE0
1D20
3E20
5120
8FE0
ENDCHAR
STARTCHAR 3322
ENCODING 13090
SWIDTH 960 0
DWIDTH 12 0
BBX 15 12 -1 -2
BITMAP
0080
1CFC
1480
2BF0
2D50
3950
5FF0
54A0
54A0
EFE0
0040
0180
ENDCHAR
STARTCHAR 3323
ENCODING 13091
SWIDTH 960 0
DWIDTH 12 0
BBX 15 12 -1 -2
BITMAP
040C
040A
07FE
3C10
0950
1D50
37E8
32A8
54A0
A8F0
3090
2110
ENDCHAR
STARTCHAR 3324
ENCODING 13092
SWIDTH 960 0
DWIDTH 12 0
BBX 15 12 -1 -2
BITMAP
0880
04FC
0080
23F0
1550
0250
03F0
14A0
24A0
4FE0
8040
8180
ENDCHAR
STARTCHAR 3325
ENCODING 13093
SWIDTH 960 0
DWIDTH 12 0
BBX 15 12 -1 -2
BITMAP
0000
07FC
0440
0890
0A90
0CB0
1940
1100
2300
4500
8880
3060
ENDCHAR
STARTCHAR 3326
ENCODING 13094
SWIDTH 960 0
DWIDTH 12 0
BBX 15 12 -1 -2
BITMAP
0000
07F8
0488
0FF0
0910
0FF0
0500
10C0
68B0
0900
1100
2100
ENDCHAR
STARTCHAR 3327
ENCODING 13095
SWIDTH 960 0
DWIDTH 12 0
BBX 15 12 -1 -2
BITMAP
0840
084C
0F70
1080
1688
3B78
0400
1FC0
1040
3F80
2080
3F80
ENDCHAR
STARTCHAR 3328
ENCODING 13096
SWIDTH 960 0
DWIDTH 12 0
BBX 15 12 -1 -2
BITMAP
0420
0420
1C50
1590
0AE8
3400
5FF0
1100
5A40
A480
AF40
2040
ENDCHAR
STARTCHAR 3329
ENCODING 13097
SWIDTH 960 0
DWIDTH 12 0
BBX 15 12 -1 -2
BITMAP
0210
1FFC
0220
0340
0280
0C80
14C0
64B0
0880
0900
1100
2100
ENDCHAR
STARTCHAR 332a
ENCODING 13098
SWIDTH 960 0
DWIDTH 12 0
BBX 15 12 -1 -2
BITMAP
077C
1A14
0FE8
15B8
1F20
21F8
4640
1FC0
1240
3F80
04C0
FF20
ENDCHAR
STARTCHAR 332b
ENCODING 13099
SWIDTH 960 0
DWIDTH 12 0
BBX 15 12 -1 -2
BITMAP
1F7C
1144
1F7C
2288
3EF8
2008
5FD0
4510
5FD0
9220
A220
8260
ENDCHAR
STARTCHAR 332c
ENCODING 13100
SWIDTH 960 0
DWIDTH 12 0
BBX 15 12 -1 -2
BITMAP
0120
1D24
15F8
2A40
3248
3738
5900
57E0
7420
8FC0
8840
8FC0
ENDCHAR
STARTCHAR 332d
ENCODING 13101
SWIDTH 960 0
DWIDTH 12 0
BBX 15 12 -1 -2
BITMAP
0000
07F0
0410
0820
0FE0
0820
1FC0
1040
1040
3F80
1B00
60C0
ENDCHAR
STARTCHAR 332e
ENCODING 13102
SWIDTH 960 0
DWIDTH 12 0
BBX 15 12 -1 -2
BITMAP
0400
1578
1F48
0090
3E90
0090
7D20
4520
7D20
5240
7C40
C870
ENDCHAR
STARTCHAR 332f
ENCODING 13103
SWIDTH 960 0
DWIDTH 12 0
BBX 15 12 -1 -2
BITMAP
0220
0220
1FA0
09F8
1448
3C48
1490
2490
5910
2A20
4420
88C0
ENDCHAR
STARTCHAR 3330
ENCODING 13104
SWIDTH 960 0
DWIDTH 12 0
BBX 15 12 -1 -2
BITMAP
0420
0420
07A0
0940
1140
3A60
4AA0
0490
0880
1100
2100
4100
ENDCHAR
STARTCHAR 3331
ENCODING 13105
SWIDTH 960 0
DWIDTH 12 0
BBX 15 12 -1 -2
BITMAP
0020
0020
1FFC
2440
2490
25E0
4880
4920
4C40
F380
0640
1820
ENDCHAR
STARTCHAR 3332
ENCODING 13106
SWIDTH 960 0
DWIDTH 12 0
BBX 15 12 -1 -2
BITMAP
0080
1FFC
1084
2FE8
0100
0FE0
0200
3FE0
0000
3F80
2080
3F80
ENDCHAR
STARTCHAR 3333
ENCODING 13107
SWIDTH 960 0
DWIDTH 12 0
BBX 15 12 -1 -2
BITMAP
0888
0FF8
0000
1FF8
1080
17F0
2100
3FF0
2100
5FC0
8200
3FE0
ENDCHAR
STARTCHAR 3334
ENCODING 13108
SWIDTH 960 0
DWIDTH 12 0
BBX 15 12 -1 -2
BITMAP
0400
05DC
0554
0BA8
1EA8
3AFC
5720
1620
1560
2ED0
3950
2230
ENDCHAR
STARTCHAR 3335
ENCODING 13109
SWIDTH 960 0
DWIDTH 12 0
BBX 15 12 -1 -2
BITMAP
0400
05DC
0554
3FA8
0AA8
1AFC
3F20
3620
5560
AED0
2950
2230
ENDCHAR
STARTCHAR 3336
ENCODING 13110
SWIDTH 960 0
DWIDTH 12 0
BBX 15 12 -1 -2
BITMAP
0800
07FC
0220
25F0
1440
07F8
0880
1880
2BE0
5100
9100
AFE0
ENDCHAR
STARTCHAR 3337
ENCODING 13111
SWIDTH 960 0
DWIDTH 12 0
BBX 15 12 -1 -2
BITMAP
0000
1EF8
0488
09F0
1110
1FF8
6820
2FF0
2920
5140
7040
00C0
ENDCHAR
STARTCHAR 3338
ENCODING 13112
SWIDTH 960 0
DWIDTH 12 0
BBX 15 12 -1 -2
BITMAP
0220
1FFC
0220
0100
1FF0
0100
7FF0
0840
3FE0
2AA0
2A80
FFE0
ENDCHAR
STARTCHAR 3339
ENCODING 13113
SWIDTH 960 0
DWIDTH 12 0
BBX 15 12 -1 -2
BITMAP
0480
04BC
1BC0
2938
0910
17D0
2220
6FA0
2220
4740
5840
40C0
ENDCHAR
STARTCHAR 333a
ENCODING 13114
SWIDTH 960 0
DWIDTH 12 0
BBX 15 12 -1 -2
BITMAP
0710
0010
1FFC
0040
1C50
01A0
3AC0
0090
3F20
4C80
4940
7E20
ENDCHAR
STARTCHAR 333b
ENCODING 13115
SWIDTH 960 0
DWIDTH 12 0
BBX 15 12 -1 -2
BITMAP
04A8
06A8
0BF8
3200
3FF8
0800
3FE0
1220
5FE0
7440
3A80
C7E0
ENDCHAR
STARTCHAR 333c
ENCODING 13116
SWIDTH 960 0
DWIDTH 12 0
BBX 15 12 -1 -2
BITMAP
0F10
0910
0FFC
1B40
2140
3E90
26C0
3C90
2720
7C80
4940
5E20
ENDCHAR
STARTCHAR 333d
ENCODING 13117
SWIDTH 960 0
DWIDTH 12 0
BBX 15 12 -1 -2
BITMAP
0800
07F8
0248
27F0
1490
0490
0FE0
1100
2FE0
4200
8200
BFE0
ENDCHAR
STARTCHAR 333e
ENCODING 13118
SWIDTH 960 0
DWIDTH 12 0
BBX 15 12 -1 -2
BITMAP
0FB8
0228
1FEC
1570
1F50
27E0
42B0
7FF0
0A40
3FC0
D0A0
1F80
ENDCHAR
STARTCHAR 333f
ENCODING 13119
SWIDTH 960 0
DWIDTH 12 0
BBX 15 12 -1 -2
BITMAP
0420
0420
05F8
3E40
2A40
2BF8
7C80
1080
1FE0
2900
3900
C7E0
ENDCHAR
STARTCHAR 3340
ENCODING 13120
SWIDTH 960 0
DWIDTH 12 0
BBX 15 12 -1 -2
BITMAP
01FC
0400
04F8
0910
3F10
09F0
1220
1620
1BE0
E000
0000
1FE0
ENDCHAR
STARTCHAR 3341
ENCODING 13121
SWIDTH 960 0
DWIDTH 12 0
BBX 15 12 -1 -2
BITMAP
0420
0420
07FC
3C40
09F8
1948
3A90
3690
5290
A560
2100
2100
ENDCHAR
STARTCHAR 3342
ENCODING 13122
SWIDTH 960 0
DWIDTH 12 0
BBX 15 12 -1 -2
BITMAP
0400
047C
0440
3EF8
2AA0
2AA0
7D70
1950
1790
3D20
CA20
04C0
ENDCHAR
STARTCHAR 3343
ENCODING 13123
SWIDTH 960 0
DWIDTH 12 0
BBX 15 12 -1 -2
BITMAP
0420
0420
0A7C
1288
3EC8
0B48
7C90
1150
59D0
68A0
3020
C0C0
ENDCHAR
STARTCHAR 3344
ENCODING 13124
SWIDTH 960 0
DWIDTH 12 0
BBX 15 12 -1 -2
BITMAP
0204
0FA4
02A4
3FC8
0548
3FC8
2A90
3E90
2A90
7C20
1E20
E060
ENDCHAR
STARTCHAR 3345
ENCODING 13125
SWIDTH 960 0
DWIDTH 12 0
BBX 15 12 -1 -2
BITMAP
0088
1C88
15DC
2910
2FFC
2950
56B0
57F0
7BF0
9550
2550
0640
ENDCHAR
STARTCHAR 3346
ENCODING 13126
SWIDTH 960 0
DWIDTH 12 0
BBX 15 12 -1 -2
BITMAP
0100
01F0
0620
0A40
1180
0640
0840
1FE0
6850
1080
1080
1F80
ENDCHAR
STARTCHAR 3347
ENCODING 13127
SWIDTH 960 0
DWIDTH 12 0
BBX 15 12 -1 -2
BITMAP
0080
0FFC
0900
1FF8
1750
1560
2EC0
3EB0
2490
7F20
89C0
1900
ENDCHAR
STARTCHAR 3348
ENCODING 13128
SWIDTH 960 0
DWIDTH 12 0
BBX 15 12 -1 -2
BITMAP
0420
0420
05FC
3E00
0A40
0A40
1C80
7540
1520
26E0
3320
6020
ENDCHAR
STARTCHAR 3349
ENCODING 13129
SWIDTH 960 0
DWIDTH 12 0
BBX 15 12 -1 -2
BITMAP
0544
04A8
05F8
3E08
09F0
0910
1BE0
7220
13E0
2280
24A0
6860
ENDCHAR
STARTCHAR 334a
ENCODING 13130
SWIDTH 960 0
DWIDTH 12 0
BBX 15 12 -1 -2
BITMAP
0440
0478
0448
3D50
0A60
1890
3910
37E8
5120
A240
2240
23C0
ENDCHAR
STARTCHAR 334b
ENCODING 13131
SWIDTH 960 0
DWIDTH 12 0
BBX 15 12 -1 -2
BITMAP
0420
0420
07FC
3C80
08A0
1DC0
3680
3120
5640
A180
2240
2C20
ENDCHAR
STARTCHAR 334c
ENCODING 13132
SWIDTH 960 0
DWIDTH 12 0
BBX 15 12 -1 -2
BITMAP
0470
1F50
0450
1E98
0108
3E00
45E0
3840
2980
5900
5280
8C40
ENDCHAR
STARTCHAR 334d
ENCODING 13133
SWIDTH 960 0
DWIDTH 12 0
BBX 15 12 -1 -2
BITMAP
1290
0FFC
18A0
2920
0BF8
0E40
37F0
5480
27F0
2480
C300
5CE0
ENDCHAR
STARTCHAR 334e
ENCODING 13134
SWIDTH 960 0
DWIDTH 12 0
BBX 15 12 -1 -2
BITMAP
0020
1FFC
0544
08A0
11F8
1F20
6BE0
2A40
2BE0
5480
7480
07E0
ENDCHAR
STARTCHAR 334f
ENCODING 13135
SWIDTH 960 0
DWIDTH 12 0
BBX 15 12 -1 -2
BITMAP
0650
1DFC
0470
3CC0
09F8
1F40
3BE0
3280
57F0
A480
2300
2CE0
ENDCHAR
STARTCHAR 3350
ENCODING 13136
SWIDTH 960 0
DWIDTH 12 0
BBX 15 12 -1 -2
BITMAP
0510
02A0
1FFC
2828
2FE8
0820
1FC0
1040
1FC0
0A00
3220
C1E0
ENDCHAR
STARTCHAR 3351
ENCODING 13137
SWIDTH 960 0
DWIDTH 12 0
BBX 15 12 -1 -2
BITMAP
0100
03E0
0440
3FF0
0910
0FF0
1220
1FE0
1020
2040
2040
40C0
ENDCHAR
STARTCHAR 3352
ENCODING 13138
SWIDTH 960 0
DWIDTH 12 0
BBX 15 12 -1 -2
BITMAP
0220
0220
0FF8
0440
3FF8
0CA0
1540
3760
6550
2A80
4C80
4C80
ENDCHAR
STARTCHAR 3353
ENCODING 13139
SWIDTH 960 0
DWIDTH 12 0
BBX 15 12 -1 -2
BITMAP
0420
1E20
05FC
3EA0
2B10
3E28
5640
7D40
1180
FA80
2440
2820
ENDCHAR
STARTCHAR 3354
ENCODING 13140
SWIDTH 960 0
DWIDTH 12 0
BBX 15 12 -1 -2
BITMAP
0200
1FF8
0FA8
1150
1F60
0050
3E90
0490
7EA0
11C0
1100
3100
ENDCHAR
STARTCHAR 3355
ENCODING 13141
SWIDTH 960 0
DWIDTH 12 0
BBX 15 12 -1 -2
BITMAP
1F7C
1144
1F7C
2288
3FF8
2C88
5610
4910
7F90
D2A0
9E20
8060
ENDCHAR
STARTCHAR 3356
ENCODING 13142
SWIDTH 960 0
DWIDTH 12 0
BBX 15 12 -1 -2
BITMAP
1DFC
1400
19F8
3210
2BF0
2800
57F0
5550
7670
89A0
8920
8960
ENDCHAR
STARTCHAR 3357
ENCODING 13143
SWIDTH 960 0
DWIDTH 12 0
BBX 15 12 -1 -2
BITMAP
0220
1FFC
0220
07C0
0100
1FF0
2220
3FE0
0200
FFE0
0400
0400
ENDCHAR
STARTCHAR 3358
ENCODING 13144
SWIDTH 960 0
DWIDTH 12 0
BBX 15 12 -1 -2
BITMAP
0488
0250
1FFC
2008
27C8
0180
0200
3FF0
0200
0400
0400
0C00
ENDCHAR
STARTCHAR 3359
ENCODING 13145
SWIDTH 960 0
DWIDTH 12 0
BBX 15 12 -1 -2
BITMAP
0030
07C0
0400
0FF0
0840
0840
7FF0
0200
2220
4440
4440
7FC0
ENDCHAR
STARTCHAR 335a
ENCODING 13146
SWIDTH 960 0
DWIDTH 12 0
BBX 15 12 -1 -2
BITMAP
0100
13E4
0A28
07C0
0C70
37C8
0200
7FF0
0F00
3480
C460
0400
ENDCHAR
STARTCHAR 335b
ENCODING 13147
SWIDTH 960 0
DWIDTH 12 0
BBX 15 12 -1 -2
BITMAP
0200
1FFC
11A0
1EF8
1288
34F8
5910
25F0
7F10
4BE0
4940
7A20
ENDCHAR
STARTCHAR 335c
ENCODING 13148
SWIDTH 960 0
DWIDTH 12 0
BBX 15 12 -1 -2
BITMAP
0000
1FFC
1520
3E78
0088
1EF8
0110
7FF0
1110
7BE0
0920
3610
ENDCHAR
STARTCHAR 335d
ENCODING 13149
SWIDTH 960 0
DWIDTH 12 0
BBX 15 12 -1 -2
BITMAP
0448
0448
07E8
3C90
0BF0
0898
1928
77A8
1120
2340
2C40
6040
ENDCHAR
STARTCHAR 335e
ENCODING 13150
SWIDTH 960 0
DWIDTH 12 0
BBX 15 12 -1 -2
BITMAP
0840
0840
0FFC
1520
2240
0100
7FF0
0080
1080
1100
1200
FFE0
ENDCHAR
STARTCHAR 335f
ENCODING 13151
SWIDTH 960 0
DWIDTH 12 0
BBX 15 12 -1 -2
BITMAP
05FC
0554
05F8
3E48
0BD0
1AF0
3F90
3080
53E0
A100
2100
2FE0
ENDCHAR
STARTCHAR 3360
ENCODING 13152
SWIDTH 960 0
DWIDTH 12 0
BBX 15 12 -1 -2
BITMAP
0400
05FC
04A8
3DF0
0950
1FF0
3400
37F0
54A0
A7C0
2540
2FE0
ENDCHAR
STARTCHAR 3361
ENCODING 13153
SWIDTH 960 0
DWIDTH 12 0
BBX 15 12 -1 -2
BITMAP
0400
04FC
0484
3DF8
0900
19F8
3A40
37F0
5440
27D0
2890
2870
ENDCHAR
STARTCHAR 3362
ENCODING 13154
SWIDTH 960 0
DWIDTH 12 0
BBX 15 12 -1 -2
BITMAP
0438
07C8
0A48
1E94
2BD8
3EF8
57A0
7D20
1960
6AA0
5320
8A10
ENDCHAR
STARTCHAR 3363
ENCODING 13155
SWIDTH 960 0
DWIDTH 12 0
BBX 15 12 -1 -2
BITMAP
0840
0598
0108
03B0
2210
13F0
0200
13F0
2C10
5520
84A0
80C0
ENDCHAR
STARTCHAR 3364
ENCODING 13156
SWIDTH 960 0
DWIDTH 12 0
BBX 15 12 -1 -2
BITMAP
0204
1FE4
12E4
0F48
0448
1F48
0890
7F90
0090
7C20
4420
7C60
ENDCHAR
STARTCHAR 3365
ENCODING 13157
SWIDTH 960 0
DWIDTH 12 0
BBX 15 12 -1 -2
BITMAP
01F8
1D08
15F8
2A10
2BF0
2A00
53F0
7490
1F10
28A0
07A0
00C0
ENDCHAR
STARTCHAR 3366
ENCODING 13158
SWIDTH 960 0
DWIDTH 12 0
BBX 15 12 -1 -2
BITMAP
0420
0420
0460
08A0
1D10
3EE8
5800
13E0
1220
2440
2440
27C0
ENDCHAR
STARTCHAR 3367
ENCODING 13159
SWIDTH 960 0
DWIDTH 12 0
BBX 15 12 -1 -2
BITMAP
0418
05E0
0420
3C40
0BF8
0840
1880
73E0
1220
2440
2440
67C0
ENDCHAR
STARTCHAR 3368
ENCODING 13160
SWIDTH 960 0
DWIDTH 12 0
BBX 15 12 -1 -2
BITMAP
0818
05E0
0040
2080
17F8
0080
0100
17E0
2420
4840
8840
8FC0
ENDCHAR
STARTCHAR 3369
ENCODING 13161
SWIDTH 960 0
DWIDTH 12 0
BBX 15 12 -1 -2
BITMAP
09F8
0508
01F8
2210
13F0
0100
07F0
1A50
2310
44A0
83A0
80C0
ENDCHAR
STARTCHAR 336a
ENCODING 13162
SWIDTH 960 0
DWIDTH 12 0
BBX 15 12 -1 -2
BITMAP
08F8
0488
00B8
2150
17FC
0514
0BE8
1220
23E0
4440
8440
84C0
ENDCHAR
STARTCHAR 336b
ENCODING 13163
SWIDTH 960 0
DWIDTH 12 0
BBX 15 12 -1 -2
BITMAP
0220
1FFC
0220
07E0
0820
0FE0
1040
1FF0
3B90
DCA0
0FA0
00C0
ENDCHAR
STARTCHAR 336c
ENCODING 13164
SWIDTH 960 0
DWIDTH 12 0
BBX 15 12 -1 -2
BITMAP
04F8
0488
1CF8
0510
09F0
0E80
3BF0
5650
1B10
24A0
23A0
20C0
ENDCHAR
STARTCHAR 336d
ENCODING 13165
SWIDTH 960 0
DWIDTH 12 0
BBX 15 12 -1 -2
BITMAP
0420
1FFC
0528
3FF0
2A40
3FF0
5480
7FF0
1000
FFC0
2440
27C0
ENDCHAR
STARTCHAR 336e
ENCODING 13166
SWIDTH 960 0
DWIDTH 12 0
BBX 15 12 -1 -2
BITMAP
0000
03F0
0210
0420
07E0
0420
0840
0FC0
0840
1080
1080
7FE0
ENDCHAR
STARTCHAR 336f
ENCODING 13167
SWIDTH 960 0
DWIDTH 12 0
BBX 15 12 -1 -2
BITMAP
0400
06FC
0A94
1FE8
2BD0
3F68
5788
7C40
19F0
6880
5080
87F0
ENDCHAR
STARTCHAR 3370
ENCODING 13168
SWIDTH 960 0
DWIDTH 12 0
BBX 15 12 -1 -2
BITMAP
0020
0020
1E20
2440
27F8
2440
4880
4880
4880
F100
0100
0100
ENDCHAR
STARTCHAR 3371
ENCODING 13169
SWIDTH 960 0
DWIDTH 12 0
BBX 15 12 -1 -2
BITMAP
0490
07FC
0490
3C80
08C0
1958
36E0
3A80
5280
A500
2520
24E0
ENDCHAR
STARTCHAR 3372
ENCODING 13170
SWIDTH 960 0
DWIDTH 12 0
BBX 15 12 -1 -2
BITMAP
0490
05FC
0490
3FF8
0950
1FF8
3AA0
37F0
5080
AFE0
2100
2100
ENDCHAR
STARTCHAR 3373
ENCODING 13171
SWIDTH 960 0
DWIDTH 12 0
BBX 15 12 -1 -2
BITMAP
0A40
1F40
0AFC
1D08
0AE8
3E28
5450
7DD0
1160
FA00
2220
21E0
ENDCHAR
STARTCHAR 3374
ENCODING 13172
SWIDTH 960 0
DWIDTH 12 0
BBX 15 12 -1 -2
BITMAP
0420
04A0
04F8
3F40
0A40
1FF8
3880
35C0
53C0
A540
2920
2100
ENDCHAR
STARTCHAR 3375
ENCODING 13173
SWIDTH 960 0
DWIDTH 12 0
BBX 15 12 -1 -2
BITMAP
0280
0DF8
0948
1390
1290
1EF0
2720
0000
0D00
1220
2220
C1E0
ENDCHAR
STARTCHAR 3376
ENCODING 13174
SWIDTH 960 0
DWIDTH 12 0
BBX 15 12 -1 -2
BITMAP
0080
1FFC
16A8
0BB0
0100
1FF0
1240
3FE0
2220
7FC0
0420
03E0
ENDCHAR
STARTCHAR 3377
ENCODING 13175
SWIDTH 960 0
DWIDTH 12 0
BBX 15 12 -1 -2
BITMAP
0220
1FFC
0250
11F0
0880
23F0
2520
07E0
1520
2FC0
4A40
8AC0
ENDCHAR
STARTCHAR 3378
ENCODING 13176
SWIDTH 960 0
DWIDTH 12 0
BBX 15 12 -1 -2
BITMAP
0140
0220
0D50
3108
06C0
3838
1FC0
0200
3FE0
2480
1500
FFE0
ENDCHAR
STARTCHAR 3379
ENCODING 13177
SWIDTH 960 0
DWIDTH 12 0
BBX 15 12 -1 -2
BITMAP
0450
04FC
0A50
13F8
3EA8
0BF8
7D50
13F0
5940
66C0
3AA0
C280
ENDCHAR
STARTCHAR 337a
ENCODING 13178
SWIDTH 960 0
DWIDTH 12 0
BBX 15 12 -1 -2
BITMAP
0020
00BC
1CA0
2FFC
2A48
2B78
55D0
57F0
7490
8BA0
0D60
0FE0
ENDCHAR
STARTCHAR 337b
ENCODING 13179
SWIDTH 960 0
DWIDTH 12 0
BBX 15 12 -1 -2
BITMAP
0020
1F78
1548
2AF0
3E80
2AF8
5500
7DF0
1010
2560
2520
28C0
ENDCHAR
STARTCHAR 337c
ENCODING 13180
SWIDTH 960 0
DWIDTH 12 0
BBX 15 12 -1 -2
BITMAP
0400
05FC
0460
3C80
09F0
1910
3A20
33E0
5220
A440
2440
27C0
ENDCHAR
STARTCHAR 337d
ENCODING 13181
SWIDTH 960 0
DWIDTH 12 0
BBX 15 12 -1 -2
BITMAP
0220
1FFC
0220
1FE0
0440
0280
7FF0
0620
1A40
2400
C400
0C00
ENDCHAR
STARTCHAR 337e
ENCODING 13182
SWIDTH 960 0
DWIDTH 12 0
BBX 15 12 -1 -2
BITMAP
0220
1FFC
02A0
3FF8
2008
1FF0
1040
1FC0
1040
3F80
0000
FFE0
ENDCHAR
STARTCHAR 3421
ENCODING 13345
SWIDTH 960 0
DWIDTH 12 0
BBX 15 12 -1 -2
BITMAP
0080
1EBC
05C4
0988
3FF8
2120
7770
1710
1A90
2420
2420
C4C0
ENDCHAR
STARTCHAR 3422
ENCODING 13346
SWIDTH 960 0
DWIDTH 12 0
BBX 15 12 -1 -2
BITMAP
0004
00A4
0124
0148
3248
0C48
0890
0C90
1490
2420
4020
8060
ENDCHAR
STARTCHAR 3423
ENCODING 13347
SWIDTH 960 0
DWIDTH 12 0
BBX 15 12 -1 -2
BITMAP
0220
1FFC
0220
0210
0290
2490
1520
0920
1920
2A40
4840
80C0
ENDCHAR
STARTCHAR 3424
ENCODING 13348
SWIDTH 960 0
DWIDTH 12 0
BBX 15 12 -1 -2
BITMAP
0000
1FF8
0200
0400
07C0
0440
0C80
0A80
1090
2720
3920
C0E0
ENDCHAR
STARTCHAR 3425
ENCODING 13349
SWIDTH 960 0
DWIDTH 12 0
BBX 15 12 -1 -2
BITMAP
0440
1F40
04FC
3F00
22F0
3E20
4440
7C80
1300
FC20
2420
23E0
ENDCHAR
STARTCHAR 3426
ENCODING 13350
SWIDTH 960 0
DWIDTH 12 0
BBX 15 12 -1 -2
BITMAP
0200
03F8
0308
0610
0A10
3BF0
5000
1540
1540
2AA0
32A0
2060
ENDCHAR
STARTCHAR 3427
ENCODING 13351
SWIDTH 960 0
DWIDTH 12 0
BBX 15 12 -1 -2
BITMAP
0000
1FFC
1014
3F28
00F8
3F20
1540
1540
2440
29A0
4820
87E0
ENDCHAR
STARTCHAR 3428
ENCODING 13352
SWIDTH 960 0
DWIDTH 12 0
BBX 15 12 -1 -2
BITMAP
0080
1FFC
1244
3FE8
0480
1FE0
0900
7FE0
3480
4480
9860
0600
ENDCHAR
STARTCHAR 3429
ENCODING 13353
SWIDTH 960 0
DWIDTH 12 0
BBX 15 12 -1 -2
BITMAP
0004
0FA4
0224
0448
0448
3F48
0890
0890
0890
1020
1020
1060
ENDCHAR
STARTCHAR 342a
ENCODING 13354
SWIDTH 960 0
DWIDTH 12 0
BBX 15 12 -1 -2
BITMAP
0920
1FA0
0920
1FF8
1248
1E48
2490
7E90
7490
CD20
8220
7CC0
ENDCHAR
STARTCHAR 342b
ENCODING 13355
SWIDTH 960 0
DWIDTH 12 0
BBX 15 12 -1 -2
BITMAP
0820
0FA0
0920
1FF8
2448
1F48
6890
3E90
2890
7D20
5220
7CC0
ENDCHAR
STARTCHAR 342c
ENCODING 13356
SWIDTH 960 0
DWIDTH 12 0
BBX 15 12 -1 -2
BITMAP
0080
0490
02A0
1FF0
0280
3FF8
0880
1FC0
60B0
1F00
1040
0FC0
ENDCHAR
STARTCHAR 342d
ENCODING 13357
SWIDTH 960 0
DWIDTH 12 0
BBX 15 12 -1 -2
BITMAP
0040
0078
1C90
29F8
2AA8
2B28
5670
5490
7FF8
0280
0460
1810
ENDCHAR
STARTCHAR 342e
ENCODING 13358
SWIDTH 960 0
DWIDTH 12 0
BBX 15 12 -1 -2
BITMAP
0088
05FC
0488
09F0
3D10
09F0
1220
1FF0
2540
CEC0
0800
07E0
ENDCHAR
STARTCHAR 342f
ENCODING 13359
SWIDTH 960 0
DWIDTH 12 0
BBX 15 12 -1 -2
BITMAP
0080
0FF8
0120
0540
0180
0E60
0840
7FF0
18A0
6B40
3180
CE60
ENDCHAR
STARTCHAR 3430
ENCODING 13360
SWIDTH 960 0
DWIDTH 12 0
BBX 15 12 -1 -2
BITMAP
0080
1FFC
1004
27C8
0000
0000
7FF0
0500
0900
1220
2220
C1E0
ENDCHAR
STARTCHAR 3431
ENCODING 13361
SWIDTH 960 0
DWIDTH 12 0
BBX 15 12 -1 -2
BITMAP
0080
1FFC
1004
27C8
0440
0440
0F80
0800
0FC0
1080
1080
1F80
ENDCHAR
STARTCHAR 3432
ENCODING 13362
SWIDTH 960 0
DWIDTH 12 0
BBX 15 12 -1 -2
BITMAP
0080
1FFC
1228
0FF0
0440
0FC0
1040
1FC0
1040
3F80
1A20
E1E0
ENDCHAR
STARTCHAR 3433
ENCODING 13363
SWIDTH 960 0
DWIDTH 12 0
BBX 15 12 -1 -2
BITMAP
0000
0FF8
0080
0100
0100
3FF8
0200
0200
0200
0400
0400
0400
ENDCHAR
STARTCHAR 3434
ENCODING 13364
SWIDTH 960 0
DWIDTH 12 0
BBX 15 12 -1 -2
BITMAP
0410
1F10
0428
3EC8
23F4
3E20
4440
7FF0
1040
F880
2080
2080
ENDCHAR
STARTCHAR 3435
ENCODING 13365
SWIDTH 960 0
DWIDTH 12 0
BBX 15 12 -1 -2
BITMAP
0080
07F0
0490
0FE0
0100
1FF0
2220
3FE0
0200
5240
90A0
0F80
ENDCHAR
STARTCHAR 3436
ENCODING 13366
SWIDTH 960 0
DWIDTH 12 0
BBX 15 12 -1 -2
BITMAP
0048
0FFC
08C0
1F50
1050
3F68
52B0
1F10
0200
5240
90A0
0F80
ENDCHAR
STARTCHAR 3437
ENCODING 13367
SWIDTH 960 0
DWIDTH 12 0
BBX 15 12 -1 -2
BITMAP
047C
0454
07FC
1D50
1BF0
29F0
5210
13F0
1210
27E0
2240
2C20
ENDCHAR
STARTCHAR 3438
ENCODING 13368
SWIDTH 960 0
DWIDTH 12 0
BBX 15 12 -1 -2
BITMAP
0814
09FC
0D10
17E8
3390
32F0
6FB0
3110
2280
54A0
6420
43E0
ENDCHAR
STARTCHAR 3439
ENCODING 13369
SWIDTH 960 0
DWIDTH 12 0
BBX 15 12 -1 -2
BITMAP
0440
0478
0490
3FF8
0AA8
0B28
1E70
7490
1FF8
2180
2240
6C30
ENDCHAR
STARTCHAR 343a
ENCODING 13370
SWIDTH 960 0
DWIDTH 12 0
BBX 15 12 -1 -2
BITMAP
0020
0FA0
027C
3F90
1290
1F10
24A0
3CA0
2640
7980
CA40
0C20
ENDCHAR
STARTCHAR 343b
ENCODING 13371
SWIDTH 960 0
DWIDTH 12 0
BBX 15 12 -1 -2
BITMAP
0488
0488
07FC
3D10
0910
1910
3BE0
3620
5220
A440
2440
27C0
ENDCHAR
STARTCHAR 343c
ENCODING 13372
SWIDTH 960 0
DWIDTH 12 0
BBX 15 12 -1 -2
BITMAP
0400
05FC
0400
3DF0
0910
1910
3BE0
3620
5220
A7C0
2000
2FE0
ENDCHAR
STARTCHAR 343d
ENCODING 13373
SWIDTH 960 0
DWIDTH 12 0
BBX 15 12 -1 -2
BITMAP
0420
05FC
0504
3FF8
0910
1910
3BE0
3600
53F0
A420
2420
27E0
ENDCHAR
STARTCHAR 343e
ENCODING 13374
SWIDTH 960 0
DWIDTH 12 0
BBX 15 12 -1 -2
BITMAP
0440
1F40
0440
1EF8
0148
1D50
0080
7C80
1980
AA80
A440
6820
ENDCHAR
STARTCHAR 343f
ENCODING 13375
SWIDTH 960 0
DWIDTH 12 0
BBX 15 12 -1 -2
BITMAP
0820
0FA0
0A20
1F78
2AA8
3F30
2840
7E40
28C0
7D40
5240
7C20
ENDCHAR
STARTCHAR 3440
ENCODING 13376
SWIDTH 960 0
DWIDTH 12 0
BBX 15 12 -1 -2
BITMAP
0800
07F8
0040
2080
1080
0FF8
0100
1100
2100
4200
8200
8200
ENDCHAR
STARTCHAR 3441
ENCODING 13377
SWIDTH 960 0
DWIDTH 12 0
BBX 15 12 -1 -2
BITMAP
1120
0FFC
0120
03F0
2490
17F0
0100
1FE0
2100
5FC0
8580
B860
ENDCHAR
STARTCHAR 3442
ENCODING 13378
SWIDTH 960 0
DWIDTH 12 0
BBX 15 12 -1 -2
BITMAP
0BBC
06A4
03BC
2548
1778
0408
0BD0
1A50
2BD0
54A0
97A0
9060
ENDCHAR
STARTCHAR 3443
ENCODING 13379
SWIDTH 960 0
DWIDTH 12 0
BBX 15 12 -1 -2
BITMAP
0900
05F8
0640
29F8
1140
03F8
0C80
17E0
2480
4FC0
8900
8FE0
ENDCHAR
STARTCHAR 3444
ENCODING 13380
SWIDTH 960 0
DWIDTH 12 0
BBX 15 12 -1 -2
BITMAP
03F8
1EA8
07F8
0800
3FF8
0A10
17E0
1B20
6EC0
1440
2420
0400
ENDCHAR
STARTCHAR 3445
ENCODING 13381
SWIDTH 960 0
DWIDTH 12 0
BBX 15 12 -1 -2
BITMAP
0210
0210
0210
3FF8
0420
0420
0FC0
0840
0840
1080
1080
1F80
ENDCHAR
STARTCHAR 3446
ENCODING 13382
SWIDTH 960 0
DWIDTH 12 0
BBX 15 12 -1 -2
BITMAP
1F40
1440
1FFC
2300
3E00
28F0
7C00
0000
3FE0
4A40
4A40
FFE0
ENDCHAR
STARTCHAR 3447
ENCODING 13383
SWIDTH 960 0
DWIDTH 12 0
BBX 15 12 -1 -2
BITMAP
0018
0FE0
0100
3FF8
0400
3FF8
1840
2FC0
4840
1F80
1080
1F80
ENDCHAR
STARTCHAR 3448
ENCODING 13384
SWIDTH 960 0
DWIDTH 12 0
BBX 15 12 -1 -2
BITMAP
0840
0F7C
1690
0840
1FF0
0100
0200
7FF0
0200
0400
0400
0400
ENDCHAR
STARTCHAR 3449
ENCODING 13385
SWIDTH 960 0
DWIDTH 12 0
BBX 15 12 -1 -2
BITMAP
0820
0FBC
1248
3FF8
2008
27C8
0880
0F80
0800
1F80
1080
1F80
ENDCHAR
STARTCHAR 344a
ENCODING 13386
SWIDTH 960 0
DWIDTH 12 0
BBX 15 12 -1 -2
BITMAP
0820
0FBE
12C8
1EF8
1288
1EF8
2710
3CF0
2790
4920
4F20
4060
ENDCHAR
STARTCHAR 344b
ENCODING 13387
SWIDTH 960 0
DWIDTH 12 0
BBX 15 12 -1 -2
BITMAP
0418
04E8
1C50
17F8
0880
37F8
5D00
11E0
5B40
A580
AA40
2420
ENDCHAR
STARTCHAR 344c
ENCODING 13388
SWIDTH 960 0
DWIDTH 12 0
BBX 15 12 -1 -2
BITMAP
0400
0400
0FF8
1100
2100
3FF8
0200
2220
2220
4440
7FC0
4040
ENDCHAR
STARTCHAR 344d
ENCODING 13389
SWIDTH 960 0
DWIDTH 12 0
BBX 15 12 -1 -2
BITMAP
0410
1F28
04C4
3F04
23F8
3E48
46D0
7DB0
1090
FB60
25A0
2120
ENDCHAR
STARTCHAR 344e
ENCODING 13390
SWIDTH 960 0
DWIDTH 12 0
BBX 15 12 -1 -2
BITMAP
0F7C
0910
0910
1220
1FFC
1220
2440
3C40
2440
4880
4880
9880
ENDCHAR
STARTCHAR 344f
ENCODING 13391
SWIDTH 960 0
DWIDTH 12 0
BBX 15 12 -1 -2
BITMAP
09D0
1D1C
15E0
3AC0
2B80
3E38
5700
7000
57E0
A540
A540
AFE0
ENDCHAR
STARTCHAR 3450
ENCODING 13392
SWIDTH 960 0
DWIDTH 12 0
BBX 15 12 -1 -2
BITMAP
0220
1FFC
0220
0100
3FF8
2008
1FC0
0000
7FF0
0A00
3220
C1E0
ENDCHAR
STARTCHAR 3451
ENCODING 13393
SWIDTH 960 0
DWIDTH 12 0
BBX 15 12 -1 -2
BITMAP
087C
0FC4
0A44
1FF8
2A88
3FF8
2910
7FF0
2920
7D40
5250
7C30
ENDCHAR
STARTCHAR 3452
ENCODING 13394
SWIDTH 960 0
DWIDTH 12 0
BBX 15 12 -1 -2
BITMAP
1C20
01FC
1C20
03F0
3E50
03F0
74A0
07E0
7BC0
9540
9920
F100
ENDCHAR
STARTCHAR 3453
ENCODING 13395
SWIDTH 960 0
DWIDTH 12 0
BBX 15 12 -1 -2
BITMAP
0000
07F0
0490
3FF8
1240
1FC0
1040
1FC0
1040
3F80
1980
6060
ENDCHAR
STARTCHAR 3454
ENCODING 13396
SWIDTH 960 0
DWIDTH 12 0
BBX 15 12 -1 -2
BITMAP
01F8
0968
07FC
0000
03F0
3A10
17E0
1390
1560
1260
4B00
87F0
ENDCHAR
STARTCHAR 3455
ENCODING 13397
SWIDTH 960 0
DWIDTH 12 0
BBX 15 12 -1 -2
BITMAP
04E8
048E
0AF0
1360
3FC0
091C
7F80
1000
59F0
6AA0
32A0
C7F0
ENDCHAR
STARTCHAR 3456
ENCODING 13398
SWIDTH 960 0
DWIDTH 12 0
BBX 15 12 -1 -2
BITMAP
1F7C
1144
1F7C
2288
3EF8
2008
4F90
4890
4F90
9120
9F20
8060
ENDCHAR
STARTCHAR 3457
ENCODING 13399
SWIDTH 960 0
DWIDTH 12 0
BBX 15 12 -1 -2
BITMAP
1F7C
1144
1F7C
2288
3EF8
2108
5FD0
4210
4F10
9520
A4A0
8460
ENDCHAR
STARTCHAR 3458
ENCODING 13400
SWIDTH 960 0
DWIDTH 12 0
BBX 15 12 -1 -2
BITMAP
1F7C
1144
1F7C
2288
3EF8
2288
5FD0
4210
5FD0
8A20
9120
A060
ENDCHAR
STARTCHAR 3459
ENCODING 13401
SWIDTH 960 0
DWIDTH 12 0
BBX 15 12 -1 -2
BITMAP
0040
1C78
1490
2B20
3040
32F8
5510
5510
65F0
CA20
8A20
8BE0
ENDCHAR
STARTCHAR 345a
ENCODING 13402
SWIDTH 960 0
DWIDTH 12 0
BBX 15 12 -1 -2
BITMAP
0410
1F7C
0414
3FFC
2288
3EF8
4420
7DF0
1120
FFF0
2040
2040
ENDCHAR
STARTCHAR 345b
ENCODING 13403
SWIDTH 960 0
DWIDTH 12 0
BBX 15 12 -1 -2
BITMAP
0420
04FC
0B88
1EF0
3390
1E90
25E0
3D00
29F0
4A20
5620
E3E0
ENDCHAR
STARTCHAR 345c
ENCODING 13404
SWIDTH 960 0
DWIDTH 12 0
BBX 15 12 -1 -2
BITMAP
0420
05FC
0B08
32F0
3E90
0890
7DE0
1100
3DF0
4A20
4A20
7BE0
ENDCHAR
STARTCHAR 345d
ENCODING 13405
SWIDTH 960 0
DWIDTH 12 0
BBX 15 12 -1 -2
BITMAP
0200
0200
0200
3FC0
0440
0440
2880
1880
1C80
2520
4520
80E0
ENDCHAR
STARTCHAR 345e
ENCODING 13406
SWIDTH 960 0
DWIDTH 12 0
BBX 15 12 -1 -2
BITMAP
0080
0140
0620
09A0
3018
1FE0
0100
0200
1FC0
2080
2080
3F80
ENDCHAR
STARTCHAR 345f
ENCODING 13407
SWIDTH 960 0
DWIDTH 12 0
BBX 15 12 -1 -2
BITMAP
0888
0888
0FF8
0000
1FF8
1000
2FE0
2100
3FF0
4200
8200
0200
ENDCHAR
STARTCHAR 3460
ENCODING 13408
SWIDTH 960 0
DWIDTH 12 0
BBX 15 12 -1 -2
BITMAP
0888
0FF8
0040
1FF8
1740
12FC
3F10
2B50
2E60
3440
9CA0
8720
ENDCHAR
STARTCHAR 3461
ENCODING 13409
SWIDTH 960 0
DWIDTH 12 0
BBX 15 12 -1 -2
BITMAP
0000
01F8
1E00
0800
0800
3FF8
1280
1280
3C80
C900
1120
20E0
ENDCHAR
STARTCHAR 3462
ENCODING 13410
SWIDTH 960 0
DWIDTH 12 0
BBX 15 12 -1 -2
BITMAP
0040
07FC
14F0
1920
09E0
3BB8
5550
1770
1180
3120
5120
9FE0
ENDCHAR
STARTCHAR 3463
ENCODING 13411
SWIDTH 960 0
DWIDTH 12 0
BBX 15 12 -1 -2
BITMAP
0000
1EF8
1288
25F0
3D10
2510
4BE0
7A10
4AE0
9480
F740
0C20
ENDCHAR
STARTCHAR 3464
ENCODING 13412
SWIDTH 960 0
DWIDTH 12 0
BBX 15 12 -1 -2
BITMAP
0080
0888
0888
1FF0
0000
3FF8
0800
0800
3FE0
5040
9040
1FC0
ENDCHAR
STARTCHAR 3465
ENCODING 13413
SWIDTH 960 0
DWIDTH 12 0
BBX 15 12 -1 -2
BITMAP
0000
1FF8
1680
1B00
2DF8
09A0
1140
7D40
4540
FA80
8AA0
FC60
ENDCHAR
STARTCHAR 3466
ENCODING 13414
SWIDTH 960 0
DWIDTH 12 0
BBX 15 12 -1 -2
BITMAP
0000
0FFC
0950
1FF8
1520
15F8
2FC0
2840
4FC0
9080
1F80
39C0
ENDCHAR
STARTCHAR 3467
ENCODING 13415
SWIDTH 960 0
DWIDTH 12 0
BBX 15 12 -1 -2
BITMAP
0000
0FFC
0948
11F8
15A0
15A0
39F0
2940
49F0
5280
9280
13E0
ENDCHAR
STARTCHAR 3468
ENCODING 13416
SWIDTH 960 0
DWIDTH 12 0
BBX 15 12 -1 -2
BITMAP
0000
00FC
1F20
0078
0088
3FF8
2910
2BF0
2910
5BE0
5140
8620
ENDCHAR
STARTCHAR 3469
ENCODING 13417
SWIDTH 960 0
DWIDTH 12 0
BBX 15 12 -1 -2
BITMAP
0200
1FFC
0B20
0CF8
1F88
16F8
3910
25F0
3110
4BE0
9140
6620
ENDCHAR
STARTCHAR 346a
ENCODING 13418
SWIDTH 960 0
DWIDTH 12 0
BBX 15 12 -1 -2
BITMAP
0000
0FFE
0910
1F38
1948
1F78
3290
3EF0
2C90
75E0
51A0
B610
ENDCHAR
STARTCHAR 346b
ENCODING 13419
SWIDTH 960 0
DWIDTH 12 0
BBX 15 12 -1 -2
BITMAP
0080
0080
0140
0640
0920
3118
0200
13C0
1200
2400
2400
FFE0
ENDCHAR
STARTCHAR 346c
ENCODING 13420
SWIDTH 960 0
DWIDTH 12 0
BBX 15 12 -1 -2
BITMAP
0220
0220
03FC
0440
0840
3BF8
5020
1220
1140
2180
2680
3860
ENDCHAR
STARTCHAR 346d
ENCODING 13421
SWIDTH 960 0
DWIDTH 12 0
BBX 15 12 -1 -2
BITMAP
0100
03E0
0CC0
0100
0FF8
0800
17C0
1440
2440
49A0
8820
07E0
ENDCHAR
STARTCHAR 346e
ENCODING 13422
SWIDTH 960 0
DWIDTH 12 0
BBX 15 12 -1 -2
BITMAP
0080
1FFC
0080
1FF0
0820
0FE0
0880
7FF0
0000
3F80
2080
3F80
ENDCHAR
STARTCHAR 346f
ENCODING 13423
SWIDTH 960 0
DWIDTH 12 0
BBX 15 12 -1 -2
BITMAP
0000
0F78
0948
1EF0
0100
3FF8
0500
18C0
79F0
4A40
4A40
7BC0
ENDCHAR
STARTCHAR 3470
ENCODING 13424
SWIDTH 960 0
DWIDTH 12 0
BBX 15 12 -1 -2
BITMAP
0220
0FF8
0220
07C0
0440
07C0
0880
7FF0
3240
CF60
0400
7FC0
ENDCHAR
STARTCHAR 3471
ENCODING 13425
SWIDTH 960 0
DWIDTH 12 0
BBX 15 12 -1 -2
BITMAP
0080
0FF8
0340
0440
1820
3FF8
0040
1F40
1140
3E80
0080
0180
ENDCHAR
STARTCHAR 3472
ENCODING 13426
SWIDTH 960 0
DWIDTH 12 0
BBX 15 12 -1 -2
BITMAP
0820
09FC
0A20
3FF0
1510
15F0
2940
4FF0
7800
27C0
4440
87C0
ENDCHAR
STARTCHAR 3473
ENCODING 13427
SWIDTH 960 0
DWIDTH 12 0
BBX 15 12 -1 -2
BITMAP
0080
1FFC
1084
0FE0
0280
0C40
7FF0
0040
1F40
2280
3E80
0180
ENDCHAR
STARTCHAR 3474
ENCODING 13428
SWIDTH 960 0
DWIDTH 12 0
BBX 15 12 -1 -2
BITMAP
0020
0420
05FC
2A40
2A40
2BF8
5520
5520
54C0
F880
0340
0C20
ENDCHAR
STARTCHAR 3475
ENCODING 13429
SWIDTH 960 0
DWIDTH 12 0
BBX 15 12 -1 -2
BITMAP
0310
00E0
0F10
0200
3FF8
0480
1FE0
2920
4940
1380
1200
0200
ENDCHAR
STARTCHAR 3476
ENCODING 13430
SWIDTH 960 0
DWIDTH 12 0
BBX 15 12 -1 -2
BITMAP
0490
0AA8
1CD0
1550
3D70
0510
7FF0
1220
11C0
3120
46A0
B860
ENDCHAR
STARTCHAR 3477
ENCODING 13431
SWIDTH 960 0
DWIDTH 12 0
BBX 15 12 -1 -2
BITMAP
0000
07F0
0010
0FE0
0800
0810
07E0
0200
2A20
5220
9090
0F80
ENDCHAR
STARTCHAR 3478
ENCODING 13432
SWIDTH 960 0
DWIDTH 12 0
BBX 15 12 -1 -2
BITMAP
0400
05FC
0728
3CF0
0840
0BF8
1C90
77F0
1080
2FF0
2100
6100
ENDCHAR
STARTCHAR 3479
ENCODING 13433
SWIDTH 960 0
DWIDTH 12 0
BBX 15 12 -1 -2
BITMAP
0400
0478
0448
3E90
0890
1890
3920
3520
5220
A250
2450
2830
ENDCHAR
STARTCHAR 347a
ENCODING 13434
SWIDTH 960 0
DWIDTH 12 0
BBX 15 12 -1 -2
BITMAP
0440
04FC
1F48
0BF8
0890
0EF0
1520
15E0
2520
4FE0
8940
3620
ENDCHAR
STARTCHAR 347b
ENCODING 13435
SWIDTH 960 0
DWIDTH 12 0
BBX 15 12 -1 -2
BITMAP
0000
0FFC
0950
1EA0
12A0
13F8
3CC0
20C0
2940
5AA0
64A0
8860
ENDCHAR
STARTCHAR 347c
ENCODING 13436
SWIDTH 960 0
DWIDTH 12 0
BBX 15 12 -1 -2
BITMAP
0480
04BC
1FE4
0948
0F78
0948
1E90
12F0
7F90
2A20
4620
8460
ENDCHAR
STARTCHAR 347d
ENCODING 13437
SWIDTH 960 0
DWIDTH 12 0
BBX 15 12 -1 -2
BITMAP
0488
0488
07FC
3D10
09F0
1D10
37E0
3220
57F0
A280
2440
2840
ENDCHAR
STARTCHAR 347e
ENCODING 13438
SWIDTH 960 0
DWIDTH 12 0
BBX 15 12 -1 -2
BITMAP
0080
1FFC
0320
1FF0
0920
3FF8
1240
7FF0
0F00
3480
C460
0400
ENDCHAR
STARTCHAR 3521
ENCODING 13601
SWIDTH 960 0
DWIDTH 12 0
BBX 15 12 -1 -2
BITMAP
0448
0490
07F8
3D68
0BF8
1850
3FF0
34A0
57C0
AA60
3120
2620
ENDCHAR
STARTCHAR 3522
ENCODING 13602
SWIDTH 960 0
DWIDTH 12 0
BBX 15 12 -1 -2
BITMAP
05F0
0410
15F0
2820
2FF8
2C88
57F0
1520
2520
2AC0
4200
8200
ENDCHAR
STARTCHAR 3523
ENCODING 13603
SWIDTH 960 0
DWIDTH 12 0
BBX 15 12 -1 -2
BITMAP
0470
1F50
0C90
1518
3E18
0BF0
7420
1B20
4CC0
3480
D140
3620
ENDCHAR
STARTCHAR 3524
ENCODING 13604
SWIDTH 960 0
DWIDTH 12 0
BBX 15 12 -1 -2
BITMAP
0400
07F8
0C00
13C0
2000
1FE0
0240
1A40
0C40
1460
2020
C020
ENDCHAR
STARTCHAR 3525
ENCODING 13605
SWIDTH 960 0
DWIDTH 12 0
BBX 15 12 -1 -2
BITMAP
0A00
07F8
0600
29E0
1000
07E0
0040
1040
2050
4060
8020
8020
ENDCHAR
STARTCHAR 3526
ENCODING 13606
SWIDTH 960 0
DWIDTH 12 0
BBX 15 12 -1 -2
BITMAP
0490
0AA8
1CD0
1550
3D70
0510
7FF0
3E20
2BC0
7D20
56A0
7C60
ENDCHAR
STARTCHAR 3527
ENCODING 13607
SWIDTH 960 0
DWIDTH 12 0
BBX 15 12 -1 -2
BITMAP
0408
04F0
1C80
0500
05F8
0920
3A40
5640
1240
2480
2880
3080
ENDCHAR
STARTCHAR 3528
ENCODING 13608
SWIDTH 960 0
DWIDTH 12 0
BBX 15 12 -1 -2
BITMAP
0070
0F80
0080
3FF8
0380
1D60
6F90
0100
3FE0
0400
0400
0C00
ENDCHAR
STARTCHAR 3529
ENCODING 13609
SWIDTH 960 0
DWIDTH 12 0
BBX 15 12 -1 -2
BITMAP
0248
1C30
04C8
0BF8
3D40
09F0
36A0
3AA0
52A0
A5C0
2100
2100
ENDCHAR
STARTCHAR 352a
ENCODING 13610
SWIDTH 960 0
DWIDTH 12 0
BBX 15 12 -1 -2
BITMAP
0400
04F8
1C08
1410
0810
34F0
5D00
1100
5900
AA20
A220
21E0
ENDCHAR
STARTCHAR 352b
ENCODING 13611
SWIDTH 960 0
DWIDTH 12 0
BBX 15 12 -1 -2
BITMAP
02A8
0AA8
13FE
2128
0AC8
1350
1550
6FA0
2420
56C0
6520
4610
ENDCHAR
STARTCHAR 352c
ENCODING 13612
SWIDTH 960 0
DWIDTH 12 0
BBX 15 12 -1 -2
BITMAP
04F8
0488
1F88
09F0
0910
3FF0
1220
13E0
1A40
2A80
44A0
8860
ENDCHAR
STARTCHAR 352d
ENCODING 13613
SWIDTH 960 0
DWIDTH 12 0
BBX 15 12 -1 -2
BITMAP
0E00
00F8
1F08
0010
1E10
00F0
3D00
0100
7D00
8A20
8A20
F9E0
ENDCHAR
STARTCHAR 352e
ENCODING 13614
SWIDTH 960 0
DWIDTH 12 0
BBX 15 12 -1 -2
BITMAP
0080
07F0
0490
3FF8
0000
0FE0
1040
1FC0
1040
3F80
1180
6040
ENDCHAR
STARTCHAR 352f
ENCODING 13615
SWIDTH 960 0
DWIDTH 12 0
BBX 15 12 -1 -2
BITMAP
0200
0278
0F88
0410
3FF0
0480
2900
2F10
5910
48E0
8400
83F0
ENDCHAR
STARTCHAR 3530
ENCODING 13616
SWIDTH 960 0
DWIDTH 12 0
BBX 15 12 -1 -2
BITMAP
0440
1F40
0440
3FE0
2AA0
3EA0
5540
7D40
1240
FAA0
24A0
2860
ENDCHAR
STARTCHAR 3531
ENCODING 13617
SWIDTH 960 0
DWIDTH 12 0
BBX 15 12 -1 -2
BITMAP
04FC
14A4
17F8
1C40
09F8
3F48
2BF0
2A90
2FF0
5100
8FE0
0100
ENDCHAR
STARTCHAR 3532
ENCODING 13618
SWIDTH 960 0
DWIDTH 12 0
BBX 15 12 -1 -2
BITMAP
0400
0670
1950
2DA0
12A0
1EA0
2540
3D40
2940
4AA0
54A0
E860
ENDCHAR
STARTCHAR 3533
ENCODING 13619
SWIDTH 960 0
DWIDTH 12 0
BBX 15 12 -1 -2
BITMAP
0020
1EF8
1460
3CA0
2918
3FF8
5020
7FA0
06A0
AF40
8840
30C0
ENDCHAR
STARTCHAR 3534
ENCODING 13620
SWIDTH 960 0
DWIDTH 12 0
BBX 15 12 -1 -2
BITMAP
0080
0100
07F0
0920
0FE0
0920
1FC0
0540
09A0
13C0
2220
C1E0
ENDCHAR
STARTCHAR 3535
ENCODING 13621
SWIDTH 960 0
DWIDTH 12 0
BBX 15 12 -1 -2
BITMAP
0100
03E0
0440
3FE0
0920
0FE0
1240
3FE0
2220
7FC0
0420
03E0
ENDCHAR
STARTCHAR 3536
ENCODING 13622
SWIDTH 960 0
DWIDTH 12 0
BBX 15 12 -1 -2
BITMAP
0520
04A0
0440
0FE0
1120
33E0
2420
2FF0
3010
4AA0
5220
40C0
ENDCHAR
STARTCHAR 3537
ENCODING 13623
SWIDTH 960 0
DWIDTH 12 0
BBX 15 12 -1 -2
BITMAP
0490
07FC
0840
0BF0
1080
3FF8
26A0
2FF0
22A0
5CA0
4560
4C20
ENDCHAR
STARTCHAR 3538
ENCODING 13624
SWIDTH 960 0
DWIDTH 12 0
BBX 15 12 -1 -2
BITMAP
0820
0820
0BFC
3E40
1440
15F0
2820
4920
7940
2980
4240
8C20
ENDCHAR
STARTCHAR 3539
ENCODING 13625
SWIDTH 960 0
DWIDTH 12 0
BBX 15 12 -1 -2
BITMAP
0080
1FFC
1004
27C8
0440
0440
0F80
0880
0F80
1100
1100
FFE0
ENDCHAR
STARTCHAR 353a
ENCODING 13626
SWIDTH 960 0
DWIDTH 12 0
BBX 15 12 -1 -2
BITMAP
03A0
0228
0FA4
14C0
14F8
1740
2050
2A50
3A60
56A0
9960
6220
ENDCHAR
STARTCHAR 353b
ENCODING 13627
SWIDTH 960 0
DWIDTH 12 0
BBX 15 12 -1 -2
BITMAP
0420
0420
07FC
3C40
0840
0FF0
1820
7140
11C0
2180
2240
6C20
ENDCHAR
STARTCHAR 353c
ENCODING 13628
SWIDTH 960 0
DWIDTH 12 0
BBX 15 12 -1 -2
BITMAP
0A3C
0BC4
0A68
3AA0
13F8
1430
2F60
7A40
2F70
4680
4B80
D260
ENDCHAR
STARTCHAR 353d
ENCODING 13629
SWIDTH 960 0
DWIDTH 12 0
BBX 15 12 -1 -2
BITMAP
0940
0940
1FC0
12F8
1F48
1350
3C80
2480
7F80
5280
4C40
9820
ENDCHAR
STARTCHAR 353e
ENCODING 13630
SWIDTH 960 0
DWIDTH 12 0
BBX 15 12 -1 -2
BITMAP
0450
15FC
1420
3DF8
2840
2FF8
1A50
77F0
1250
2E50
25B0
2C10
ENDCHAR
STARTCHAR 353f
ENCODING 13631
SWIDTH 960 0
DWIDTH 12 0
BBX 15 12 -1 -2
BITMAP
08FC
0F08
0850
0A60
0FF8
1050
3CA0
4A80
3EE0
2700
5580
8860
ENDCHAR
STARTCHAR 3540
ENCODING 13632
SWIDTH 960 0
DWIDTH 12 0
BBX 15 12 -1 -2
BITMAP
0418
04F0
1F90
0320
0520
09F8
3A40
5640
1240
2440
2760
2C20
ENDCHAR
STARTCHAR 3541
ENCODING 13633
SWIDTH 960 0
DWIDTH 12 0
BBX 15 12 -1 -2
BITMAP
0220
0FFC
0080
0FF0
0100
1FF8
0920
7FF0
08A0
7CA0
1360
3020
ENDCHAR
STARTCHAR 3542
ENCODING 13634
SWIDTH 960 0
DWIDTH 12 0
BBX 15 12 -1 -2
BITMAP
0450
05FC
0420
3FF8
2A40
2BF8
7E50
17F8
1260
2EA0
3560
CC20
ENDCHAR
STARTCHAR 3543
ENCODING 13635
SWIDTH 960 0
DWIDTH 12 0
BBX 15 12 -1 -2
BITMAP
0E20
01FC
1F08
01F0
1D10
0110
3BE0
0220
7BE0
9440
9440
FFE0
ENDCHAR
STARTCHAR 3544
ENCODING 13636
SWIDTH 960 0
DWIDTH 12 0
BBX 15 12 -1 -2
BITMAP
0E48
01FC
1E20
01F0
1C40
07F8
3A50
07F8
7A60
9EA0
9560
FC20
ENDCHAR
STARTCHAR 3545
ENCODING 13637
SWIDTH 960 0
DWIDTH 12 0
BBX 15 12 -1 -2
BITMAP
0480
0480
05FC
3E88
0AA8
09C8
1FD0
7110
1790
2AA0
2220
62C0
ENDCHAR
STARTCHAR 3546
ENCODING 13638
SWIDTH 960 0
DWIDTH 12 0
BBX 15 12 -1 -2
BITMAP
0220
1FFC
0220
0400
0FF8
3128
4A90
3FF0
0F10
1520
64A0
04C0
ENDCHAR
STARTCHAR 3547
ENCODING 13639
SWIDTH 960 0
DWIDTH 12 0
BBX 15 12 -1 -2
BITMAP
0A40
1F40
0A7C
1CC8
0958
3EE8
57F0
7C90
13D0
FD60
2120
20C0
ENDCHAR
STARTCHAR 3548
ENCODING 13640
SWIDTH 960 0
DWIDTH 12 0
BBX 15 12 -1 -2
BITMAP
0080
0080
1FFC
0100
0100
1FF0
0000
1FC0
1040
2080
2080
3F80
ENDCHAR
STARTCHAR 3549
ENCODING 13641
SWIDTH 960 0
DWIDTH 12 0
BBX 15 12 -1 -2
BITMAP
0080
0080
1FFC
2600
2400
27F0
4840
4980
7E00
0820
0820
07E0
ENDCHAR
STARTCHAR 354a
ENCODING 13642
SWIDTH 960 0
DWIDTH 12 0
BBX 15 12 -1 -2
BITMAP
0080
1FFC
1494
2FA8
2948
2FB0
57C0
5100
7FF0
0500
0880
3060
ENDCHAR
STARTCHAR 354b
ENCODING 13643
SWIDTH 960 0
DWIDTH 12 0
BBX 15 12 -1 -2
BITMAP
0420
0420
07FC
3C40
0840
19F0
3800
37E0
5220
A440
2440
27C0
ENDCHAR
STARTCHAR 354c
ENCODING 13644
SWIDTH 960 0
DWIDTH 12 0
BBX 15 12 -1 -2
BITMAP
04F8
0450
07FC
3CD0
0B40
1BF8
3D50
3670
57D0
AAA0
2BA0
2860
ENDCHAR
STARTCHAR 354d
ENCODING 13645
SWIDTH 960 0
DWIDTH 12 0
BBX 15 12 -1 -2
BITMAP
0E20
0020
1FFC
0040
1C40
07F0
3800
03E0
7A20
9440
9440
F7C0
ENDCHAR
STARTCHAR 354e
ENCODING 13646
SWIDTH 960 0
DWIDTH 12 0
BBX 15 12 -1 -2
BITMAP
0020
1F20
0420
0878
1040
1E40
6480
27E0
2620
4C40
7C40
07C0
ENDCHAR
STARTCHAR 354f
ENCODING 13647
SWIDTH 960 0
DWIDTH 12 0
BBX 15 12 -1 -2
BITMAP
0480
0480
04F8
3D40
0A40
1840
3BF0
3480
5080
A100
2100
2100
ENDCHAR
STARTCHAR 3550
ENCODING 13648
SWIDTH 960 0
DWIDTH 12 0
BBX 15 12 -1 -2
BITMAP
0038
07C0
0080
3FF8
0540
1B30
0500
1AC0
6B30
0E00
75C0
0400
ENDCHAR
STARTCHAR 3551
ENCODING 13649
SWIDTH 960 0
DWIDTH 12 0
BBX 15 12 -1 -2
BITMAP
0400
043C
1FA4
0848
0848
3F48
1090
1490
2CE0
7500
C500
0100
ENDCHAR
STARTCHAR 3552
ENCODING 13650
SWIDTH 960 0
DWIDTH 12 0
BBX 15 12 -1 -2
BITMAP
0080
1FFC
1104
23C8
0440
1A80
0280
1CC0
6FF0
1080
1080
1F80
ENDCHAR
STARTCHAR 3553
ENCODING 13651
SWIDTH 960 0
DWIDTH 12 0
BBX 15 12 -1 -2
BITMAP
0080
1C9C
17F4
2928
3928
2FE8
5250
7550
57E0
BD80
A080
A080
ENDCHAR
STARTCHAR 3554
ENCODING 13652
SWIDTH 960 0
DWIDTH 12 0
BBX 15 12 -1 -2
BITMAP
0080
00F8
0080
1FF8
1108
17C0
2220
2FE0
2800
5FC0
9000
1FC0
ENDCHAR
STARTCHAR 3555
ENCODING 13653
SWIDTH 960 0
DWIDTH 12 0
BBX 15 12 -1 -2
BITMAP
0088
0850
05FC
0040
0248
3A48
17F0
1480
1100
1200
4800
87F0
ENDCHAR
STARTCHAR 3556
ENCODING 13654
SWIDTH 960 0
DWIDTH 12 0
BBX 15 12 -1 -2
BITMAP
0000
0030
07C0
0800
0800
0FF0
1080
1080
1080
2100
2100
FFE0
ENDCHAR
STARTCHAR 3557
ENCODING 13655
SWIDTH 960 0
DWIDTH 12 0
BBX 15 12 -1 -2
BITMAP
0100
0100
01E0
0240
0440
1880
2100
0200
0500
1900
2080
C060
ENDCHAR
STARTCHAR 3558
ENCODING 13656
SWIDTH 960 0
DWIDTH 12 0
BBX 15 12 -1 -2
BITMAP
0480
0480
0480
0FE0
1120
3120
2240
2240
2440
48A0
50A0
6060
ENDCHAR
STARTCHAR 3559
ENCODING 13657
SWIDTH 960 0
DWIDTH 12 0
BBX 15 12 -1 -2
BITMAP
0220
0220
0220
07F8
0840
38E0
51C0
12A0
1C90
3110
2100
2100
ENDCHAR
STARTCHAR 355a
ENCODING 13658
SWIDTH 960 0
DWIDTH 12 0
BBX 15 12 -1 -2
BITMAP
0000
07F0
0120
0240
0270
0620
0A20
0940
11C0
2180
4640
9820
ENDCHAR
STARTCHAR 355b
ENCODING 13659
SWIDTH 960 0
DWIDTH 12 0
BBX 15 12 -1 -2
BITMAP
0000
01F8
1E50
24A0
24B8
2488
4990
4AA0
7AC0
04C0
0920
1610
ENDCHAR
STARTCHAR 355c
ENCODING 13660
SWIDTH 960 0
DWIDTH 12 0
BBX 15 12 -1 -2
BITMAP
0080
1FFC
1004
27C8
0440
0440
0F80
0400
1FC0
2080
2080
3F80
ENDCHAR
STARTCHAR 355d
ENCODING 13661
SWIDTH 960 0
DWIDTH 12 0
BBX 15 12 -1 -2
BITMAP
03F0
0010
0010
0FE0
0800
0800
1FE0
0020
0020
0040
0080
0700
ENDCHAR
STARTCHAR 355e
ENCODING 13662
SWIDTH 960 0
DWIDTH 12 0
BBX 15 12 -1 -2
BITMAP
0200
03E0
0C40
17E0
0020
07E0
0040
3FC0
2200
5240
90A0
0F80
ENDCHAR
STARTCHAR 355f
ENCODING 13663
SWIDTH 960 0
DWIDTH 12 0
BBX 15 12 -1 -2
BITMAP
0320
02A0
1FFC
0490
2490
2560
2E20
1AC0
6BC0
9240
1440
3820
ENDCHAR
STARTCHAR 3560
ENCODING 13664
SWIDTH 960 0
DWIDTH 12 0
BBX 15 12 -1 -2
BITMAP
0400
05FC
0440
3E80
0880
19F0
3A20
3420
5020
A040
2040
2180
ENDCHAR
STARTCHAR 3561
ENCODING 13665
SWIDTH 960 0
DWIDTH 12 0
BBX 15 12 -1 -2
BITMAP
0080
00A0
0090
3FF8
0100
11B0
1340
0680
3A40
C440
0420
0C00
ENDCHAR
STARTCHAR 3562
ENCODING 13666
SWIDTH 960 0
DWIDTH 12 0
BBX 15 12 -1 -2
BITMAP
0800
07F0
00A0
2140
1170
0110
0320
1540
2580
4980
9240
AC20
ENDCHAR
STARTCHAR 3563
ENCODING 13667
SWIDTH 960 0
DWIDTH 12 0
BBX 15 12 -1 -2
BITMAP
0840
0440
0040
27F8
1010
0210
0220
1220
2240
4480
8480
9FE0
ENDCHAR
STARTCHAR 3564
ENCODING 13668
SWIDTH 960 0
DWIDTH 12 0
BBX 15 12 -1 -2
BITMAP
0100
01E0
0640
1980
0260
0D18
7000
0A20
3FC0
0A00
3100
C0E0
ENDCHAR
STARTCHAR 3565
ENCODING 13669
SWIDTH 960 0
DWIDTH 12 0
BBX 15 12 -1 -2
BITMAP
0020
1E30
0428
0BF8
3C40
0A58
11E0
11C0
1AA0
ED10
0100
0300
ENDCHAR
STARTCHAR 3566
ENCODING 13670
SWIDTH 960 0
DWIDTH 12 0
BBX 15 12 -1 -2
BITMAP
0080
1FFC
1288
2488
0490
0970
3200
3F80
0480
0920
1120
60E0
ENDCHAR
STARTCHAR 3567
ENCODING 13671
SWIDTH 960 0
DWIDTH 12 0
BBX 15 12 -1 -2
BITMAP
0080
1FFC
1384
0CF8
0400
1CF8
2410
3CF0
2500
FBE0
2820
D8C0
ENDCHAR
STARTCHAR 3568
ENCODING 13672
SWIDTH 960 0
DWIDTH 12 0
BBX 15 12 -1 -2
BITMAP
0840
0F7C
1690
0840
1F80
0880
09C0
0840
1580
6600
9B00
60C0
ENDCHAR
STARTCHAR 3569
ENCODING 13673
SWIDTH 960 0
DWIDTH 12 0
BBX 15 12 -1 -2
BITMAP
0400
04F0
1CA0
1540
0970
35A0
5EA0
12C0
5CC0
A540
AA40
3420
ENDCHAR
STARTCHAR 356a
ENCODING 13674
SWIDTH 960 0
DWIDTH 12 0
BBX 15 12 -1 -2
BITMAP
0408
0448
1C48
1490
0890
1490
3D20
5178
57A0
A840
A040
2040
ENDCHAR
STARTCHAR 356b
ENCODING 13675
SWIDTH 960 0
DWIDTH 12 0
BBX 15 12 -1 -2
BITMAP
0420
0420
1C50
1590
0BF0
3408
5C00
13E0
5A20
AC40
A440
27C0
ENDCHAR
STARTCHAR 356c
ENCODING 13676
SWIDTH 960 0
DWIDTH 12 0
BBX 15 12 -1 -2
BITMAP
0800
09F8
0908
1210
1210
13F0
2420
2420
2420
4840
4FC0
4000
ENDCHAR
STARTCHAR 356d
ENCODING 13677
SWIDTH 960 0
DWIDTH 12 0
BBX 15 12 -1 -2
BITMAP
0080
0480
0480
0FF0
1100
2100
0200
7FF0
0200
0400
0400
0400
ENDCHAR
STARTCHAR 356e
ENCODING 13678
SWIDTH 960 0
DWIDTH 12 0
BBX 15 12 -1 -2
BITMAP
0080
0080
0FF8
0100
0100
3FF8
0200
0480
0880
13C0
7C40
0040
ENDCHAR
STARTCHAR 356f
ENCODING 13679
SWIDTH 960 0
DWIDTH 12 0
BBX 15 12 -1 -2
BITMAP
0000
07F8
0408
0FF0
0880
0FF8
1100
1100
3FE0
5040
9040
1FC0
ENDCHAR
STARTCHAR 3570
ENCODING 13680
SWIDTH 960 0
DWIDTH 12 0
BBX 15 12 -1 -2
BITMAP
0000
0FFC
0800
1000
1FF0
1010
2020
3FE0
2000
4000
4000
7FE0
ENDCHAR
STARTCHAR 3571
ENCODING 13681
SWIDTH 960 0
DWIDTH 12 0
BBX 15 12 -1 -2
BITMAP
0400
04FC
0480
3D00
09F0
0910
1A20
73E0
1200
2400
2400
67E0
ENDCHAR
STARTCHAR 3572
ENCODING 13682
SWIDTH 960 0
DWIDTH 12 0
BBX 15 12 -1 -2
BITMAP
0400
049C
0494
3DA8
0AA8
0AA8
1B50
7150
1390
2530
2880
7070
ENDCHAR
STARTCHAR 3573
ENCODING 13683
SWIDTH 960 0
DWIDTH 12 0
BBX 15 12 -1 -2
BITMAP
0910
0490
1FFC
0480
0FC0
3220
4FB0
0200
3FC0
0400
0400
1800
ENDCHAR
STARTCHAR 3574
ENCODING 13684
SWIDTH 960 0
DWIDTH 12 0
BBX 15 12 -1 -2
BITMAP
09FC
0500
11F8
1210
03F0
1A00
27F0
4200
7FF0
0E00
3580
C460
ENDCHAR
STARTCHAR 3575
ENCODING 13685
SWIDTH 960 0
DWIDTH 12 0
BBX 15 12 -1 -2
BITMAP
0080
00F0
0080
1FF8
1208
1FC0
2420
23E0
35C0
5B00
8A00
7FE0
ENDCHAR
STARTCHAR 3576
ENCODING 13686
SWIDTH 960 0
DWIDTH 12 0
BBX 15 12 -1 -2
BITMAP
0E80
0080
1FF8
0240
1C40
0040
3FF0
0080
7880
9100
9100
F100
ENDCHAR
STARTCHAR 3577
ENCODING 13687
SWIDTH 960 0
DWIDTH 12 0
BBX 15 12 -1 -2
BITMAP
0000
1EFC
1280
2500
3DF0
0910
5220
5FE0
5200
AC00
B400
C7E0
ENDCHAR
STARTCHAR 3578
ENCODING 13688
SWIDTH 960 0
DWIDTH 12 0
BBX 15 12 -1 -2
BITMAP
0400
04FC
0A84
13F8
3D20
09F8
7E40
1240
5FF0
6A20
3220
C3E0
ENDCHAR
STARTCHAR 3579
ENCODING 13689
SWIDTH 960 0
DWIDTH 12 0
BBX 15 12 -1 -2
BITMAP
0840
0478
01B0
2640
13F8
0248
07F0
1490
27F0
4000
8AA0
9250
ENDCHAR
STARTCHAR 357a
ENCODING 13690
SWIDTH 960 0
DWIDTH 12 0
BBX 15 12 -1 -2
BITMAP
051C
09F4
1554
18E8
2AB8
0BE0
1040
3FE0
0000
FFE0
1500
64C0
ENDCHAR
STARTCHAR 357b
ENCODING 13691
SWIDTH 960 0
DWIDTH 12 0
BBX 15 12 -1 -2
BITMAP
0100
01E0
0240
0C80
1FF0
2910
1FE0
1220
1FE0
0000
4A40
8920
ENDCHAR
STARTCHAR 357c
ENCODING 13692
SWIDTH 960 0
DWIDTH 12 0
BBX 15 12 -1 -2
BITMAP
0080
1FFC
07F0
0820
0FE0
0000
3FE0
0080
0300
0400
0400
0C00
ENDCHAR
STARTCHAR 357d
ENCODING 13693
SWIDTH 960 0
DWIDTH 12 0
BBX 15 12 -1 -2
BITMAP
0080
1FFC
07F0
0820
0FE0
0000
1FC0
0100
7FF0
0400
0400
0C00
ENDCHAR
STARTCHAR 357e
ENCODING 13694
SWIDTH 960 0
DWIDTH 12 0
BBX 15 12 -1 -2
BITMAP
0080
1FFC
0000
0FE0
0820
0820
1FC0
0200
1240
2440
4440
0C00
ENDCHAR
STARTCHAR 3621
ENCODING 13857
SWIDTH 960 0
DWIDTH 12 0
BBX 15 12 -1 -2
BITMAP
0248
0248
0248
07F8
0890
3890
5120
1FF8
1000
2240
2420
2820
ENDCHAR
STARTCHAR 3622
ENCODING 13858
SWIDTH 960 0
DWIDTH 12 0
BBX 15 12 -1 -2
BITMAP
0440
0440
07F8
0C90
12A0
3280
3FF0
2100
2380
4480
4840
7020
ENDCHAR
STARTCHAR 3623
ENCODING 13859
SWIDTH 960 0
DWIDTH 12 0
BBX 15 12 -1 -2
BITMAP
02F8
0220
05FC
08A0
0B18
3960
5140
17F0
15D0
2AA0
2BA0
2860
ENDCHAR
STARTCHAR 3624
ENCODING 13860
SWIDTH 960 0
DWIDTH 12 0
BBX 15 12 -1 -2
BITMAP
0040
0B48
0988
1190
1250
1C10
37E0
0500
0900
1220
2220
C1E0
ENDCHAR
STARTCHAR 3625
ENCODING 13861
SWIDTH 960 0
DWIDTH 12 0
BBX 15 12 -1 -2
BITMAP
0220
1FF8
0A50
3FF8
0000
1EF0
2520
3DE0
2540
2AA0
4CA0
8860
ENDCHAR
STARTCHAR 3626
ENCODING 13862
SWIDTH 960 0
DWIDTH 12 0
BBX 15 12 -1 -2
BITMAP
0220
0220
0220
1FF0
0440
0440
0880
7FF0
0080
1080
2040
C040
ENDCHAR
STARTCHAR 3627
ENCODING 13863
SWIDTH 960 0
DWIDTH 12 0
BBX 15 12 -1 -2
BITMAP
0010
0814
0A24
1228
1148
1188
2290
2450
3850
4020
7FE0
4000
ENDCHAR
STARTCHAR 3628
ENCODING 13864
SWIDTH 960 0
DWIDTH 12 0
BBX 15 12 -1 -2
BITMAP
0840
09F8
0848
3C90
1110
1260
2440
3FF0
2C50
54A0
6520
4E60
ENDCHAR
STARTCHAR 3629
ENCODING 13865
SWIDTH 960 0
DWIDTH 12 0
BBX 15 12 -1 -2
BITMAP
0000
1FFC
1000
2FF0
2100
2100
4FC0
4200
4200
BFC0
8000
FFE0
ENDCHAR
STARTCHAR 362a
ENCODING 13866
SWIDTH 960 0
DWIDTH 12 0
BBX 15 12 -1 -2
BITMAP
0400
19DC
1154
2BA8
2AA8
2AA8
5750
5450
7670
1A80
4D80
8080
ENDCHAR
STARTCHAR 362b
ENCODING 13867
SWIDTH 960 0
DWIDTH 12 0
BBX 15 12 -1 -2
BITMAP
0010
1E90
1290
2520
2520
2520
4A40
4A70
7BC0
8C80
0080
0080
ENDCHAR
STARTCHAR 362c
ENCODING 13868
SWIDTH 960 0
DWIDTH 12 0
BBX 15 12 -1 -2
BITMAP
0070
0780
0080
3FF0
07C0
1C60
6FB0
3FE0
2FA0
5140
5F40
40C0
ENDCHAR
STARTCHAR 362d
ENCODING 13869
SWIDTH 960 0
DWIDTH 12 0
BBX 15 12 -1 -2
BITMAP
0840
0BF8
0930
1140
3FF8
1220
27C0
2440
3FC0
C500
0920
30E0
ENDCHAR
STARTCHAR 362e
ENCODING 13870
SWIDTH 960 0
DWIDTH 12 0
BBX 15 12 -1 -2
BITMAP
0020
0420
05FC
0848
2B50
2AE0
57F0
5480
5580
FA80
0440
1820
ENDCHAR
STARTCHAR 362f
ENCODING 13871
SWIDTH 960 0
DWIDTH 12 0
BBX 15 12 -1 -2
BITMAP
0040
1E50
0388
06F8
3C48
21F0
7AA0
0BE0
0AA0
1120
21E0
CE20
ENDCHAR
STARTCHAR 3630
ENCODING 13872
SWIDTH 960 0
DWIDTH 12 0
BBX 15 12 -1 -2
BITMAP
0000
1FFC
0528
0BF0
3A50
23F0
7FF0
14A0
17E0
2940
2FC0
DFE0
ENDCHAR
STARTCHAR 3631
ENCODING 13873
SWIDTH 960 0
DWIDTH 12 0
BBX 15 12 -1 -2
BITMAP
0420
0420
0420
1BF0
1840
2C40
5FF0
1100
1240
2480
27C0
3C40
ENDCHAR
STARTCHAR 3632
ENCODING 13874
SWIDTH 960 0
DWIDTH 12 0
BBX 15 12 -1 -2
BITMAP
00F0
1F90
0490
09A0
0F68
3A28
0430
0A00
2A20
5220
90A0
0F80
ENDCHAR
STARTCHAR 3633
ENCODING 13875
SWIDTH 960 0
DWIDTH 12 0
BBX 15 12 -1 -2
BITMAP
0220
0220
0FF8
0440
0440
3FF8
0880
1440
75F0
2940
4940
1800
ENDCHAR
STARTCHAR 3634
ENCODING 13876
SWIDTH 960 0
DWIDTH 12 0
BBX 15 12 -1 -2
BITMAP
0420
0420
07FC
3C40
0948
0970
1FD0
7080
1180
2280
2440
7820
ENDCHAR
STARTCHAR 3635
ENCODING 13877
SWIDTH 960 0
DWIDTH 12 0
BBX 15 12 -1 -2
BITMAP
0420
04A0
1F20
0AF8
3F90
0BA0
3CA0
48C0
0E40
F180
1240
3C20
ENDCHAR
STARTCHAR 3636
ENCODING 13878
SWIDTH 960 0
DWIDTH 12 0
BBX 15 12 -1 -2
BITMAP
04F8
0420
07FC
3CA0
0910
1F68
3940
37F0
55D0
AAA0
2BA0
2860
ENDCHAR
STARTCHAR 3637
ENCODING 13879
SWIDTH 960 0
DWIDTH 12 0
BBX 15 12 -1 -2
BITMAP
0800
05F8
0108
2210
1210
03F0
0280
1280
2480
4520
8920
90E0
ENDCHAR
STARTCHAR 3638
ENCODING 13880
SWIDTH 960 0
DWIDTH 12 0
BBX 15 12 -1 -2
BITMAP
1200
0BFC
0420
1840
2840
0FF0
1880
3080
5080
2100
2100
CFE0
ENDCHAR
STARTCHAR 3639
ENCODING 13881
SWIDTH 960 0
DWIDTH 12 0
BBX 15 12 -1 -2
BITMAP
1240
0A40
07F8
1C90
2AA0
0A80
1FF0
3100
5300
2500
2880
D060
ENDCHAR
STARTCHAR 363a
ENCODING 13882
SWIDTH 960 0
DWIDTH 12 0
BBX 15 12 -1 -2
BITMAP
08F8
0820
0EFC
18A0
2B18
09E0
7940
17F0
2DD0
4AA0
8BA0
0860
ENDCHAR
STARTCHAR 363b
ENCODING 13883
SWIDTH 960 0
DWIDTH 12 0
BBX 15 12 -1 -2
BITMAP
0080
1C80
15FC
2A08
3C28
2F68
5550
76D0
5450
AFA0
A020
A0C0
ENDCHAR
STARTCHAR 363c
ENCODING 13884
SWIDTH 960 0
DWIDTH 12 0
BBX 15 12 -1 -2
BITMAP
0080
07F0
0090
0960
3EF8
1A48
6D30
1FC0
1040
3F80
2080
2180
ENDCHAR
STARTCHAR 363d
ENCODING 13885
SWIDTH 960 0
DWIDTH 12 0
BBX 15 12 -1 -2
BITMAP
0200
0DF8
0948
1FF0
1290
1390
3DE0
2720
7FF0
0900
1080
6040
ENDCHAR
STARTCHAR 363e
ENCODING 13886
SWIDTH 960 0
DWIDTH 12 0
BBX 15 12 -1 -2
BITMAP
0220
1FFC
0220
0FE0
0100
3FF8
1DC0
6730
3FE0
4E40
4A40
4EC0
ENDCHAR
STARTCHAR 363f
ENCODING 13887
SWIDTH 960 0
DWIDTH 12 0
BBX 15 12 -1 -2
BITMAP
0800
09DC
1554
1BA8
0AB0
13A8
3448
7648
1750
2DE0
4980
8080
ENDCHAR
STARTCHAR 3640
ENCODING 13888
SWIDTH 960 0
DWIDTH 12 0
BBX 15 12 -1 -2
BITMAP
0420
04F8
0A50
13F8
3D10
09F0
7E20
13E0
5A40
6A80
34A0
C860
ENDCHAR
STARTCHAR 3641
ENCODING 13889
SWIDTH 960 0
DWIDTH 12 0
BBX 15 12 -1 -2
BITMAP
05DC
1B54
0DD8
3F28
0AA8
3370
5FF0
0880
7FF0
3F80
2080
3F80
ENDCHAR
STARTCHAR 3642
ENCODING 13890
SWIDTH 960 0
DWIDTH 12 0
BBX 15 12 -1 -2
BITMAP
05DC
1B54
0DD8
3F28
0AA8
17F0
0340
1FC0
68B0
1F00
1280
39C0
ENDCHAR
STARTCHAR 3643
ENCODING 13891
SWIDTH 960 0
DWIDTH 12 0
BBX 15 12 -1 -2
BITMAP
0520
1FBC
08E8
3DB0
1550
1FE8
1100
1FE0
1100
3FE0
52A0
88C0
ENDCHAR
STARTCHAR 3644
ENCODING 13892
SWIDTH 960 0
DWIDTH 12 0
BBX 15 12 -1 -2
BITMAP
0460
0580
093C
0A48
1248
3248
2490
2490
27A0
5DC0
4100
4100
ENDCHAR
STARTCHAR 3645
ENCODING 13893
SWIDTH 960 0
DWIDTH 12 0
BBX 15 12 -1 -2
BITMAP
047C
0484
1638
1920
07F8
0428
0F40
3570
4F40
4980
9480
2460
ENDCHAR
STARTCHAR 3646
ENCODING 13894
SWIDTH 960 0
DWIDTH 12 0
BBX 15 12 -1 -2
BITMAP
0080
0FF0
0080
0940
3FF0
0840
0000
7FF0
0900
1240
2240
C1C0
ENDCHAR
STARTCHAR 3647
ENCODING 13895
SWIDTH 960 0
DWIDTH 12 0
BBX 15 12 -1 -2
BITMAP
0040
03F8
1C40
2AA0
2FF8
3A20
5000
5FF0
7280
8520
0920
30E0
ENDCHAR
STARTCHAR 3648
ENCODING 13896
SWIDTH 960 0
DWIDTH 12 0
BBX 15 12 -1 -2
BITMAP
0140
0550
1FFC
0440
1FF0
0100
1FC0
0200
7FF0
1500
2480
4440
ENDCHAR
STARTCHAR 3649
ENCODING 13897
SWIDTH 960 0
DWIDTH 12 0
BBX 15 12 -1 -2
BITMAP
0000
07F8
0408
0FF0
0800
0FF8
1010
1790
2490
4920
8F20
00C0
ENDCHAR
STARTCHAR 364a
ENCODING 13898
SWIDTH 960 0
DWIDTH 12 0
BBX 15 12 -1 -2
BITMAP
0120
0120
0120
1FF8
1248
1248
3FF0
2490
2490
4920
4920
7FE0
ENDCHAR
STARTCHAR 364b
ENCODING 13899
SWIDTH 960 0
DWIDTH 12 0
BBX 15 12 -1 -2
BITMAP
0400
05FC
04C0
3D00
0BB8
18D0
3ED0
3AA0
5AE0
BBA0
2300
2FE0
ENDCHAR
STARTCHAR 364c
ENCODING 13900
SWIDTH 960 0
DWIDTH 12 0
BBX 15 12 -1 -2
BITMAP
0000
0FF8
0080
0100
0100
0100
1FC0
0200
0280
0480
0480
FFE0
ENDCHAR
STARTCHAR 364d
ENCODING 13901
SWIDTH 960 0
DWIDTH 12 0
BBX 15 12 -1 -2
BITMAP
0400
05FC
0504
3EE8
0A08
1AE8
3D50
3550
55D0
A820
2820
2860
ENDCHAR
STARTCHAR 364e
ENCODING 13902
SWIDTH 960 0
DWIDTH 12 0
BBX 15 12 -1 -2
BITMAP
0418
15E0
0E20
0840
3C40
0FF8
3880
3480
5080
A100
2100
2100
ENDCHAR
STARTCHAR 364f
ENCODING 13903
SWIDTH 960 0
DWIDTH 12 0
BBX 15 12 -1 -2
BITMAP
0450
05FC
0850
0BF8
1248
33F8
2080
27F0
2080
47C0
4100
4FE0
ENDCHAR
STARTCHAR 3650
ENCODING 13904
SWIDTH 960 0
DWIDTH 12 0
BBX 15 12 -1 -2
BITMAP
0520
1FA0
0520
0FF8
1548
1F48
0890
3E90
0890
7920
1E20
F4C0
ENDCHAR
STARTCHAR 3651
ENCODING 13905
SWIDTH 960 0
DWIDTH 12 0
BBX 15 12 -1 -2
BITMAP
0440
0440
04FC
3D08
0A08
0D88
1050
1990
2610
C020
0020
00C0
ENDCHAR
STARTCHAR 3652
ENCODING 13906
SWIDTH 960 0
DWIDTH 12 0
BBX 15 12 -1 -2
BITMAP
0080
0080
0080
1FF0
1110
1110
2220
2220
22C0
0400
0400
0400
ENDCHAR
STARTCHAR 3653
ENCODING 13907
SWIDTH 960 0
DWIDTH 12 0
BBX 15 12 -1 -2
BITMAP
0440
04F8
0A88
13F0
3F10
0BF0
7C80
13F0
5A90
6D20
3560
C100
ENDCHAR
STARTCHAR 3654
ENCODING 13908
SWIDTH 960 0
DWIDTH 12 0
BBX 15 12 -1 -2
BITMAP
0010
0060
0780
0800
0FF8
0880
1100
1100
2100
2200
4200
8200
ENDCHAR
STARTCHAR 3655
ENCODING 13909
SWIDTH 960 0
DWIDTH 12 0
BBX 15 12 -1 -2
BITMAP
0340
0C40
0840
10F8
1F48
1650
2C80
2880
2980
5280
9440
1820
ENDCHAR
STARTCHAR 3656
ENCODING 13910
SWIDTH 960 0
DWIDTH 12 0
BBX 15 12 -1 -2
BITMAP
0440
0440
0A40
12F8
3F48
0A50
7C80
1080
5980
6A80
3440
C820
ENDCHAR
STARTCHAR 3657
ENCODING 13911
SWIDTH 960 0
DWIDTH 12 0
BBX 15 12 -1 -2
BITMAP
1F7C
0410
1F7C
0820
3DF8
0780
18C0
6FB0
0000
3F80
0100
0600
ENDCHAR
STARTCHAR 3658
ENCODING 13912
SWIDTH 960 0
DWIDTH 12 0
BBX 15 12 -1 -2
BITMAP
0420
1FFC
06E0
0960
1950
2848
1FC0
0000
7FF0
2480
C440
0C00
ENDCHAR
STARTCHAR 3659
ENCODING 13913
SWIDTH 960 0
DWIDTH 12 0
BBX 15 12 -1 -2
BITMAP
0080
0160
0FF0
324C
0990
0E50
1BE0
0200
3FF0
4520
5FA0
40A0
ENDCHAR
STARTCHAR 365a
ENCODING 13914
SWIDTH 960 0
DWIDTH 12 0
BBX 15 12 -1 -2
BITMAP
0840
0F7C
1390
1E40
13F8
1E48
2490
2490
3D10
4920
4A20
9CC0
ENDCHAR
STARTCHAR 365b
ENCODING 13915
SWIDTH 960 0
DWIDTH 12 0
BBX 15 12 -1 -2
BITMAP
0000
0FBC
0A08
1F50
1F20
14D0
3F10
18C0
0720
FFE0
1520
6480
ENDCHAR
STARTCHAR 365c
ENCODING 13916
SWIDTH 960 0
DWIDTH 12 0
BBX 15 12 -1 -2
BITMAP
0220
1FFC
0220
0070
0F80
0800
1FF0
1100
2100
2200
4200
8200
ENDCHAR
STARTCHAR 365d
ENCODING 13917
SWIDTH 960 0
DWIDTH 12 0
BBX 15 12 -1 -2
BITMAP
0120
1FFE
0120
1FF8
10C8
1708
2210
3FF0
2F10
74A0
4420
7FE0
ENDCHAR
STARTCHAR 365e
ENCODING 13918
SWIDTH 960 0
DWIDTH 12 0
BBX 15 12 -1 -2
BITMAP
0420
0420
1F60
02A0
0510
0EE8
3800
57E0
1020
2040
2080
2100
ENDCHAR
STARTCHAR 365f
ENCODING 13919
SWIDTH 960 0
DWIDTH 12 0
BBX 15 12 -1 -2
BITMAP
0890
0BFC
1C90
0BF0
0D28
13F8
3000
7FF0
24A0
4920
5120
4300
ENDCHAR
STARTCHAR 3660
ENCODING 13920
SWIDTH 960 0
DWIDTH 12 0
BBX 15 12 -1 -2
BITMAP
0E48
01FC
1E48
00F0
1D50
01F0
3880
07E0
7880
97C0
9100
FFE0
ENDCHAR
STARTCHAR 3661
ENCODING 13921
SWIDTH 960 0
DWIDTH 12 0
BBX 15 12 -1 -2
BITMAP
000C
08F0
0480
0100
01F8
3920
1240
1240
1440
3880
5800
87F0
ENDCHAR
STARTCHAR 3662
ENCODING 13922
SWIDTH 960 0
DWIDTH 12 0
BBX 15 12 -1 -2
BITMAP
0080
0080
0140
0640
0FE0
3118
0200
3FE0
0200
2480
1500
FFE0
ENDCHAR
STARTCHAR 3663
ENCODING 13923
SWIDTH 960 0
DWIDTH 12 0
BBX 15 12 -1 -2
BITMAP
0040
0060
1CA0
2920
2BF0
2C08
5000
57E0
5040
E080
0100
0200
ENDCHAR
STARTCHAR 3664
ENCODING 13924
SWIDTH 960 0
DWIDTH 12 0
BBX 15 12 -1 -2
BITMAP
0400
04F8
0A88
13F0
3D10
09F0
7E90
12A0
5AC0
6C80
3740
CC20
ENDCHAR
STARTCHAR 3665
ENCODING 13925
SWIDTH 960 0
DWIDTH 12 0
BBX 15 12 -1 -2
BITMAP
0100
0100
0100
1FC0
0240
0240
0480
0480
0880
1120
2120
40E0
ENDCHAR
STARTCHAR 3666
ENCODING 13926
SWIDTH 960 0
DWIDTH 12 0
BBX 15 12 -1 -2
BITMAP
0200
03F8
0308
0610
0BF0
3A10
57E0
1420
1FF0
2280
2440
3820
ENDCHAR
STARTCHAR 3667
ENCODING 13927
SWIDTH 960 0
DWIDTH 12 0
BBX 15 12 -1 -2
BITMAP
0200
0200
07FC
0808
17C8
2448
0890
0890
0F90
0020
0020
00C0
ENDCHAR
STARTCHAR 3668
ENCODING 13928
SWIDTH 960 0
DWIDTH 12 0
BBX 15 12 -1 -2
BITMAP
0000
0FFC
0820
1020
1640
1180
2100
2280
2C40
5000
7FE0
4000
ENDCHAR
STARTCHAR 3669
ENCODING 13929
SWIDTH 960 0
DWIDTH 12 0
BBX 15 12 -1 -2
BITMAP
1280
0C80
18FC
2908
0A08
0FE8
3250
5250
13D0
2020
2020
C0C0
ENDCHAR
STARTCHAR 366a
ENCODING 13930
SWIDTH 960 0
DWIDTH 12 0
BBX 15 12 -1 -2
BITMAP
0040
1F40
04B8
0890
3D10
0A20
1440
10C0
3D40
C240
0420
1820
ENDCHAR
STARTCHAR 366b
ENCODING 13931
SWIDTH 960 0
DWIDTH 12 0
BBX 15 12 -1 -2
BITMAP
0800
08FC
0F80
1900
29F0
0910
3E20
13E0
1A00
2C00
4400
87E0
ENDCHAR
STARTCHAR 366c
ENCODING 13932
SWIDTH 960 0
DWIDTH 12 0
BBX 15 12 -1 -2
BITMAP
0220
1FFC
0220
0540
0100
3FF8
0200
0200
1FC0
2080
2080
3F80
ENDCHAR
STARTCHAR 366d
ENCODING 13933
SWIDTH 960 0
DWIDTH 12 0
BBX 15 12 -1 -2
BITMAP
0400
0F7C
0940
1E88
12C8
1EB0
2720
7D50
1D90
2B00
CA00
1BE0
ENDCHAR
STARTCHAR 366e
ENCODING 13934
SWIDTH 960 0
DWIDTH 12 0
BBX 15 12 -1 -2
BITMAP
0000
1FFC
1488
3D10
2950
3D60
5240
7EA0
0710
AE00
8C00
37E0
ENDCHAR
STARTCHAR 366f
ENCODING 13935
SWIDTH 960 0
DWIDTH 12 0
BBX 15 12 -1 -2
BITMAP
0008
1F10
1460
3C80
28F8
3C90
5120
7D20
0520
AA40
8A40
37F0
ENDCHAR
STARTCHAR 3670
ENCODING 13936
SWIDTH 960 0
DWIDTH 12 0
BBX 15 12 -1 -2
BITMAP
0040
1F40
14FC
3D08
29E8
3F28
5150
7D50
05D0
A820
8820
30C0
ENDCHAR
STARTCHAR 3671
ENCODING 13937
SWIDTH 960 0
DWIDTH 12 0
BBX 15 12 -1 -2
BITMAP
07E0
0420
07E0
0840
0FC0
0840
1F80
0000
7FF0
1200
2180
C040
ENDCHAR
STARTCHAR 3672
ENCODING 13938
SWIDTH 960 0
DWIDTH 12 0
BBX 15 12 -1 -2
BITMAP
07F0
0490
07F0
0920
3FF8
2688
4B90
5C50
0A70
5240
90A0
0F80
ENDCHAR
STARTCHAR 3673
ENCODING 13939
SWIDTH 960 0
DWIDTH 12 0
BBX 15 12 -1 -2
BITMAP
0080
00F0
0FFC
1110
17F0
1A20
37C0
3F80
4080
7FE0
8880
B040
ENDCHAR
STARTCHAR 3674
ENCODING 13940
SWIDTH 960 0
DWIDTH 12 0
BBX 15 12 -1 -2
BITMAP
0040
00A0
1FF0
2C10
2BE8
2A20
57C0
57C0
5560
E880
0CC0
3820
ENDCHAR
STARTCHAR 3675
ENCODING 13941
SWIDTH 960 0
DWIDTH 12 0
BBX 15 12 -1 -2
BITMAP
0080
1FFC
1288
2488
0490
0870
3000
1FE0
0200
0400
0400
FFE0
ENDCHAR
STARTCHAR 3676
ENCODING 13942
SWIDTH 960 0
DWIDTH 12 0
BBX 15 12 -1 -2
BITMAP
0400
05F8
0948
0BF0
1290
33F0
2100
2FF0
2950
53A0
5CA0
5060
ENDCHAR
STARTCHAR 3677
ENCODING 13943
SWIDTH 960 0
DWIDTH 12 0
BBX 15 12 -1 -2
BITMAP
0080
1FFC
1004
2FE8
0920
0FE0
1240
3FE0
22A0
5F40
4140
40C0
ENDCHAR
STARTCHAR 3678
ENCODING 13944
SWIDTH 960 0
DWIDTH 12 0
BBX 15 12 -1 -2
BITMAP
01F8
0948
05F8
0290
03F0
3880
17F0
1550
17D0
18E0
4800
87F0
ENDCHAR
STARTCHAR 3679
ENCODING 13945
SWIDTH 960 0
DWIDTH 12 0
BBX 15 12 -1 -2
BITMAP
0000
1DF8
1548
2BF0
3290
33F0
5100
5FF0
7950
D3A0
9CA0
9060
ENDCHAR
STARTCHAR 367a
ENCODING 13946
SWIDTH 960 0
DWIDTH 12 0
BBX 15 12 -1 -2
BITMAP
0080
0080
0FF8
1110
1FF0
0100
7FF0
4210
7FF0
0400
0400
0400
ENDCHAR
STARTCHAR 367b
ENCODING 13947
SWIDTH 960 0
DWIDTH 12 0
BBX 15 12 -1 -2
BITMAP
0510
05DC
0728
3D10
0BB8
1AA8
3F50
3550
5750
A8E0
2E80
2A80
ENDCHAR
STARTCHAR 367c
ENCODING 13948
SWIDTH 960 0
DWIDTH 12 0
BBX 15 12 -1 -2
BITMAP
0444
0454
0A54
12A8
3EA8
08A8
7D50
1150
5950
6AA0
3220
C420
ENDCHAR
STARTCHAR 367d
ENCODING 13949
SWIDTH 960 0
DWIDTH 12 0
BBX 15 12 -1 -2
BITMAP
0FFC
0804
0FFC
1490
12A0
17E0
2820
2FE0
2820
5FC0
9040
10C0
ENDCHAR
STARTCHAR 367e
ENCODING 13950
SWIDTH 960 0
DWIDTH 12 0
BBX 15 12 -1 -2
BITMAP
0000
0FFC
0804
1FF8
1080
1490
2920
2FE0
2100
6220
A220
3FE0
ENDCHAR
STARTCHAR 3721
ENCODING 14113
SWIDTH 960 0
DWIDTH 12 0
BBX 15 12 -1 -2
BITMAP
0400
05FC
0504
3FF8
0A20
0AA8
1D50
75F0
1440
2CA0
34A0
67E0
ENDCHAR
STARTCHAR 3722
ENCODING 14114
SWIDTH 960 0
DWIDTH 12 0
BBX 15 12 -1 -2
BITMAP
0080
1FFC
1214
0FE0
3838
0FE0
1100
1920
3FE0
4200
A240
3FC0
ENDCHAR
STARTCHAR 3723
ENCODING 14115
SWIDTH 960 0
DWIDTH 12 0
BBX 15 12 -1 -2
BITMAP
0080
0098
1EE0
0580
0960
3118
0600
1FC0
1040
3F80
2080
3F80
ENDCHAR
STARTCHAR 3724
ENCODING 14116
SWIDTH 960 0
DWIDTH 12 0
BBX 15 12 -1 -2
BITMAP
0A50
1F50
0A90
1D28
0AA8
3EB0
5540
7D40
1140
FAA0
22A0
2260
ENDCHAR
STARTCHAR 3725
ENCODING 14117
SWIDTH 960 0
DWIDTH 12 0
BBX 15 12 -1 -2
BITMAP
0BE8
1090
1FE8
1568
3FF8
1130
7FE0
2250
3FC0
2080
2080
3F80
ENDCHAR
STARTCHAR 3726
ENCODING 14118
SWIDTH 960 0
DWIDTH 12 0
BBX 15 12 -1 -2
BITMAP
0080
1FFC
1348
1C70
1080
0BF0
4100
2FF0
0100
2FC0
4200
BFE0
ENDCHAR
STARTCHAR 3727
ENCODING 14119
SWIDTH 960 0
DWIDTH 12 0
BBX 15 12 -1 -2
BITMAP
0448
0970
1FC4
1338
1E00
12B0
3DC0
2510
44F0
0000
5240
8920
ENDCHAR
STARTCHAR 3728
ENCODING 14120
SWIDTH 960 0
DWIDTH 12 0
BBX 15 12 -1 -2
BITMAP
0000
1DF8
1548
2BF0
3290
33F0
5000
5FF0
6560
C980
8A40
9C20
ENDCHAR
STARTCHAR 3729
ENCODING 14121
SWIDTH 960 0
DWIDTH 12 0
BBX 15 12 -1 -2
BITMAP
0100
01E0
0E40
3180
0460
3A38
1240
0A80
7FF0
0E00
3580
C460
ENDCHAR
STARTCHAR 372a
ENCODING 14122
SWIDTH 960 0
DWIDTH 12 0
BBX 15 12 -1 -2
BITMAP
0000
1FFC
0140
1FF0
1290
1FF0
0200
7FF0
0F00
3480
C460
0400
ENDCHAR
STARTCHAR 372b
ENCODING 14123
SWIDTH 960 0
DWIDTH 12 0
BBX 15 12 -1 -2
BITMAP
0470
0450
1C70
1400
0BB8
36A8
5F70
1080
57F0
AB80
A540
2920
ENDCHAR
STARTCHAR 372c
ENCODING 14124
SWIDTH 960 0
DWIDTH 12 0
BBX 15 12 -1 -2
BITMAP
07F0
0220
0380
0C60
3FF0
16A0
1AC0
6720
7FF0
0E00
3580
C460
ENDCHAR
STARTCHAR 372d
ENCODING 14125
SWIDTH 960 0
DWIDTH 12 0
BBX 15 12 -1 -2
BITMAP
0428
04C8
0A48
1294
3DF4
08B8
7B20
13A0
5DE0
72A0
3B20
C210
ENDCHAR
STARTCHAR 372e
ENCODING 14126
SWIDTH 960 0
DWIDTH 12 0
BBX 15 12 -1 -2
BITMAP
0FA0
0220
1FFC
1548
1F48
1548
3E90
0910
7E60
4080
5240
8920
ENDCHAR
STARTCHAR 372f
ENCODING 14127
SWIDTH 960 0
DWIDTH 12 0
BBX 15 12 -1 -2
BITMAP
0000
0FF0
0110
3FF8
0220
0220
3FC0
0800
3FC0
5080
9080
1F80
ENDCHAR
STARTCHAR 3730
ENCODING 14128
SWIDTH 960 0
DWIDTH 12 0
BBX 15 12 -1 -2
BITMAP
0220
1FFC
0220
1FF0
0100
3FF8
1240
1FC0
1240
FFE0
5240
8920
ENDCHAR
STARTCHAR 3731
ENCODING 14129
SWIDTH 960 0
DWIDTH 12 0
BBX 15 12 -1 -2
BITMAP
0E44
0054
1F54
00A8
1CA8
00A8
3950
0150
7A50
92A0
9420
F420
ENDCHAR
STARTCHAR 3732
ENCODING 14130
SWIDTH 960 0
DWIDTH 12 0
BBX 15 12 -1 -2
BITMAP
0044
0FA8
04FC
3FA0
0920
1FF8
1040
1E40
33F0
6480
A480
3C80
ENDCHAR
STARTCHAR 3733
ENCODING 14131
SWIDTH 960 0
DWIDTH 12 0
BBX 15 12 -1 -2
BITMAP
1FFC
1084
17F4
0100
1FF0
1110
3FE0
2220
3FE0
0400
FFE0
0400
ENDCHAR
STARTCHAR 3734
ENCODING 14132
SWIDTH 960 0
DWIDTH 12 0
BBX 15 12 -1 -2
BITMAP
0000
0FBC
04A8
3FD0
0960
1F50
1090
1E90
32A0
65C0
A500
3D00
ENDCHAR
STARTCHAR 3735
ENCODING 14133
SWIDTH 960 0
DWIDTH 12 0
BBX 15 12 -1 -2
BITMAP
0220
0220
0FA0
0440
3F60
0450
0890
3E90
0880
1F00
E100
0100
ENDCHAR
STARTCHAR 3736
ENCODING 14134
SWIDTH 960 0
DWIDTH 12 0
BBX 15 12 -1 -2
BITMAP
0400
0478
1F48
0A90
0A90
16F0
6000
7FF0
0A20
3240
DD80
3060
ENDCHAR
STARTCHAR 3737
ENCODING 14135
SWIDTH 960 0
DWIDTH 12 0
BBX 15 12 -1 -2
BITMAP
0400
0478
1F50
02A0
04C0
08A0
3920
5510
1120
22C0
2200
2200
ENDCHAR
STARTCHAR 3738
ENCODING 14136
SWIDTH 960 0
DWIDTH 12 0
BBX 15 12 -1 -2
BITMAP
0218
03E0
02C8
0720
08C0
3890
57D0
1080
12A0
2520
2920
2100
ENDCHAR
STARTCHAR 3739
ENCODING 14137
SWIDTH 960 0
DWIDTH 12 0
BBX 15 12 -1 -2
BITMAP
0400
05FC
0420
0CF0
1590
36F0
2920
29E0
2F20
4BC0
4340
4C20
ENDCHAR
STARTCHAR 373a
ENCODING 14138
SWIDTH 960 0
DWIDTH 12 0
BBX 15 12 -1 -2
BITMAP
0004
1FA4
0924
1248
1248
3FC8
2490
2490
2490
4820
4820
8860
ENDCHAR
STARTCHAR 373b
ENCODING 14139
SWIDTH 960 0
DWIDTH 12 0
BBX 15 12 -1 -2
BITMAP
0000
07F0
0410
0820
0820
0FE0
0500
0500
0900
1220
2220
C1E0
ENDCHAR
STARTCHAR 373c
ENCODING 14140
SWIDTH 960 0
DWIDTH 12 0
BBX 15 12 -1 -2
BITMAP
1F40
007C
0FC8
1350
1E20
10D0
2310
4000
1FC0
2080
2080
3F80
ENDCHAR
STARTCHAR 373d
ENCODING 14141
SWIDTH 960 0
DWIDTH 12 0
BBX 15 12 -1 -2
BITMAP
0080
0080
07F8
0100
0100
1FF8
0200
0200
3FE0
0400
0400
FFE0
ENDCHAR
STARTCHAR 373e
ENCODING 14142
SWIDTH 960 0
DWIDTH 12 0
BBX 15 12 -1 -2
BITMAP
0020
1E20
05F8
0840
3C40
0BF8
1080
1080
1FE0
E100
0100
1FE0
ENDCHAR
STARTCHAR 373f
ENCODING 14143
SWIDTH 960 0
DWIDTH 12 0
BBX 15 12 -1 -2
BITMAP
0004
0FE4
0524
0A48
3FC8
1A48
2210
4230
1FC0
0400
0400
FFE0
ENDCHAR
STARTCHAR 3740
ENCODING 14144
SWIDTH 960 0
DWIDTH 12 0
BBX 15 12 -1 -2
BITMAP
0200
0F7C
0224
1F48
0448
0F90
7260
0200
7FF0
0A00
3180
C060
ENDCHAR
STARTCHAR 3741
ENCODING 14145
SWIDTH 960 0
DWIDTH 12 0
BBX 15 12 -1 -2
BITMAP
0010
1F90
0920
1250
1290
3F20
2440
2490
2420
4840
4880
8900
ENDCHAR
STARTCHAR 3742
ENCODING 14146
SWIDTH 960 0
DWIDTH 12 0
BBX 15 12 -1 -2
BITMAP
0400
05F8
0C10
35A0
0840
09A0
3690
5080
17E0
2100
2100
3FE0
ENDCHAR
STARTCHAR 3743
ENCODING 14147
SWIDTH 960 0
DWIDTH 12 0
BBX 15 12 -1 -2
BITMAP
0080
1FFC
0080
0FF0
0910
0FF0
1220
1FE0
1200
5240
90A0
0F80
ENDCHAR
STARTCHAR 3744
ENCODING 14148
SWIDTH 960 0
DWIDTH 12 0
BBX 15 12 -1 -2
BITMAP
0080
0FFC
0920
1FF0
1250
1FF8
2D20
33D0
2C90
7600
8980
7060
ENDCHAR
STARTCHAR 3745
ENCODING 14149
SWIDTH 960 0
DWIDTH 12 0
BBX 15 12 -1 -2
BITMAP
1F78
0420
1FF8
0840
1FF0
0020
3FC0
0040
3FC0
5440
92A0
0F80
ENDCHAR
STARTCHAR 3746
ENCODING 14150
SWIDTH 960 0
DWIDTH 12 0
BBX 15 12 -1 -2
BITMAP
0320
1C78
0448
3EF0
0890
1EF0
2520
3DE0
0A00
5240
90A0
0F80
ENDCHAR
STARTCHAR 3747
ENCODING 14151
SWIDTH 960 0
DWIDTH 12 0
BBX 15 12 -1 -2
BITMAP
04F8
0488
04F8
3D10
09F0
0880
1BF0
7610
1BD0
2420
23A0
60C0
ENDCHAR
STARTCHAR 3748
ENCODING 14152
SWIDTH 960 0
DWIDTH 12 0
BBX 15 12 -1 -2
BITMAP
0488
04FC
0790
3DF8
0920
09F8
1A40
77F0
1220
2260
2420
68C0
ENDCHAR
STARTCHAR 3749
ENCODING 14153
SWIDTH 960 0
DWIDTH 12 0
BBX 15 12 -1 -2
BITMAP
0520
1FA0
057C
0890
1F90
11A0
7AA0
2A40
2A40
7580
0640
1820
ENDCHAR
STARTCHAR 374a
ENCODING 14154
SWIDTH 960 0
DWIDTH 12 0
BBX 15 12 -1 -2
BITMAP
07F0
0410
07F0
0820
3FF8
0000
1FC0
1040
1FC0
0500
2480
CC40
ENDCHAR
STARTCHAR 374b
ENCODING 14155
SWIDTH 960 0
DWIDTH 12 0
BBX 15 12 -1 -2
BITMAP
0420
0420
05F8
3E40
0840
1FF8
3880
3480
53E0
A100
2100
2FE0
ENDCHAR
STARTCHAR 374c
ENCODING 14156
SWIDTH 960 0
DWIDTH 12 0
BBX 15 12 -1 -2
BITMAP
0878
0788
0290
2290
12A0
03F0
0100
1FF0
2100
4300
8480
9860
ENDCHAR
STARTCHAR 374d
ENCODING 14157
SWIDTH 960 0
DWIDTH 12 0
BBX 15 12 -1 -2
BITMAP
0020
1F20
15F8
2A40
2A40
3FF8
5480
5480
57E0
F900
0100
0FE0
ENDCHAR
STARTCHAR 374e
ENCODING 14158
SWIDTH 960 0
DWIDTH 12 0
BBX 15 12 -1 -2
BITMAP
0248
1DFC
0460
0898
3F10
09E0
3A10
37F0
5220
A7C0
2440
27C0
ENDCHAR
STARTCHAR 374f
ENCODING 14159
SWIDTH 960 0
DWIDTH 12 0
BBX 15 12 -1 -2
BITMAP
0038
0FC0
0190
0A40
0480
0320
7FE0
0210
1280
2480
4440
0400
ENDCHAR
STARTCHAR 3750
ENCODING 14160
SWIDTH 960 0
DWIDTH 12 0
BBX 15 12 -1 -2
BITMAP
0400
04F8
1C50
1460
08A0
3718
5C80
1080
5BE0
AD00
A100
2FE0
ENDCHAR
STARTCHAR 3751
ENCODING 14161
SWIDTH 960 0
DWIDTH 12 0
BBX 15 12 -1 -2
BITMAP
0490
0490
1CDC
1570
09F8
3520
5EE0
12E0
5B50
AC80
A480
27E0
ENDCHAR
STARTCHAR 3752
ENCODING 14162
SWIDTH 960 0
DWIDTH 12 0
BBX 15 12 -1 -2
BITMAP
1F70
0454
1F9C
2BF0
3E90
08C0
7F30
1940
0680
FFE0
1500
64C0
ENDCHAR
STARTCHAR 3753
ENCODING 14163
SWIDTH 960 0
DWIDTH 12 0
BBX 15 12 -1 -2
BITMAP
0000
0FF8
0948
1FF0
0440
1F40
08C0
7FA0
0890
7D00
1D00
F100
ENDCHAR
STARTCHAR 3754
ENCODING 14164
SWIDTH 960 0
DWIDTH 12 0
BBX 15 12 -1 -2
BITMAP
0220
1FFC
0220
1FE0
04C0
0600
1980
6270
1FC0
0400
0400
FFE0
ENDCHAR
STARTCHAR 3755
ENCODING 14165
SWIDTH 960 0
DWIDTH 12 0
BBX 15 12 -1 -2
BITMAP
0240
1FFC
0240
0010
3F90
0A90
1520
7F20
1520
2A40
4840
88C0
ENDCHAR
STARTCHAR 3756
ENCODING 14166
SWIDTH 960 0
DWIDTH 12 0
BBX 15 12 -1 -2
BITMAP
0910
0490
04E0
3FB8
2108
2FE8
1240
1240
1FC0
0440
07E0
F820
ENDCHAR
STARTCHAR 3757
ENCODING 14167
SWIDTH 960 0
DWIDTH 12 0
BBX 15 12 -1 -2
BITMAP
0E20
0020
1F20
0040
1FF8
0040
3880
0080
7880
9100
9100
F100
ENDCHAR
STARTCHAR 3758
ENCODING 14168
SWIDTH 960 0
DWIDTH 12 0
BBX 15 12 -1 -2
BITMAP
0E80
0098
1FE0
0108
1CF8
0000
3BE0
0220
7BE0
9440
9440
F7C0
ENDCHAR
STARTCHAR 3759
ENCODING 14169
SWIDTH 960 0
DWIDTH 12 0
BBX 15 12 -1 -2
BITMAP
0520
1FBE
08C4
3D48
1530
1DCC
0600
3FF0
0780
3FC0
2040
3FC0
ENDCHAR
STARTCHAR 375a
ENCODING 14170
SWIDTH 960 0
DWIDTH 12 0
BBX 15 12 -1 -2
BITMAP
0400
1F7C
0408
3E50
2A20
3EB8
5440
7C40
11F0
F880
2080
27F0
ENDCHAR
STARTCHAR 375b
ENCODING 14171
SWIDTH 960 0
DWIDTH 12 0
BBX 15 12 -1 -2
BITMAP
0000
1F7C
0120
1278
0C88
32F8
5110
3DF0
1110
2BE0
3140
C620
ENDCHAR
STARTCHAR 375c
ENCODING 14172
SWIDTH 960 0
DWIDTH 12 0
BBX 15 12 -1 -2
BITMAP
0340
1CF8
0088
2BF0
2B00
01F0
7E00
13F0
7C10
22A0
5420
80C0
ENDCHAR
STARTCHAR 375d
ENCODING 14173
SWIDTH 960 0
DWIDTH 12 0
BBX 15 12 -1 -2
BITMAP
0220
1FFC
0220
0440
1FF0
0000
7FF0
0200
0C80
1380
7C40
0040
ENDCHAR
STARTCHAR 375e
ENCODING 14174
SWIDTH 960 0
DWIDTH 12 0
BBX 15 12 -1 -2
BITMAP
0000
0840
05FC
0248
0248
3A48
1490
1790
14E0
1100
4900
87F0
ENDCHAR
STARTCHAR 375f
ENCODING 14175
SWIDTH 960 0
DWIDTH 12 0
BBX 15 12 -1 -2
BITMAP
0420
07FC
0A00
1EF0
2A90
3E90
55E0
7C40
1960
6AA0
54A0
8180
ENDCHAR
STARTCHAR 3760
ENCODING 14176
SWIDTH 960 0
DWIDTH 12 0
BBX 15 12 -1 -2
BITMAP
0384
0224
0FA4
1948
1E48
1048
3E90
2990
3690
5C20
AA20
1060
ENDCHAR
STARTCHAR 3761
ENCODING 14177
SWIDTH 960 0
DWIDTH 12 0
BBX 15 12 -1 -2
BITMAP
0420
1F30
0428
3E78
23C0
3E60
44A0
7CC0
1040
F960
2220
2420
ENDCHAR
STARTCHAR 3762
ENCODING 14178
SWIDTH 960 0
DWIDTH 12 0
BBX 15 12 -1 -2
BITMAP
0238
1FA8
0AAA
1FFC
1550
3FF0
0908
1FC0
0100
FFE0
0200
0600
ENDCHAR
STARTCHAR 3763
ENCODING 14179
SWIDTH 960 0
DWIDTH 12 0
BBX 15 12 -1 -2
BITMAP
0920
07A0
02DC
2750
1590
07A0
04A0
1F40
24C0
4D40
9640
AC20
ENDCHAR
STARTCHAR 3764
ENCODING 14180
SWIDTH 960 0
DWIDTH 12 0
BBX 15 12 -1 -2
BITMAP
0020
1CA8
152C
2BF0
3210
33F0
5420
57E0
66A0
8920
9120
8300
ENDCHAR
STARTCHAR 3765
ENCODING 14181
SWIDTH 960 0
DWIDTH 12 0
BBX 15 12 -1 -2
BITMAP
0440
04B8
0700
3C80
0978
1F20
3A40
3640
5240
A480
2480
2580
ENDCHAR
STARTCHAR 3766
ENCODING 14182
SWIDTH 960 0
DWIDTH 12 0
BBX 15 12 -1 -2
BITMAP
0508
0588
06BC
0F50
11F8
3610
3920
2FF0
2780
4A80
5260
4200
ENDCHAR
STARTCHAR 3767
ENCODING 14183
SWIDTH 960 0
DWIDTH 12 0
BBX 15 12 -1 -2
BITMAP
0200
0200
0400
07F8
0910
1120
2200
0300
0500
1900
2080
C060
ENDCHAR
STARTCHAR 3768
ENCODING 14184
SWIDTH 960 0
DWIDTH 12 0
BBX 15 12 -1 -2
BITMAP
0840
0440
03F8
2090
1090
0090
1FF8
1180
2280
4480
8840
B020
ENDCHAR
STARTCHAR 3769
ENCODING 14185
SWIDTH 960 0
DWIDTH 12 0
BBX 15 12 -1 -2
BITMAP
093C
07D4
0114
0F28
23C8
1D90
0E80
1320
2FD0
2A80
9240
8200
ENDCHAR
STARTCHAR 376a
ENCODING 14186
SWIDTH 960 0
DWIDTH 12 0
BBX 15 12 -1 -2
BITMAP
0080
0080
1FFC
2008
2008
05C0
0880
0880
1080
2080
4040
8020
ENDCHAR
STARTCHAR 376b
ENCODING 14187
SWIDTH 960 0
DWIDTH 12 0
BBX 15 12 -1 -2
BITMAP
0420
0420
1FFC
1440
0840
37F0
5C00
13E0
5A20
AC40
A440
27C0
ENDCHAR
STARTCHAR 376c
ENCODING 14188
SWIDTH 960 0
DWIDTH 12 0
BBX 15 12 -1 -2
BITMAP
0100
0100
0600
1BF0
1290
1290
2520
2520
2520
4A40
FFE0
0000
ENDCHAR
STARTCHAR 376d
ENCODING 14189
SWIDTH 960 0
DWIDTH 12 0
BBX 15 12 -1 -2
BITMAP
0E40
0040
1C40
03F0
1C90
0090
3FF0
0100
7B80
9480
9840
F020
ENDCHAR
STARTCHAR 376e
ENCODING 14190
SWIDTH 960 0
DWIDTH 12 0
BBX 15 12 -1 -2
BITMAP
0000
03F8
0208
0410
07F0
0410
0820
0FE0
1020
1040
2040
40C0
ENDCHAR
STARTCHAR 376f
ENCODING 14191
SWIDTH 960 0
DWIDTH 12 0
BBX 15 12 -1 -2
BITMAP
0220
02A0
02A0
07F0
0A40
3C40
5FF0
1080
1080
2100
2100
2100
ENDCHAR
STARTCHAR 3770
ENCODING 14192
SWIDTH 960 0
DWIDTH 12 0
BBX 15 12 -1 -2
BITMAP
0220
0250
0788
0A68
0C44
3DF8
5490
17F0
1180
2280
2440
2820
ENDCHAR
STARTCHAR 3771
ENCODING 14193
SWIDTH 960 0
DWIDTH 12 0
BBX 15 12 -1 -2
BITMAP
0448
0550
07F8
0880
17F8
3340
2440
2FA0
3090
4F00
4840
47C0
ENDCHAR
STARTCHAR 3772
ENCODING 14194
SWIDTH 960 0
DWIDTH 12 0
BBX 15 12 -1 -2
BITMAP
0410
047C
0794
09FC
1228
37F8
2240
2BF0
2640
47E0
4A80
51F0
ENDCHAR
STARTCHAR 3773
ENCODING 14195
SWIDTH 960 0
DWIDTH 12 0
BBX 15 12 -1 -2
BITMAP
0220
1FFC
0140
1FF0
0290
3FF8
0520
3FE0
1D80
2A80
CA60
0A00
ENDCHAR
STARTCHAR 3774
ENCODING 14196
SWIDTH 960 0
DWIDTH 12 0
BBX 15 12 -1 -2
BITMAP
0490
0290
02A0
1FF0
0280
3FF8
0880
1FC0
68B0
0900
1100
2600
ENDCHAR
STARTCHAR 3775
ENCODING 14197
SWIDTH 960 0
DWIDTH 12 0
BBX 15 12 -1 -2
BITMAP
0204
0524
18A4
26C8
0448
1F48
2A90
3E90
0C90
1420
2220
C060
ENDCHAR
STARTCHAR 3776
ENCODING 14198
SWIDTH 960 0
DWIDTH 12 0
BBX 15 12 -1 -2
BITMAP
0020
1FFC
1608
29F0
2800
2BF0
5420
57E0
7420
0FC0
0000
1FE0
ENDCHAR
STARTCHAR 3777
ENCODING 14199
SWIDTH 960 0
DWIDTH 12 0
BBX 15 12 -1 -2
BITMAP
0000
1FFC
12A4
2FE8
2108
3FF8
4F90
7170
5F10
9120
8F20
FFE0
ENDCHAR
STARTCHAR 3778
ENCODING 14200
SWIDTH 960 0
DWIDTH 12 0
BBX 15 12 -1 -2
BITMAP
0000
1F7C
1404
3E88
2250
3E60
50A0
7F10
0200
3F80
0400
FFE0
ENDCHAR
STARTCHAR 3779
ENCODING 14201
SWIDTH 960 0
DWIDTH 12 0
BBX 15 12 -1 -2
BITMAP
0910
0BFC
08A0
3FF0
1550
17F8
2AA0
4FE0
7A80
2D80
5560
8500
ENDCHAR
STARTCHAR 377a
ENCODING 14202
SWIDTH 960 0
DWIDTH 12 0
BBX 15 12 -1 -2
BITMAP
0020
0EF8
0628
09F8
1050
1DF0
0880
2BE0
3080
37E0
4D00
83F0
ENDCHAR
STARTCHAR 377b
ENCODING 14203
SWIDTH 960 0
DWIDTH 12 0
BBX 15 12 -1 -2
BITMAP
0080
1FFC
1084
2FE8
0100
3FF8
2520
3FE0
2A00
5240
90A0
0F80
ENDCHAR
STARTCHAR 377c
ENCODING 14204
SWIDTH 960 0
DWIDTH 12 0
BBX 15 12 -1 -2
BITMAP
0738
15E0
1768
2BA0
2E50
23F8
7C80
16A0
5330
1240
50A0
8FA0
ENDCHAR
STARTCHAR 377d
ENCODING 14205
SWIDTH 960 0
DWIDTH 12 0
BBX 15 12 -1 -2
BITMAP
0490
02A0
0FF8
0280
3FF8
19A0
6E30
1FC0
0200
7FC0
0400
0C00
ENDCHAR
STARTCHAR 377e
ENCODING 14206
SWIDTH 960 0
DWIDTH 12 0
BBX 15 12 -1 -2
BITMAP
0524
04A8
04F8
3C40
0BF8
09A0
1A20
75D8
1040
2780
2440
63C0
ENDCHAR
STARTCHAR 3821
ENCODING 14369
SWIDTH 960 0
DWIDTH 12 0
BBX 15 12 -1 -2
BITMAP
0420
0450
0598
3EE8
0840
1BF0
3CA0
37E0
5180
A280
2440
3820
ENDCHAR
STARTCHAR 3822
ENCODING 14370
SWIDTH 960 0
DWIDTH 12 0
BBX 15 12 -1 -2
BITMAP
0480
04F8
0720
3CF8
08A0
0DF8
3680
3BE0
5280
A7C0
2500
27E0
ENDCHAR
STARTCHAR 3823
ENCODING 14371
SWIDTH 960 0
DWIDTH 12 0
BBX 15 12 -1 -2
BITMAP
0080
1FFC
01A0
0680
3FF8
22C8
4F50
1200
3FC0
4400
FFE0
0400
ENDCHAR
STARTCHAR 3824
ENCODING 14372
SWIDTH 960 0
DWIDTH 12 0
BBX 15 12 -1 -2
BITMAP
0080
0090
0088
0100
3FF8
0100
0300
0500
0900
1100
2080
C060
ENDCHAR
STARTCHAR 3825
ENCODING 14373
SWIDTH 960 0
DWIDTH 12 0
BBX 15 12 -1 -2
BITMAP
0210
1F98
0214
3F20
33F8
2D20
7E40
4AA0
7EA0
9520
9620
9410
ENDCHAR
STARTCHAR 3826
ENCODING 14374
SWIDTH 960 0
DWIDTH 12 0
BBX 15 12 -1 -2
BITMAP
0000
1FFC
0448
0890
1090
1FF8
6520
2520
2620
7A40
0440
0840
ENDCHAR
STARTCHAR 3827
ENCODING 14375
SWIDTH 960 0
DWIDTH 12 0
BBX 15 12 -1 -2
BITMAP
0000
1FF8
0488
09F0
1110
1DF0
6A20
2BE0
2A40
5280
74A0
0860
ENDCHAR
STARTCHAR 3828
ENCODING 14376
SWIDTH 960 0
DWIDTH 12 0
BBX 15 12 -1 -2
BITMAP
047C
0844
167C
1800
12F8
3E88
15F0
5910
59F0
AA20
A220
2260
ENDCHAR
STARTCHAR 3829
ENCODING 14377
SWIDTH 960 0
DWIDTH 12 0
BBX 15 12 -1 -2
BITMAP
0000
03F0
1210
27E0
2420
27E0
4840
4FC0
4000
FFE0
2580
C460
ENDCHAR
STARTCHAR 382a
ENCODING 14378
SWIDTH 960 0
DWIDTH 12 0
BBX 15 12 -1 -2
BITMAP
0000
0FFC
0000
1FF8
1008
1FF8
2820
2FE0
2820
5FC0
9040
10C0
ENDCHAR
STARTCHAR 382b
ENCODING 14379
SWIDTH 960 0
DWIDTH 12 0
BBX 15 12 -1 -2
BITMAP
0000
07F0
0410
0FE0
0820
0FE0
1040
1FC0
0D00
1220
2220
C1E0
ENDCHAR
STARTCHAR 382c
ENCODING 14380
SWIDTH 960 0
DWIDTH 12 0
BBX 15 12 -1 -2
BITMAP
1C88
01FC
1E50
01F8
38A8
03FC
7150
07F0
7940
96C0
9AA0
F280
ENDCHAR
STARTCHAR 382d
ENCODING 14381
SWIDTH 960 0
DWIDTH 12 0
BBX 15 12 -1 -2
BITMAP
1FFC
1448
1F70
2250
3F88
0FE0
1040
1FC0
1040
3F80
1980
E060
ENDCHAR
STARTCHAR 382e
ENCODING 14382
SWIDTH 960 0
DWIDTH 12 0
BBX 15 12 -1 -2
BITMAP
0400
1F7C
0410
3E20
2A20
3FF8
5440
7C40
1040
FC80
2080
2080
ENDCHAR
STARTCHAR 382f
ENCODING 14383
SWIDTH 960 0
DWIDTH 12 0
BBX 15 12 -1 -2
BITMAP
0040
09F8
0548
07F8
0000
3BE0
1440
17E0
1420
1FC0
4800
87F0
ENDCHAR
STARTCHAR 3830
ENCODING 14384
SWIDTH 960 0
DWIDTH 12 0
BBX 15 12 -1 -2
BITMAP
0410
067C
0B94
31FC
1D28
0AF8
7F40
15F0
5B40
63E0
3580
C8F0
ENDCHAR
STARTCHAR 3831
ENCODING 14385
SWIDTH 960 0
DWIDTH 12 0
BBX 15 12 -1 -2
BITMAP
1C40
14A0
1730
2DC8
3080
37F0
5920
5FE0
6300
8500
8880
9040
ENDCHAR
STARTCHAR 3832
ENCODING 14386
SWIDTH 960 0
DWIDTH 12 0
BBX 15 12 -1 -2
BITMAP
0000
1F7C
1120
3E78
2288
3EF8
2910
6BF0
6D10
53E0
5940
E620
ENDCHAR
STARTCHAR 3833
ENCODING 14387
SWIDTH 960 0
DWIDTH 12 0
BBX 15 12 -1 -2
BITMAP
0020
1F50
1498
3FE8
2840
3DF0
52A0
7FE0
1480
A980
8A40
3420
ENDCHAR
STARTCHAR 3834
ENCODING 14388
SWIDTH 960 0
DWIDTH 12 0
BBX 15 12 -1 -2
BITMAP
0420
0750
0498
3FE8
2240
37F0
5EA0
57E0
7480
D980
8A40
FC20
ENDCHAR
STARTCHAR 3835
ENCODING 14389
SWIDTH 960 0
DWIDTH 12 0
BBX 15 12 -1 -2
BITMAP
0000
03F0
0000
0000
1FF8
0240
0480
0480
0880
1120
2120
40E0
ENDCHAR
STARTCHAR 3836
ENCODING 14390
SWIDTH 960 0
DWIDTH 12 0
BBX 15 12 -1 -2
BITMAP
0000
07FC
0440
0BF0
0A10
0BF0
1420
17E0
2140
5240
A220
0600
ENDCHAR
STARTCHAR 3837
ENCODING 14391
SWIDTH 960 0
DWIDTH 12 0
BBX 15 12 -1 -2
BITMAP
0488
0250
0FFC
1040
17C0
12F8
3F20
2AA0
2FC0
34C0
9D20
0620
ENDCHAR
STARTCHAR 3838
ENCODING 14392
SWIDTH 960 0
DWIDTH 12 0
BBX 15 12 -1 -2
BITMAP
0000
04FC
0804
0808
3208
0C08
0810
1010
2410
4820
F420
04C0
ENDCHAR
STARTCHAR 3839
ENCODING 14393
SWIDTH 960 0
DWIDTH 12 0
BBX 15 12 -1 -2
BITMAP
0020
1E20
03FC
0440
3C50
26A0
7B20
0940
09C0
0A40
27A0
C020
ENDCHAR
STARTCHAR 383a
ENCODING 14394
SWIDTH 960 0
DWIDTH 12 0
BBX 15 12 -1 -2
BITMAP
0818
0414
07FC
0420
27A8
1430
0F60
1D40
2DC0
5F50
9230
A410
ENDCHAR
STARTCHAR 383b
ENCODING 14395
SWIDTH 960 0
DWIDTH 12 0
BBX 15 12 -1 -2
BITMAP
0800
07FC
0220
25F0
1510
05F0
0A20
1BE0
28A0
5520
A920
C300
ENDCHAR
STARTCHAR 383c
ENCODING 14396
SWIDTH 960 0
DWIDTH 12 0
BBX 15 12 -1 -2
BITMAP
0080
0080
1FFC
0200
0240
0480
3500
0200
0680
0880
1FC0
E040
ENDCHAR
STARTCHAR 383d
ENCODING 14397
SWIDTH 960 0
DWIDTH 12 0
BBX 15 12 -1 -2
BITMAP
00FC
1F84
04FC
0908
09F8
3F08
13F0
1140
3A40
C490
0890
3070
ENDCHAR
STARTCHAR 383e
ENCODING 14398
SWIDTH 960 0
DWIDTH 12 0
BBX 15 12 -1 -2
BITMAP
0420
0420
1CFC
1440
0850
37A0
5D40
1080
59C0
AA40
AFE0
2020
ENDCHAR
STARTCHAR 383f
ENCODING 14399
SWIDTH 960 0
DWIDTH 12 0
BBX 15 12 -1 -2
BITMAP
0410
0F10
09FC
1A40
1650
13A0
7D40
2480
3520
5A40
4FA0
9820
ENDCHAR
STARTCHAR 3840
ENCODING 14400
SWIDTH 960 0
DWIDTH 12 0
BBX 15 12 -1 -2
BITMAP
03E0
0000
1FFC
0000
07C0
0000
0F80
0000
1FC0
2080
2080
3F80
ENDCHAR
STARTCHAR 3841
ENCODING 14401
SWIDTH 960 0
DWIDTH 12 0
BBX 15 12 -1 -2
BITMAP
0E20
00FC
1F48
0090
1DF8
0160
3B90
0220
7CC0
9420
98C0
FB00
ENDCHAR
STARTCHAR 3842
ENCODING 14402
SWIDTH 960 0
DWIDTH 12 0
BBX 15 12 -1 -2
BITMAP
0000
1DF0
1510
2BE0
3220
2A20
4FC0
4D20
75C0
8A80
8C40
B020
ENDCHAR
STARTCHAR 3843
ENCODING 14403
SWIDTH 960 0
DWIDTH 12 0
BBX 15 12 -1 -2
BITMAP
0030
0FC0
0090
0920
0540
0500
7FF0
0200
0200
0400
0400
0C00
ENDCHAR
STARTCHAR 3844
ENCODING 14404
SWIDTH 960 0
DWIDTH 12 0
BBX 15 12 -1 -2
BITMAP
0400
07FC
0644
0C88
17F8
3488
29D0
2A50
2A50
57A0
5020
5FE0
ENDCHAR
STARTCHAR 3845
ENCODING 14405
SWIDTH 960 0
DWIDTH 12 0
BBX 15 12 -1 -2
BITMAP
0080
0080
0080
3FF8
0100
0100
0200
1FC0
1040
2080
2080
3F80
ENDCHAR
STARTCHAR 3846
ENCODING 14406
SWIDTH 960 0
DWIDTH 12 0
BBX 15 12 -1 -2
BITMAP
0018
03E0
1C48
2C90
2AA0
2A80
5FF0
5100
7100
0200
0200
0600
ENDCHAR
STARTCHAR 3847
ENCODING 14407
SWIDTH 960 0
DWIDTH 12 0
BBX 15 12 -1 -2
BITMAP
0000
0FFC
0884
1108
1FF8
1108
2FD0
2850
2850
5FA0
4020
7FE0
ENDCHAR
STARTCHAR 3848
ENCODING 14408
SWIDTH 960 0
DWIDTH 12 0
BBX 15 12 -1 -2
BITMAP
0820
0820
0A20
3FF8
1440
1440
2880
4BE0
7A20
2C40
4440
87C0
ENDCHAR
STARTCHAR 3849
ENCODING 14409
SWIDTH 960 0
DWIDTH 12 0
BBX 15 12 -1 -2
BITMAP
000C
1EF8
02A8
0550
0950
0950
1AA0
72A0
12A0
2520
2560
6BD0
ENDCHAR
STARTCHAR 384a
ENCODING 14410
SWIDTH 960 0
DWIDTH 12 0
BBX 15 12 -1 -2
BITMAP
0000
0FF0
0010
0020
0020
1FE0
2000
2000
2020
4040
4040
3FC0
ENDCHAR
STARTCHAR 384b
ENCODING 14411
SWIDTH 960 0
DWIDTH 12 0
BBX 15 12 -1 -2
BITMAP
0040
0FFC
0840
1FF8
1490
17F0
2920
2FE0
2100
7FE0
8200
0200
ENDCHAR
STARTCHAR 384c
ENCODING 14412
SWIDTH 960 0
DWIDTH 12 0
BBX 15 12 -1 -2
BITMAP
000C
1EF0
02B0
0550
3D50
2150
7AA0
0AA0
0CD0
1560
29E0
D650
ENDCHAR
STARTCHAR 384d
ENCODING 14413
SWIDTH 960 0
DWIDTH 12 0
BBX 15 12 -1 -2
BITMAP
0000
0FFC
0000
0FF0
0810
0810
1FE0
1000
2000
2000
4000
8000
ENDCHAR
STARTCHAR 384e
ENCODING 14414
SWIDTH 960 0
DWIDTH 12 0
BBX 15 12 -1 -2
BITMAP
0420
0420
0440
3EF8
0910
0B20
1D20
24C0
2440
4980
7A40
0C20
ENDCHAR
STARTCHAR 384f
ENCODING 14415
SWIDTH 960 0
DWIDTH 12 0
BBX 15 12 -1 -2
BITMAP
0420
0420
0420
3FF8
0840
1840
3880
37E0
5220
A440
2440
27C0
ENDCHAR
STARTCHAR 3850
ENCODING 14416
SWIDTH 960 0
DWIDTH 12 0
BBX 15 12 -1 -2
BITMAP
1100
093C
0124
0FC8
2278
1248
0F90
19F0
2990
5F20
8220
8460
ENDCHAR
STARTCHAR 3851
ENCODING 14417
SWIDTH 960 0
DWIDTH 12 0
BBX 15 12 -1 -2
BITMAP
1418
0DE0
1960
2AA0
0AA0
0AA0
3540
5540
15C0
2B40
2BC0
D620
ENDCHAR
STARTCHAR 3852
ENCODING 14418
SWIDTH 960 0
DWIDTH 12 0
BBX 15 12 -1 -2
BITMAP
049C
1694
0FF4
0928
3D38
0928
3750
3D70
5550
AEA0
2120
2260
ENDCHAR
STARTCHAR 3853
ENCODING 14419
SWIDTH 960 0
DWIDTH 12 0
BBX 15 12 -1 -2
BITMAP
0420
0420
1CFC
04A0
09F0
0A18
3FE0
5500
11E0
2040
2040
2180
ENDCHAR
STARTCHAR 3854
ENCODING 14420
SWIDTH 960 0
DWIDTH 12 0
BBX 15 12 -1 -2
BITMAP
0070
0F50
0950
1298
1F08
1200
27E0
3C40
2580
4900
4A80
9C60
ENDCHAR
STARTCHAR 3855
ENCODING 14421
SWIDTH 960 0
DWIDTH 12 0
BBX 15 12 -1 -2
BITMAP
0000
047C
0444
3F88
08F8
0888
1D10
25F0
2510
4A20
7A20
0460
ENDCHAR
STARTCHAR 3856
ENCODING 14422
SWIDTH 960 0
DWIDTH 12 0
BBX 15 12 -1 -2
BITMAP
0240
1FF8
0240
0030
3FE0
06A0
0D40
1D40
7540
2A40
2AC0
77A0
ENDCHAR
STARTCHAR 3857
ENCODING 14423
SWIDTH 960 0
DWIDTH 12 0
BBX 15 12 -1 -2
BITMAP
0080
00F0
0080
0FF8
0A10
0FE0
1400
13E0
2280
2520
4920
90E0
ENDCHAR
STARTCHAR 3858
ENCODING 14424
SWIDTH 960 0
DWIDTH 12 0
BBX 15 12 -1 -2
BITMAP
0C20
01FC
1ED0
0110
3AE8
0000
73E0
0100
79E0
9040
9040
F180
ENDCHAR
STARTCHAR 3859
ENCODING 14425
SWIDTH 960 0
DWIDTH 12 0
BBX 15 12 -1 -2
BITMAP
0020
1EFC
1260
24A0
3DF0
0A08
53F0
5D00
51E0
A840
B040
C180
ENDCHAR
STARTCHAR 385a
ENCODING 14426
SWIDTH 960 0
DWIDTH 12 0
BBX 15 12 -1 -2
BITMAP
0420
0420
0A20
13F8
3C40
0840
7C80
17E0
5A20
6C40
3440
C7C0
ENDCHAR
STARTCHAR 385b
ENCODING 14427
SWIDTH 960 0
DWIDTH 12 0
BBX 15 12 -1 -2
BITMAP
0000
0FFC
0000
0FF0
0810
0FF0
1440
1FF0
3480
4FC0
4900
8FE0
ENDCHAR
STARTCHAR 385c
ENCODING 14428
SWIDTH 960 0
DWIDTH 12 0
BBX 15 12 -1 -2
BITMAP
0000
1F7C
0010
3FF8
2188
3FF8
5510
5FF0
7510
BFE0
A940
3E20
ENDCHAR
STARTCHAR 385d
ENCODING 14429
SWIDTH 960 0
DWIDTH 12 0
BBX 15 12 -1 -2
BITMAP
0420
1F20
04F8
3C40
0040
3FF0
4420
7E20
4D40
5180
3A80
C460
ENDCHAR
STARTCHAR 385e
ENCODING 14430
SWIDTH 960 0
DWIDTH 12 0
BBX 15 12 -1 -2
BITMAP
0000
07F8
0080
0100
0100
0FE0
0240
0240
0440
0880
0880
7FE0
ENDCHAR
STARTCHAR 385f
ENCODING 14431
SWIDTH 960 0
DWIDTH 12 0
BBX 15 12 -1 -2
BITMAP
0000
0FF8
0200
0400
07C0
0840
0880
1080
3F00
0200
0200
FFE0
ENDCHAR
STARTCHAR 3860
ENCODING 14432
SWIDTH 960 0
DWIDTH 12 0
BBX 15 12 -1 -2
BITMAP
0200
03FC
0440
0480
0880
3BE0
5140
1240
1240
2480
2480
3FE0
ENDCHAR
STARTCHAR 3861
ENCODING 14433
SWIDTH 960 0
DWIDTH 12 0
BBX 15 12 -1 -2
BITMAP
0200
0200
07F8
0880
1080
0080
7FF0
0100
0100
0200
0200
0200
ENDCHAR
STARTCHAR 3862
ENCODING 14434
SWIDTH 960 0
DWIDTH 12 0
BBX 15 12 -1 -2
BITMAP
03F0
0A10
0A10
17E0
1000
1FE0
2040
0040
7FF0
1200
2180
C040
ENDCHAR
STARTCHAR 3863
ENCODING 14435
SWIDTH 960 0
DWIDTH 12 0
BBX 15 12 -1 -2
BITMAP
0FF8
0100
0100
1FE0
0420
0420
7FF0
0000
1FC0
2080
2080
3F80
ENDCHAR
STARTCHAR 3864
ENCODING 14436
SWIDTH 960 0
DWIDTH 12 0
BBX 15 12 -1 -2
BITMAP
0878
0948
0B48
3EF0
1600
17F0
2820
4820
7FF0
2A80
4440
8820
ENDCHAR
STARTCHAR 3865
ENCODING 14437
SWIDTH 960 0
DWIDTH 12 0
BBX 15 12 -1 -2
BITMAP
0440
0490
1920
29A0
0910
17F0
6110
23C0
2E80
4300
4680
7860
ENDCHAR
STARTCHAR 3866
ENCODING 14438
SWIDTH 960 0
DWIDTH 12 0
BBX 15 12 -1 -2
BITMAP
0A00
0A1C
17F4
2928
0FE8
1128
6BD0
2A50
2A60
57C0
7C80
4080
ENDCHAR
STARTCHAR 3867
ENCODING 14439
SWIDTH 960 0
DWIDTH 12 0
BBX 15 12 -1 -2
BITMAP
0400
05FC
0420
0BF0
1890
3C90
53F8
1000
13E0
2440
2440
27C0
ENDCHAR
STARTCHAR 3868
ENCODING 14440
SWIDTH 960 0
DWIDTH 12 0
BBX 15 12 -1 -2
BITMAP
0400
05FC
0420
3FF0
0890
1890
3FF0
3400
57E0
A440
A440
27C0
ENDCHAR
STARTCHAR 3869
ENCODING 14441
SWIDTH 960 0
DWIDTH 12 0
BBX 15 12 -1 -2
BITMAP
0420
0460
04A0
3EB0
0AD8
1B30
37E0
3880
5FF0
A960
2FA0
2860
ENDCHAR
STARTCHAR 386a
ENCODING 14442
SWIDTH 960 0
DWIDTH 12 0
BBX 15 12 -1 -2
BITMAP
0080
1EBC
08A4
17C8
1178
3948
2F90
29F0
3990
DF20
0220
0460
ENDCHAR
STARTCHAR 386b
ENCODING 14443
SWIDTH 960 0
DWIDTH 12 0
BBX 15 12 -1 -2
BITMAP
0210
0FFC
0210
07E0
0420
07E0
0840
7FF8
1A40
2FC0
D8B0
0F80
ENDCHAR
STARTCHAR 386c
ENCODING 14444
SWIDTH 960 0
DWIDTH 12 0
BBX 15 12 -1 -2
BITMAP
0E00
01F8
1C40
03E0
1D20
0120
3FF0
0000
7BE0
9440
9440
F7C0
ENDCHAR
STARTCHAR 386d
ENCODING 14445
SWIDTH 960 0
DWIDTH 12 0
BBX 15 12 -1 -2
BITMAP
0C78
0148
1F48
02F0
1E00
07F0
3820
0020
7FF0
9280
9240
F420
ENDCHAR
STARTCHAR 386e
ENCODING 14446
SWIDTH 960 0
DWIDTH 12 0
BBX 15 12 -1 -2
BITMAP
0C50
01FC
1E50
01F8
1DA0
06F8
3940
03F0
7A60
9380
9280
FC60
ENDCHAR
STARTCHAR 386f
ENCODING 14447
SWIDTH 960 0
DWIDTH 12 0
BBX 15 12 -1 -2
BITMAP
0040
1F5C
0AF4
14B8
3EA8
3BE8
6CD0
44F0
7CD0
8F20
F920
0260
ENDCHAR
STARTCHAR 3870
ENCODING 14448
SWIDTH 960 0
DWIDTH 12 0
BBX 15 12 -1 -2
BITMAP
0200
0200
07FC
0800
17E0
20C0
0100
0600
0800
1020
2020
1FE0
ENDCHAR
STARTCHAR 3871
ENCODING 14449
SWIDTH 960 0
DWIDTH 12 0
BBX 15 12 -1 -2
BITMAP
0400
077C
0A54
1EF8
2AA8
3EA8
55F0
7C40
19F0
6880
5080
87E0
ENDCHAR
STARTCHAR 3872
ENCODING 14450
SWIDTH 960 0
DWIDTH 12 0
BBX 15 12 -1 -2
BITMAP
0080
0080
1FFC
0440
0420
1850
2880
0500
0600
0A00
3180
C060
ENDCHAR
STARTCHAR 3873
ENCODING 14451
SWIDTH 960 0
DWIDTH 12 0
BBX 15 12 -1 -2
BITMAP
0220
0220
03FC
04A0
0910
3B28
5240
1140
1180
2280
2440
3820
ENDCHAR
STARTCHAR 3874
ENCODING 14452
SWIDTH 960 0
DWIDTH 12 0
BBX 15 12 -1 -2
BITMAP
0200
02F8
0208
07F8
0900
3BF8
5480
1880
17F0
2280
2440
3820
ENDCHAR
STARTCHAR 3875
ENCODING 14453
SWIDTH 960 0
DWIDTH 12 0
BBX 15 12 -1 -2
BITMAP
0400
04F8
0408
0FF8
1500
37F0
2C80
2880
2FF0
5280
4440
5820
ENDCHAR
STARTCHAR 3876
ENCODING 14454
SWIDTH 960 0
DWIDTH 12 0
BBX 15 12 -1 -2
BITMAP
0220
0220
07F8
0840
0FF8
3910
57F0
1080
17E0
2100
2100
2100
ENDCHAR
STARTCHAR 3877
ENCODING 14455
SWIDTH 960 0
DWIDTH 12 0
BBX 15 12 -1 -2
BITMAP
0080
0890
08A0
0940
0100
1FF8
0500
0500
0900
1220
2220
C1E0
ENDCHAR
STARTCHAR 3878
ENCODING 14456
SWIDTH 960 0
DWIDTH 12 0
BBX 15 12 -1 -2
BITMAP
0220
0220
0420
0420
0910
3208
4200
0480
0C80
17C0
7840
0040
ENDCHAR
STARTCHAR 3879
ENCODING 14457
SWIDTH 960 0
DWIDTH 12 0
BBX 15 12 -1 -2
BITMAP
0020
0020
1E20
09F8
0848
0848
1090
1490
3910
C220
0420
08C0
ENDCHAR
STARTCHAR 387a
ENCODING 14458
SWIDTH 960 0
DWIDTH 12 0
BBX 15 12 -1 -2
BITMAP
0220
0220
1FA0
0BF8
1248
2548
1490
0890
1910
2A20
4420
88C0
ENDCHAR
STARTCHAR 387b
ENCODING 14459
SWIDTH 960 0
DWIDTH 12 0
BBX 15 12 -1 -2
BITMAP
0400
0400
0BFC
0908
1108
2108
4310
0490
1F90
68A0
0020
00C0
ENDCHAR
STARTCHAR 387c
ENCODING 14460
SWIDTH 960 0
DWIDTH 12 0
BBX 15 12 -1 -2
BITMAP
0000
0FFC
0A10
17E0
1420
17E0
2000
2FC0
2080
7FE0
8200
0600
ENDCHAR
STARTCHAR 387d
ENCODING 14461
SWIDTH 960 0
DWIDTH 12 0
BBX 15 12 -1 -2
BITMAP
0000
0000
0FFC
1008
1008
1008
2010
2010
2010
4020
7FE0
4020
ENDCHAR
STARTCHAR 387e
ENCODING 14462
SWIDTH 960 0
DWIDTH 12 0
BBX 15 12 -1 -2
BITMAP
0080
0100
0600
1BF8
1008
1008
2790
2490
2490
4F20
4020
4060
ENDCHAR
STARTCHAR 3921
ENCODING 14625
SWIDTH 960 0
DWIDTH 12 0
BBX 15 12 -1 -2
BITMAP
0038
07C0
0400
0800
0FF8
0800
1000
17E0
2420
4840
8840
0FC0
ENDCHAR
STARTCHAR 3922
ENCODING 14626
SWIDTH 960 0
DWIDTH 12 0
BBX 15 12 -1 -2
BITMAP
0080
00F8
1C88
29F8
2A40
2EF8
5540
5640
57F0
E980
0A40
0C20
ENDCHAR
STARTCHAR 3923
ENCODING 14627
SWIDTH 960 0
DWIDTH 12 0
BBX 15 12 -1 -2
BITMAP
0020
0420
05FC
0800
3FE0
0920
1240
1240
3A40
C4A0
08A0
10E0
ENDCHAR
STARTCHAR 3924
ENCODING 14628
SWIDTH 960 0
DWIDTH 12 0
BBX 15 12 -1 -2
BITMAP
0408
04F0
0480
3D00
09F8
0900
1200
13F0
3F10
CA20
0A20
13E0
ENDCHAR
STARTCHAR 3925
ENCODING 14629
SWIDTH 960 0
DWIDTH 12 0
BBX 15 12 -1 -2
BITMAP
0400
04F8
0410
3E20
1440
1440
2FF0
4880
7880
2900
4100
8300
ENDCHAR
STARTCHAR 3926
ENCODING 14630
SWIDTH 960 0
DWIDTH 12 0
BBX 15 12 -1 -2
BITMAP
0040
1F40
0240
0480
0880
0E80
7100
1100
1100
2200
2220
61E0
ENDCHAR
STARTCHAR 3927
ENCODING 14631
SWIDTH 960 0
DWIDTH 12 0
BBX 15 12 -1 -2
BITMAP
0080
0088
07F0
0140
3FF8
0100
0FC0
7180
3FF0
0400
0400
0C00
ENDCHAR
STARTCHAR 3928
ENCODING 14632
SWIDTH 960 0
DWIDTH 12 0
BBX 15 12 -1 -2
BITMAP
0080
1FFC
1104
0200
3FF8
0200
0600
0A00
3480
4880
8F40
3040
ENDCHAR
STARTCHAR 3929
ENCODING 14633
SWIDTH 960 0
DWIDTH 12 0
BBX 15 12 -1 -2
BITMAP
0000
0000
0FF8
0100
0100
0100
0200
0200
0200
0400
FFE0
0000
ENDCHAR
STARTCHAR 392a
ENCODING 14634
SWIDTH 960 0
DWIDTH 12 0
BBX 15 12 -1 -2
BITMAP
0000
01FC
1F40
0880
0880
09F8
1210
1010
3C10
C020
0020
00C0
ENDCHAR
STARTCHAR 392b
ENCODING 14635
SWIDTH 960 0
DWIDTH 12 0
BBX 15 12 -1 -2
BITMAP
0120
0120
0FFC
0240
3FFC
0420
0FC0
10A0
7F98
1000
1080
0F80
ENDCHAR
STARTCHAR 392c
ENCODING 14636
SWIDTH 960 0
DWIDTH 12 0
BBX 15 12 -1 -2
BITMAP
0080
0080
0FF8
0100
3FF8
0860
0880
7FF0
0200
7FC0
0400
0400
ENDCHAR
STARTCHAR 392d
ENCODING 14637
SWIDTH 960 0
DWIDTH 12 0
BBX 15 12 -1 -2
BITMAP
0040
07FC
0400
0880
0880
0900
1100
1240
2660
2BA0
9C20
0020
ENDCHAR
STARTCHAR 392e
ENCODING 14638
SWIDTH 960 0
DWIDTH 12 0
BBX 15 12 -1 -2
BITMAP
0040
0FFC
0840
17F0
1090
1FFC
2120
2FE0
2300
4500
8880
3060
ENDCHAR
STARTCHAR 392f
ENCODING 14639
SWIDTH 960 0
DWIDTH 12 0
BBX 15 12 -1 -2
BITMAP
0040
0FFC
0840
17F0
1090
1FF8
2120
2FE0
4940
4F80
B260
0600
ENDCHAR
STARTCHAR 3930
ENCODING 14640
SWIDTH 960 0
DWIDTH 12 0
BBX 15 12 -1 -2
BITMAP
0020
1E20
0220
0440
3C40
2080
7880
0940
0A40
0CE0
2720
C020
ENDCHAR
STARTCHAR 3931
ENCODING 14641
SWIDTH 960 0
DWIDTH 12 0
BBX 15 12 -1 -2
BITMAP
0400
05FC
0400
09F0
1D10
3B10
53E0
1220
1220
27C0
2000
2FF0
ENDCHAR
STARTCHAR 3932
ENCODING 14642
SWIDTH 960 0
DWIDTH 12 0
BBX 15 12 -1 -2
BITMAP
0488
05FC
0488
1840
1FF8
2D00
51E0
1540
1540
2A80
2AA0
3060
ENDCHAR
STARTCHAR 3933
ENCODING 14643
SWIDTH 960 0
DWIDTH 12 0
BBX 15 12 -1 -2
BITMAP
0440
0440
07F8
3C00
09E0
0920
1A40
7240
1240
24A0
28A0
7060
ENDCHAR
STARTCHAR 3934
ENCODING 14644
SWIDTH 960 0
DWIDTH 12 0
BBX 15 12 -1 -2
BITMAP
0480
0480
057C
3D08
0A08
0CE8
1950
7150
11D0
2220
2020
60C0
ENDCHAR
STARTCHAR 3935
ENCODING 14645
SWIDTH 960 0
DWIDTH 12 0
BBX 15 12 -1 -2
BITMAP
0420
0420
05FC
3EA8
08A0
0F18
1800
73F0
1080
2100
2100
6FE0
ENDCHAR
STARTCHAR 3936
ENCODING 14646
SWIDTH 960 0
DWIDTH 12 0
BBX 15 12 -1 -2
BITMAP
0040
0040
1E40
08F8
0910
0B20
1120
18C0
6180
0280
0440
1820
ENDCHAR
STARTCHAR 3937
ENCODING 14647
SWIDTH 960 0
DWIDTH 12 0
BBX 15 12 -1 -2
BITMAP
07F8
0408
07F8
0810
0FF0
0600
39F0
2110
2110
5A20
E2C0
0200
ENDCHAR
STARTCHAR 3938
ENCODING 14648
SWIDTH 960 0
DWIDTH 12 0
BBX 15 12 -1 -2
BITMAP
0000
07F0
0410
0FE0
0820
1FE0
2220
1240
7FF0
0A00
3220
C1E0
ENDCHAR
STARTCHAR 3939
ENCODING 14649
SWIDTH 960 0
DWIDTH 12 0
BBX 15 12 -1 -2
BITMAP
0000
1FFC
0080
0FE0
0920
0FE0
1240
1FC0
0A00
0A00
3100
C0E0
ENDCHAR
STARTCHAR 393a
ENCODING 14650
SWIDTH 960 0
DWIDTH 12 0
BBX 15 12 -1 -2
BITMAP
0440
0440
07FC
3C00
09E0
1920
3A40
3640
5240
A4A0
28A0
3060
ENDCHAR
STARTCHAR 393b
ENCODING 14651
SWIDTH 960 0
DWIDTH 12 0
BBX 15 12 -1 -2
BITMAP
0420
0420
07FC
3CA0
0910
1F28
3940
3140
5180
A280
2440
3820
ENDCHAR
STARTCHAR 393c
ENCODING 14652
SWIDTH 960 0
DWIDTH 12 0
BBX 15 12 -1 -2
BITMAP
0400
05FC
0420
3FF8
0948
1DF8
3690
53F0
5280
2280
2640
2830
ENDCHAR
STARTCHAR 393d
ENCODING 14653
SWIDTH 960 0
DWIDTH 12 0
BBX 15 12 -1 -2
BITMAP
0490
05F8
0490
3FF0
0920
1FF8
3AA0
33E0
52A0
AFE0
2440
24C0
ENDCHAR
STARTCHAR 393e
ENCODING 14654
SWIDTH 960 0
DWIDTH 12 0
BBX 15 12 -1 -2
BITMAP
0800
05F8
0020
2040
1040
0040
0080
1080
2080
4100
9FE0
8000
ENDCHAR
STARTCHAR 393f
ENCODING 14655
SWIDTH 960 0
DWIDTH 12 0
BBX 15 12 -1 -2
BITMAP
0890
0490
0090
27F8
1120
0120
0240
1FF0
2000
4480
8840
9020
ENDCHAR
STARTCHAR 3940
ENCODING 14656
SWIDTH 960 0
DWIDTH 12 0
BBX 15 12 -1 -2
BITMAP
0820
0520
01F8
2240
1440
07F8
0000
17E0
2420
4840
8840
8FC0
ENDCHAR
STARTCHAR 3941
ENCODING 14657
SWIDTH 960 0
DWIDTH 12 0
BBX 15 12 -1 -2
BITMAP
1120
0920
03F8
2240
1FF8
0340
0440
2FB0
3080
4F00
8840
87C0
ENDCHAR
STARTCHAR 3942
ENCODING 14658
SWIDTH 960 0
DWIDTH 12 0
BBX 15 12 -1 -2
BITMAP
08A0
05F8
00A0
23F0
1140
07F8
0520
17E0
2520
5FE0
8840
88C0
ENDCHAR
STARTCHAR 3943
ENCODING 14659
SWIDTH 960 0
DWIDTH 12 0
BBX 15 12 -1 -2
BITMAP
0000
0FF8
0888
1110
1FF0
1110
2220
3FE0
0200
0400
0400
0400
ENDCHAR
STARTCHAR 3944
ENCODING 14660
SWIDTH 960 0
DWIDTH 12 0
BBX 15 12 -1 -2
BITMAP
0100
07F0
0410
0FE0
0820
0FE0
0000
3FE0
0200
3F80
0400
FFE0
ENDCHAR
STARTCHAR 3945
ENCODING 14661
SWIDTH 960 0
DWIDTH 12 0
BBX 15 12 -1 -2
BITMAP
0000
1FFC
0420
0BF0
1250
1FF0
6CA0
2FE0
2B80
6A00
0D80
3060
ENDCHAR
STARTCHAR 3946
ENCODING 14662
SWIDTH 960 0
DWIDTH 12 0
BBX 15 12 -1 -2
BITMAP
0320
1DFC
0400
09F0
3F10
09F0
37F0
3C10
55D0
AAA0
2BA0
2860
ENDCHAR
STARTCHAR 3947
ENCODING 14663
SWIDTH 960 0
DWIDTH 12 0
BBX 15 12 -1 -2
BITMAP
0420
15FC
0EA0
09F0
3F50
09F8
3AA0
37F0
56A0
2B80
3560
2100
ENDCHAR
STARTCHAR 3948
ENCODING 14664
SWIDTH 960 0
DWIDTH 12 0
BBX 15 12 -1 -2
BITMAP
0400
04F8
1C20
1440
0840
3440
5C80
1480
5880
A900
AFE0
2000
ENDCHAR
STARTCHAR 3949
ENCODING 14665
SWIDTH 960 0
DWIDTH 12 0
BBX 15 12 -1 -2
BITMAP
0440
0440
1C40
17F8
0880
3520
5D40
1240
5AC0
AB40
A9E0
3020
ENDCHAR
STARTCHAR 394a
ENCODING 14666
SWIDTH 960 0
DWIDTH 12 0
BBX 15 12 -1 -2
BITMAP
0420
0420
1FFC
14A0
0910
3428
5D40
1140
5580
A680
A440
2820
ENDCHAR
STARTCHAR 394b
ENCODING 14667
SWIDTH 960 0
DWIDTH 12 0
BBX 15 12 -1 -2
BITMAP
0400
04FC
1C94
15A8
0948
35F8
5E90
12B0
5AB0
AFE0
A420
2460
ENDCHAR
STARTCHAR 394c
ENCODING 14668
SWIDTH 960 0
DWIDTH 12 0
BBX 15 12 -1 -2
BITMAP
0448
0448
1E48
09F8
1E90
0890
7D20
37F0
3920
6A40
A440
2840
ENDCHAR
STARTCHAR 394d
ENCODING 14669
SWIDTH 960 0
DWIDTH 12 0
BBX 15 12 -1 -2
BITMAP
0080
0088
07F0
0140
3FF8
0100
07E0
1C00
67C0
0080
0080
0300
ENDCHAR
STARTCHAR 394e
ENCODING 14670
SWIDTH 960 0
DWIDTH 12 0
BBX 15 12 -1 -2
BITMAP
0080
04F0
0480
3FF8
0000
0FE0
1040
1FC0
1040
3F80
2080
2180
ENDCHAR
STARTCHAR 394f
ENCODING 14671
SWIDTH 960 0
DWIDTH 12 0
BBX 15 12 -1 -2
BITMAP
0020
0E20
0A20
17F8
1C80
1520
2940
3A40
2CA0
5520
59E0
B320
ENDCHAR
STARTCHAR 3950
ENCODING 14672
SWIDTH 960 0
DWIDTH 12 0
BBX 15 12 -1 -2
BITMAP
0020
0FFC
0B64
16A8
1CA0
1738
2C00
3BE0
2880
5100
5100
BFE0
ENDCHAR
STARTCHAR 3951
ENCODING 14673
SWIDTH 960 0
DWIDTH 12 0
BBX 15 12 -1 -2
BITMAP
0080
1FFC
0220
07C0
0000
3FF8
4890
1FC0
1040
3F80
2080
2180
ENDCHAR
STARTCHAR 3952
ENCODING 14674
SWIDTH 960 0
DWIDTH 12 0
BBX 15 12 -1 -2
BITMAP
0220
0420
0FFC
1400
1CE0
14A0
7F40
2940
3A40
54A0
58A0
B060
ENDCHAR
STARTCHAR 3953
ENCODING 14675
SWIDTH 960 0
DWIDTH 12 0
BBX 15 12 -1 -2
BITMAP
0220
1FFC
0220
0100
3FF8
0800
0FE0
1240
1240
24A0
44A0
8060
ENDCHAR
ENDFONT
